<?xml version="1.0" standalone="no"?>
<!DOCTYPE svg PUBLIC "-//W3C//DTD SVG 20010904//EN"
 "http://www.w3.org/TR/2001/REC-SVG-20010904/DTD/svg10.dtd">
<svg version="1.0" xmlns="http://www.w3.org/2000/svg"
 width="750.000000pt" height="1000.000000pt" viewBox="0 0 750.000000 1000.000000"
 preserveAspectRatio="xMidYMid meet">

<g transform="translate(0.000000,1000.000000) scale(0.100000,-0.100000)"
fill="#000000" stroke="none">
<path d="M5130 9315 c-5 -14 -10 -29 -10 -33 0 -4 -10 -23 -23 -42 -13 -19
-31 -65 -41 -102 -10 -37 -30 -87 -45 -110 -30 -48 -54 -97 -72 -146 -6 -18
-24 -41 -40 -52 -15 -11 -29 -30 -31 -42 -2 -13 -20 -32 -47 -47 -42 -25 -53
-49 -21 -44 8 2 35 6 60 9 25 4 58 18 73 31 30 25 49 22 45 -5 -4 -23 54 -28
84 -8 28 20 58 21 58 2 0 -13 26 -27 80 -42 14 -4 42 -22 63 -40 20 -19 43
-34 51 -34 8 0 29 -8 46 -17 25 -14 34 -15 37 -5 9 23 40 12 80 -29 30 -30 64
-49 134 -75 102 -39 139 -65 139 -100 0 -33 -13 -36 -61 -15 -29 13 -80 22
-149 27 -58 4 -113 11 -122 16 -13 6 -35 0 -78 -22 -40 -20 -74 -30 -105 -30
-41 0 -46 2 -59 34 -8 18 -19 37 -25 40 -6 4 -11 22 -11 40 0 19 -7 39 -15 46
-8 7 -15 21 -15 31 0 10 -9 24 -19 31 -11 8 -21 27 -23 43 -4 41 -32 43 -105
7 -32 -16 -70 -32 -84 -35 -76 -19 -178 -145 -200 -248 -16 -72 -83 -144 -143
-153 -50 -8 -93 -36 -82 -54 5 -8 40 -12 98 -12 75 0 97 4 125 21 24 15 41 19
61 14 15 -4 38 -9 52 -10 14 -2 50 -12 80 -23 30 -11 91 -29 135 -41 50 -14
111 -40 162 -71 45 -28 88 -50 96 -50 8 0 20 -7 27 -15 23 -28 84 -59 111 -57
22 2 32 -6 59 -48 40 -62 65 -78 88 -57 9 8 31 18 48 21 l32 7 -2 80 c-2 85
-9 99 -55 99 -13 0 -44 7 -70 15 -322 104 -319 103 -313 165 4 37 9 44 38 56
18 8 57 14 86 14 77 0 206 -25 227 -44 10 -9 28 -16 42 -16 32 0 43 -9 60 -45
18 -38 52 -43 112 -15 25 12 57 23 70 24 13 2 37 13 54 26 18 13 48 24 71 25
22 1 54 12 71 24 25 18 31 29 31 59 0 21 -7 48 -16 60 -14 20 -18 22 -33 9
-65 -56 -141 -74 -193 -46 -24 13 -14 29 18 29 23 0 24 3 24 59 0 55 3 63 33
91 17 16 40 33 49 36 10 3 21 17 24 32 4 15 15 37 26 49 11 11 22 41 25 65 4
27 19 59 40 87 40 52 44 91 11 90 -76 -2 -145 15 -191 47 -46 34 -103 46 -95
22 3 -7 24 -26 49 -43 33 -23 54 -50 86 -112 l41 -80 -28 -49 c-40 -71 -66
-82 -138 -62 -67 18 -119 36 -149 52 -36 19 -123 97 -123 111 0 23 18 27 44
10 30 -20 42 -14 49 21 4 22 -1 30 -29 46 -19 11 -39 29 -45 40 -10 18 -18 20
-65 14 -36 -4 -61 -2 -74 6 -15 10 -22 10 -31 1 -14 -14 4 -43 28 -43 9 0 13
-8 11 -22 -3 -21 -9 -23 -53 -22 -76 1 -121 12 -154 40 -32 27 -94 141 -85
156 3 5 0 22 -6 39 -9 20 -9 33 -2 42 6 6 12 25 14 41 5 47 57 54 243 31 37
-5 55 -3 70 8 24 19 15 30 -40 47 -49 15 -100 45 -140 80 -16 15 -47 37 -67
49 l-38 23 -10 -27z m-255 -855 c3 -5 12 -7 20 -4 7 3 18 -4 25 -15 6 -12 16
-21 23 -21 7 0 29 -8 49 -19 33 -16 38 -17 52 -2 14 13 18 13 30 1 16 -18 36
-75 36 -105 0 -13 -9 -33 -19 -46 -18 -23 -20 -23 -38 -7 -32 29 -88 47 -149
49 -45 2 -67 8 -91 27 -41 30 -41 45 -3 105 28 45 52 58 65 37z"/>
<path d="M4497 9263 c-4 -3 -7 -46 -7 -95 0 -80 -2 -89 -17 -86 -14 3 -18 14
-18 55 0 65 -18 70 -25 8 -12 -99 -67 -96 -88 4 -7 33 -17 63 -22 66 -13 8 -1
-85 13 -102 6 -9 5 -18 -4 -29 -9 -11 -28 -14 -73 -12 l-61 3 -3 -65 c-4 -77
8 -90 80 -90 32 0 48 -4 48 -13 0 -18 -69 -122 -80 -121 -6 1 -14 2 -20 3 -5
0 -10 18 -10 39 0 21 -7 47 -15 58 -8 10 -15 26 -15 35 0 9 -9 24 -20 34 -16
14 -29 16 -71 11 -57 -8 -79 3 -79 38 0 13 -19 39 -45 64 -38 36 -48 41 -65
32 -11 -6 -20 -19 -20 -30 0 -10 -5 -22 -11 -26 -6 -3 -8 -15 -6 -26 3 -11 3
-26 0 -34 -10 -25 -23 -15 -29 24 -11 67 -101 120 -150 87 -19 -12 -24 -24
-24 -60 0 -39 3 -45 20 -45 14 0 20 -6 18 -17 -4 -22 64 -40 96 -25 17 8 31 4
64 -15 23 -14 42 -29 42 -34 0 -5 6 -9 14 -9 17 0 66 -38 66 -52 0 -6 -8 -7
-17 -3 -10 4 -23 8 -29 9 -7 1 -18 6 -25 12 -45 33 -94 35 -88 3 2 -8 -1 -24
-5 -37 -6 -18 -2 -28 18 -47 14 -13 26 -29 26 -35 0 -6 10 -14 23 -19 20 -8
22 -15 19 -50 -3 -33 -13 -48 -53 -86 l-49 -46 -27 20 c-37 30 -44 26 -27 -16
14 -33 14 -40 1 -69 -9 -18 -19 -48 -22 -68 -11 -56 -34 -44 -45 24 -4 29 -10
36 -33 38 -32 4 -33 9 -10 34 15 17 15 20 0 35 -15 15 -17 14 -26 -11 -6 -15
-23 -38 -37 -51 -22 -21 -25 -27 -14 -40 7 -9 21 -13 31 -10 25 8 24 -7 -1
-23 -11 -7 -20 -19 -20 -27 0 -24 29 -29 50 -10 20 18 21 17 55 -21 19 -21 34
-43 34 -49 0 -5 -8 -29 -19 -53 -18 -40 -22 -43 -49 -37 -17 3 -32 2 -36 -4
-4 -7 5 -11 24 -11 22 0 36 -8 54 -32 44 -60 44 -84 -2 -66 -14 5 -45 10 -68
9 -30 0 -43 4 -43 13 0 8 -7 19 -15 26 -18 15 -21 -1 -4 -32 9 -17 5 -26 -27
-59 l-37 -38 13 -56 c7 -30 17 -55 22 -55 4 0 8 22 8 49 0 50 32 120 55 121
28 1 54 -32 57 -72 2 -23 9 -43 16 -46 10 -3 13 5 10 34 l-3 39 52 1 c44 1 53
-3 61 -21 8 -17 7 -28 -5 -44 -13 -20 -12 -26 8 -68 l22 -46 14 27 c18 34 45
33 66 -4 20 -32 19 -36 -26 -92 -35 -46 -16 -52 33 -12 17 15 32 25 34 23 1
-2 9 -26 16 -53 12 -44 12 -50 -3 -61 -24 -17 -21 -20 15 -20 24 0 36 -6 47
-27 15 -26 14 -31 -24 -103 l-39 -77 -38 6 c-20 3 -40 2 -43 -4 -3 -5 0 -7 8
-4 31 11 27 -19 -11 -89 -36 -67 -41 -72 -70 -71 -27 2 -32 -1 -32 -22 0 -28
16 -31 48 -8 27 18 42 11 42 -20 0 -22 -5 -24 -82 -30 -46 -3 -204 -7 -353 -8
-148 0 -288 -5 -310 -11 -22 -5 -46 -10 -53 -11 -24 -4 -31 -28 -14 -53 11
-18 21 -23 36 -18 12 4 111 8 221 9 110 1 223 7 250 14 28 6 99 13 158 17
l109 6 -26 -48 c-14 -26 -35 -73 -46 -103 -12 -30 -35 -78 -51 -107 -16 -28
-38 -77 -49 -109 -25 -71 -46 -104 -66 -104 -13 0 -12 6 6 36 28 44 17 59 -16
21 -33 -38 -32 -77 1 -77 14 0 25 -3 25 -6 0 -3 -18 -40 -40 -83 -22 -43 -40
-83 -40 -89 0 -15 -13 -15 -27 -1 -7 7 -18 1 -37 -21 -32 -38 -33 -48 -3 -52
28 -4 25 -23 -12 -98 -25 -50 -30 -55 -57 -52 -16 2 -39 10 -51 18 -32 20 -42
18 -56 -13 -7 -16 -23 -45 -36 -65 -22 -36 -24 -37 -44 -23 -30 21 -34 19 -53
-17 -9 -18 -24 -42 -34 -53 -9 -11 -25 -33 -35 -50 -12 -21 -4 -15 26 19 l44
48 40 -17 c22 -10 60 -21 85 -24 30 -4 46 -11 48 -22 2 -9 -15 -56 -37 -104
-34 -72 -44 -87 -60 -82 -14 3 -19 -1 -18 -17 0 -33 -10 -74 -31 -119 -11 -23
-57 -124 -103 -224 l-84 -183 -37 -6 c-20 -4 -45 -15 -54 -25 -23 -26 -34 -24
-34 6 0 15 14 38 39 62 43 43 65 91 36 80 -9 -4 -18 -7 -21 -7 -2 0 -15 -22
-28 -49 -25 -48 -92 -115 -107 -105 -4 2 -10 0 -13 -5 -12 -20 13 -20 37 -1
31 25 37 25 37 2 0 -27 69 -24 92 3 9 11 20 17 24 12 4 -4 3 -12 -3 -18 -6 -6
-9 -17 -6 -24 2 -7 -12 -48 -32 -92 -20 -43 -46 -103 -57 -133 -27 -71 -35
-81 -63 -74 -18 4 -33 -4 -64 -35 -46 -46 -97 -119 -88 -127 3 -3 18 12 34 32
41 55 80 94 93 94 6 0 13 -7 17 -16 9 -24 -71 -178 -124 -241 -43 -50 -45 -55
-30 -71 15 -17 14 -19 -11 -41 -22 -18 -27 -29 -24 -52 3 -21 0 -29 -11 -29
-9 0 -17 10 -19 23 -5 35 -22 22 -31 -24 -7 -33 -5 -49 6 -69 13 -22 13 -29 1
-59 -11 -26 -17 -31 -27 -22 -11 8 -16 -2 -25 -50 -10 -57 -25 -89 -42 -89 -4
0 -8 28 -9 63 -2 62 -20 123 -81 272 -18 44 -40 98 -48 120 -8 22 -23 58 -33
81 -11 22 -19 48 -19 57 0 9 -4 19 -10 22 -5 3 -10 2 -10 -3 0 -27 106 -314
131 -355 32 -52 59 -141 59 -195 0 -43 -16 -33 -24 15 -14 76 -26 103 -49 103
-12 0 -35 1 -51 2 -28 3 -30 0 -56 -82 -15 -47 -44 -117 -65 -157 -21 -39 -35
-78 -32 -87 11 -28 56 -48 119 -53 l63 -4 -35 31 c-19 17 -54 40 -77 50 -24
10 -43 22 -43 26 0 12 44 74 52 74 4 0 17 -18 28 -39 17 -35 90 -114 97 -107
2 2 -6 32 -17 67 -12 42 -30 75 -50 94 -25 24 -30 36 -26 58 6 31 42 87 56 87
4 0 17 -15 28 -34 17 -29 19 -40 10 -69 -8 -27 -6 -51 11 -117 21 -83 21 -84
2 -104 -11 -12 -21 -34 -23 -50 -2 -23 -13 -35 -48 -53 -65 -34 -101 -73 -98
-102 5 -42 39 -34 67 17 5 9 13 14 16 10 8 -7 -43 -136 -124 -315 -28 -62 -51
-115 -51 -118 0 -2 -15 -37 -34 -77 -19 -40 -45 -98 -59 -128 -14 -30 -31 -64
-40 -74 -13 -18 -14 -11 -13 72 1 50 5 94 8 98 4 3 16 1 27 -6 20 -10 21 -8
21 35 l0 45 -21 -21 c-16 -16 -23 -18 -35 -8 -13 10 -12 14 2 30 9 10 25 21
35 24 39 13 42 41 9 99 -17 30 -38 57 -47 60 -13 5 -15 18 -10 76 3 38 3 84 1
102 l-6 33 -64 -3 c-90 -5 -94 0 -94 112 0 97 8 123 34 113 12 -5 16 -21 16
-66 0 -89 1 -91 80 -91 50 0 69 4 73 15 5 11 10 226 7 308 0 15 -13 17 -112
18 -165 1 -162 0 -170 89 -4 41 -4 112 -1 158 5 77 7 83 31 89 13 3 59 2 101
-3 l76 -9 0 -40 c0 -34 -3 -40 -20 -38 -11 1 -40 3 -65 5 l-45 2 -3 -92 c-3
-90 -2 -92 20 -93 112 -4 273 3 284 12 11 9 14 54 14 210 0 110 -4 200 -9 204
-5 3 -85 8 -178 11 -92 3 -174 7 -180 9 -10 3 -13 43 -13 152 0 210 -9 194
119 191 l106 -3 0 -30 0 -30 -81 0 -82 0 -1 -96 -2 -96 53 -6 c79 -7 246 4
258 18 5 6 13 101 16 211 6 182 6 200 -11 214 -14 11 -49 14 -184 11 -129 -2
-170 1 -185 11 -17 13 -18 26 -11 185 4 94 11 176 15 183 5 9 46 10 166 3
l159 -8 0 -140 0 -140 -85 -3 c-47 -1 -103 1 -125 6 l-40 8 -3 67 c-4 99 4
108 91 105 l72 -3 6 -40 c8 -48 -4 -67 -40 -63 -21 2 -27 9 -29 36 -4 43 -24
37 -36 -10 -15 -59 -8 -63 78 -60 l77 4 -3 86 -3 87 -114 3 c-63 1 -118 -1
-123 -6 -5 -5 -11 -64 -14 -130 l-5 -122 58 0 c32 0 109 -3 171 -7 l112 -6 0
187 c0 141 -3 188 -12 190 -7 3 -104 7 -216 10 l-202 7 0 -240 c0 -191 3 -240
13 -244 8 -3 90 -6 183 -7 119 0 171 -4 176 -13 9 -15 5 -318 -5 -334 -9 -15
-185 -17 -203 -2 -18 15 -18 50 0 74 10 14 29 19 77 21 l64 3 -2 77 c-1 42 -4
83 -7 90 -4 11 -36 14 -150 14 l-144 0 -4 -42 c-3 -24 -5 -131 -4 -238 l1
-195 193 -3 193 -2 -3 -158 -3 -157 -107 -3 c-98 -2 -108 -1 -108 15 0 33 15
42 75 45 l60 3 3 65 c2 36 1 79 -3 96 l-6 32 -147 -2 -147 -1 0 -203 c0 -112
3 -208 6 -214 3 -5 64 -13 135 -16 l129 -7 3 -122 c3 -127 2 -129 -38 -123
-24 3 -30 21 -30 91 l0 66 -46 7 c-92 12 -85 26 -82 -151 l3 -158 80 -5 80 -5
0 -80 c0 -57 -4 -80 -12 -81 -7 -1 -21 -2 -31 -3 -15 -1 -18 -8 -17 -36 3 -42
15 -60 15 -22 0 15 5 27 10 27 6 0 10 -7 10 -15 0 -8 4 -15 10 -15 5 0 7 7 4
15 -7 18 42 32 65 18 9 -5 25 -26 36 -47 l20 -37 -30 -25 c-25 -21 -38 -24
-78 -21 -32 3 -56 12 -72 27 -14 13 -28 20 -32 16 -10 -10 28 -37 71 -52 20
-7 32 -18 34 -34 3 -20 1 -22 -22 -16 -22 5 -26 3 -26 -16 0 -13 -3 -34 -7
-48 -6 -24 -6 -24 14 -8 11 10 22 18 25 18 4 0 8 -28 11 -62 2 -35 12 -84 23
-110 l18 -46 -27 -55 c-15 -31 -27 -59 -27 -63 0 -4 -15 -39 -34 -78 -19 -39
-58 -123 -87 -186 -28 -63 -82 -176 -119 -250 -37 -74 -70 -146 -74 -160 -14
-48 84 139 164 316 157 346 185 404 193 404 4 0 7 -4 7 -10 0 -5 5 -10 10 -10
6 0 6 7 -2 19 -13 22 -20 4 130 336 123 273 146 326 217 495 31 74 85 194 119
265 106 221 132 277 174 375 68 160 192 413 199 406 4 -3 20 -33 37 -66 29
-57 128 -170 148 -170 5 0 -15 28 -46 62 -56 62 -93 136 -103 210 -6 38 2 60
64 198 14 30 33 75 43 100 25 62 87 206 109 255 11 22 39 83 62 135 24 52 78
163 120 246 42 84 83 170 92 193 26 64 43 56 148 -67 20 -23 41 -42 48 -42 7
0 11 22 11 60 0 64 -11 93 -76 201 l-34 57 45 103 c25 57 65 142 89 189 24 47
47 96 51 110 7 24 45 108 106 235 15 33 31 73 35 89 4 16 18 45 31 64 12 19
23 39 23 45 0 5 31 73 69 151 38 78 79 166 91 197 11 31 29 64 40 74 11 10 20
28 20 40 0 12 25 75 56 140 30 65 66 146 79 179 22 59 93 209 259 546 44 91
86 176 92 190 5 14 20 43 32 65 11 22 37 78 57 125 21 47 61 135 91 195 30 61
54 115 54 121 0 6 9 19 20 29 11 10 20 24 20 31 0 7 4 14 10 16 5 2 12 18 16
36 6 28 4 32 -14 32 -25 0 -38 -16 -47 -60 -9 -44 -32 -90 -45 -90 -6 0 -10
38 -10 90 0 88 -1 91 -26 100 -29 11 -137 14 -147 3z m104 -194 c5 -8 9 -25 9
-38 0 -17 -4 -22 -16 -17 -9 3 -21 6 -28 6 -15 0 -41 44 -33 57 9 14 58 8 68
-8z m-654 -11 c29 -32 45 -67 39 -84 -8 -21 -24 -17 -32 8 -9 30 -36 50 -46
35 -4 -6 4 -21 18 -34 25 -23 32 -43 15 -43 -15 0 -59 43 -62 60 -3 15 31 80
42 80 3 0 15 -10 26 -22z m713 -42 c0 -5 -7 -3 -15 4 -8 7 -12 17 -9 22 7 10
24 -9 24 -26z m-300 -24 c0 -13 -12 -22 -22 -16 -10 6 -1 24 13 24 5 0 9 -4 9
-8z m-340 -84 c0 -7 -5 -20 -10 -28 -12 -19 -35 2 -27 24 7 19 37 21 37 4z
m443 -1 c15 -11 17 -29 15 -152 l-3 -140 -25 0 c-21 0 -25 4 -22 24 1 14 -10
49 -24 78 -23 45 -30 52 -50 47 -19 -5 -24 -1 -30 20 -8 34 1 79 22 111 13 20
25 25 58 25 23 0 50 -6 59 -13z m-499 -96 c18 -15 21 -31 6 -31 -15 0 -90 49
-90 59 0 11 62 -10 84 -28z m107 6 c4 -14 4 -28 1 -31 -10 -11 -32 17 -32 41
0 32 22 25 31 -10z m-194 -10 c10 -12 37 -28 61 -35 49 -15 58 -38 11 -28 -17
3 -41 6 -53 6 -19 0 -56 46 -56 71 0 16 18 10 37 -14z m258 -45 c-12 -13 -24
22 -12 37 10 12 13 11 15 -8 2 -13 1 -26 -3 -29z m175 -31 c-5 -109 -1 -131
31 -160 21 -19 27 -31 19 -36 -6 -4 -20 1 -32 12 -11 10 -29 18 -41 18 -13 0
-23 10 -30 28 -8 24 -5 34 12 58 25 34 26 42 6 59 -19 16 -19 35 1 54 22 23
36 10 34 -33z m-120 13 c0 -8 -4 -12 -10 -9 -5 3 -10 13 -10 21 0 8 5 12 10 9
6 -3 10 -13 10 -21z m-168 1 c0 -5 -5 -11 -11 -13 -6 -2 -11 4 -11 13 0 9 5
15 11 13 6 -2 11 -8 11 -13z m128 -35 c0 -11 -4 -20 -10 -20 -5 0 -10 9 -10
20 0 11 5 20 10 20 6 0 10 -9 10 -20z m-170 -29 c9 -24 8 -38 -6 -78 -17 -48
-17 -50 2 -75 13 -18 28 -25 49 -24 29 1 30 -1 30 -39 l0 -40 -58 -1 c-64 -2
-72 -6 -82 -46 -5 -19 -1 -32 14 -47 15 -15 21 -34 21 -66 0 -49 9 -54 55 -33
39 18 56 -4 27 -35 -12 -13 -22 -30 -22 -38 0 -26 -12 -29 -38 -9 -43 34 -52
1 -12 -45 31 -36 41 -64 35 -99 -5 -25 -3 -35 9 -39 26 -10 18 -27 -13 -27
-38 0 -49 -16 -17 -24 27 -7 86 -69 86 -91 0 -23 -17 -18 -23 7 l-6 21 -19
-23 c-18 -22 -19 -22 -45 -5 -15 9 -27 23 -27 31 0 7 -16 44 -36 81 l-35 68
26 47 c16 29 22 49 15 53 -5 3 -10 2 -10 -4 0 -16 -51 -71 -66 -71 -8 0 -32
12 -54 26 -35 23 -41 33 -47 78 -4 28 -7 73 -6 100 2 42 8 55 40 88 21 21 43
36 50 34 7 -3 13 -1 13 5 0 16 -29 22 -45 9 -13 -10 -15 -9 -15 11 1 61 20
101 78 165 34 36 66 82 73 102 21 68 40 78 59 33z m93 -5 c15 -3 27 -11 27
-16 0 -13 -16 -13 -41 0 -25 14 -25 -2 1 -25 21 -19 18 -35 -5 -35 -9 0 -12 6
-8 15 3 10 1 15 -7 13 -8 -2 -16 11 -20 29 -8 35 -3 48 14 34 6 -4 23 -11 39
-15z m317 14 c0 -5 -4 -10 -10 -10 -5 0 -10 5 -10 10 0 6 5 10 10 10 6 0 10
-4 10 -10z m7 -61 c2 -19 -1 -29 -8 -27 -6 2 -10 7 -10 11 1 4 1 19 1 34 0 35
12 22 17 -18z m-167 5 c0 -8 -7 -14 -15 -14 -15 0 -21 21 -9 33 10 9 24 -2 24
-19z m-112 -33 c3 -8 -1 -12 -9 -9 -7 2 -15 10 -17 17 -3 8 1 12 9 9 7 -2 15
-10 17 -17z m312 -5 c0 -16 -21 -56 -30 -56 -14 0 -13 33 2 48 12 12 28 16 28
8z m-295 -77 c8 -12 -23 -49 -42 -49 -17 0 -17 10 3 38 17 24 29 28 39 11z
m272 -43 c-4 -9 -11 -16 -17 -16 -15 0 -24 26 -16 47 6 15 8 15 23 1 9 -9 13
-24 10 -32z m-257 -16 c0 -5 -4 -10 -10 -10 -5 0 -10 5 -10 10 0 6 5 10 10 10
6 0 10 -4 10 -10z m120 -14 c0 -17 -24 -38 -33 -29 -15 15 -6 43 13 43 11 0
20 -6 20 -14z m95 -11 c0 -10 -6 -20 -12 -22 -8 -3 -13 5 -13 22 0 17 5 25 13
23 6 -3 12 -13 12 -23z m-43 -24 c1 -13 -3 -26 -9 -28 -9 -3 -13 7 -13 33 0
41 16 37 22 -5z m-212 -15 c-13 -13 -35 7 -25 24 5 8 11 8 21 -1 10 -8 12 -15
4 -23z m-105 -7 c9 -14 7 -15 -37 -22 -42 -6 -52 8 -15 23 30 12 45 12 52 -1z
m35 -43 c0 -11 -19 -15 -25 -6 -3 5 1 10 9 10 9 0 16 -2 16 -4z m300 -21 c0
-8 -7 -15 -15 -15 -8 0 -15 7 -15 15 0 8 7 15 15 15 8 0 15 -7 15 -15z m-190
-10 c6 4 19 0 29 -9 10 -9 25 -14 34 -10 23 8 32 -19 16 -48 -22 -40 -22 -68
0 -68 28 0 36 -19 17 -38 -16 -16 -18 -15 -35 6 -16 21 -18 22 -31 7 -7 -9
-19 -14 -26 -11 -7 3 -18 -2 -24 -10 -7 -8 -22 -14 -33 -14 -11 0 -29 -7 -39
-17 -17 -15 -18 -15 -18 1 0 9 11 38 24 64 13 26 26 69 29 95 8 60 15 71 32
57 8 -7 19 -9 25 -5z m70 -215 c0 -6 -9 -10 -19 -10 -11 0 -23 -4 -26 -10 -3
-5 3 -10 14 -10 25 0 28 -15 4 -24 -10 -4 -25 2 -40 16 l-25 23 4 -30 c3 -26
6 -30 31 -27 20 3 27 -1 27 -13 0 -17 -84 -192 -99 -208 -5 -5 -11 9 -14 30
-6 34 -3 41 35 80 23 23 39 45 36 48 -10 11 -56 -17 -67 -41 -12 -28 -29 -31
-31 -6 -10 103 13 185 49 175 10 -2 21 0 25 5 7 12 96 14 96 2z m-190 -14 c0
-16 -18 -31 -27 -22 -8 8 5 36 17 36 5 0 10 -6 10 -14z m1 -341 c20 -43 20
-75 0 -75 -5 0 -16 19 -24 43 -8 23 -18 50 -22 60 -5 12 -2 17 9 17 9 0 25
-19 37 -45z m-106 -332 c-7 -32 -31 -60 -42 -50 -3 4 1 23 10 42 20 42 42 47
32 8z m-41 -88 c-7 -18 -34 -28 -34 -12 0 17 21 38 31 31 5 -2 6 -11 3 -19z
m-404 -873 c0 -13 -23 -32 -39 -32 -11 0 -10 4 4 20 19 21 35 26 35 12z m-318
-314 c-15 -15 -26 -4 -18 18 5 13 9 15 18 6 9 -9 9 -15 0 -24z m-252 -717 c0
-6 -4 -13 -10 -16 -5 -3 -10 1 -10 9 0 9 5 16 10 16 6 0 10 -4 10 -9z m-545
-1123 c9 -49 -7 -50 -30 -2 -14 30 -15 38 -4 45 18 11 26 1 34 -43z m53 -147
c3 -16 -1 -22 -10 -19 -7 3 -15 15 -16 27 -3 16 1 22 10 19 7 -3 15 -15 16
-27z"/>
<path d="M2323 8808 c-5 -7 -13 -21 -17 -32 -6 -18 -7 -18 -26 -1 -16 15 -39
19 -116 20 l-96 2 -48 -40 c-64 -52 -78 -85 -82 -186 -2 -45 -6 -85 -10 -88
-5 -2 -8 -26 -8 -52 0 -59 39 -115 123 -179 62 -46 114 -115 129 -169 6 -23
20 -40 40 -51 76 -41 82 -68 35 -164 l-24 -47 31 -29 c31 -29 170 -112 187
-112 11 0 12 -17 1 -24 -5 -3 -48 18 -97 46 -109 63 -261 207 -271 256 -6 31
-24 45 -24 19 0 -18 -29 -73 -129 -245 -45 -79 -90 -164 -99 -190 -8 -26 -33
-80 -55 -120 -22 -40 -37 -76 -34 -79 4 -3 -10 -25 -30 -49 -35 -43 -35 -45
-18 -64 10 -11 26 -20 36 -20 10 0 21 -5 24 -11 4 -6 14 -7 24 -3 9 3 50 10
91 15 145 17 139 14 349 160 124 86 216 138 254 145 27 4 41 12 45 26 3 13 10
17 21 12 9 -4 45 -17 81 -30 52 -19 75 -34 117 -79 28 -32 80 -77 114 -101 59
-41 67 -44 130 -44 38 0 71 5 75 11 3 6 -9 27 -28 47 -19 21 -61 78 -93 127
-108 167 -124 190 -171 245 -45 53 -77 79 -100 80 -6 0 -17 -26 -24 -57 -27
-125 -39 -153 -63 -153 -29 1 -107 36 -107 50 0 14 12 13 64 -10 l46 -19 14
52 c8 29 20 71 26 94 14 57 58 93 114 93 34 0 63 11 95 37 2 1 7 22 11 45 12
69 45 146 73 172 25 23 25 25 11 65 -8 24 -19 88 -25 144 -15 140 -51 253 -98
301 -99 103 -323 176 -401 131 -37 -21 -42 -19 -38 22 3 37 -11 53 -29 31z"/>
<path d="M4506 8097 c-14 -11 -16 -19 -8 -55 13 -55 6 -149 -14 -210 -23 -70
-101 -190 -134 -207 -16 -8 -40 -15 -53 -15 -13 0 -32 -6 -42 -14 -19 -14 -19
-15 -1 -35 22 -25 71 -27 129 -7 34 12 43 11 100 -11 117 -45 162 -67 188 -90
14 -13 30 -23 36 -23 6 0 24 -7 40 -15 15 -8 55 -26 88 -41 33 -14 74 -37 92
-50 17 -13 41 -24 53 -24 11 0 31 -11 44 -25 13 -14 30 -25 39 -25 8 0 17 -6
20 -14 3 -7 19 -16 35 -19 38 -8 83 -81 97 -157 8 -43 14 -56 30 -58 34 -4 47
11 35 42 -25 66 33 238 121 357 27 37 49 71 49 78 0 6 14 23 31 38 37 34 75
96 84 141 8 40 -4 41 -43 3 -42 -42 -75 -48 -122 -22 -21 11 -50 21 -66 21
-35 0 -112 37 -127 61 -15 24 -23 24 -54 -1 -14 -11 -34 -20 -44 -20 -11 0
-19 -4 -19 -10 0 -5 9 -10 20 -10 11 0 20 5 20 10 0 6 7 10 15 10 10 0 15 -10
15 -30 0 -24 -7 -35 -30 -48 -59 -34 -21 -35 42 -1 25 13 55 -12 105 -90 80
-124 46 -179 -97 -155 -25 4 -41 14 -52 34 -14 24 -22 28 -79 32 -58 4 -65 7
-96 43 -39 45 -43 70 -11 62 41 -11 98 34 98 79 0 13 -7 16 -35 11 -19 -3 -37
-2 -40 3 -3 5 -18 11 -34 15 -16 3 -39 17 -51 31 -13 13 -28 24 -34 24 -6 0
-31 -17 -55 -38 -49 -42 -52 -72 -7 -72 32 0 42 -17 15 -25 -89 -28 -201 29
-253 129 -28 53 -29 59 -17 108 18 81 22 83 102 43 68 -35 70 -35 107 -19 20
8 57 18 82 20 46 5 102 31 104 49 1 15 -51 18 -86 6 -37 -13 -61 -2 -144 67
-32 27 -75 57 -94 66 -19 10 -44 29 -55 42 -18 21 -23 22 -39 11z"/>
<path d="M3430 8066 c0 -20 27 -39 45 -32 13 4 14 10 5 26 -12 23 -50 27 -50
6z"/>
<path d="M2090 8020 c-13 -23 28 -106 74 -150 41 -39 43 -38 72 37 20 52 16
65 -33 97 -49 33 -100 40 -113 16z"/>
<path d="M5800 7979 c0 -5 5 -7 10 -4 6 3 10 8 10 11 0 2 -4 4 -10 4 -5 0 -10
-5 -10 -11z"/>
<path d="M5743 7943 c-13 -2 -23 -11 -23 -19 0 -8 -7 -14 -15 -14 -8 0 -15 -3
-15 -7 0 -5 38 -8 85 -8 59 0 85 -4 85 -12 0 -6 10 -13 23 -15 26 -4 30 -31 5
-36 -10 -2 -18 1 -18 7 0 6 -12 11 -27 10 -26 0 -26 -1 -8 -10 32 -16 47 -46
35 -69 -6 -11 -17 -20 -24 -20 -9 0 -12 -8 -9 -24 3 -13 -5 -43 -17 -66 -12
-24 -28 -59 -35 -79 -7 -20 -22 -56 -33 -81 -93 -206 -101 -220 -127 -230 -36
-14 -65 -13 -65 3 0 7 -11 13 -25 12 -14 0 -24 -4 -23 -10 2 -5 11 -9 21 -7
12 1 21 -6 24 -18 6 -24 21 -25 50 -5 16 11 24 12 29 3 7 -11 -11 -30 -51 -53
-15 -9 -16 -14 -6 -30 11 -17 7 -33 -23 -102 -20 -45 -36 -86 -36 -92 0 -6
-21 -53 -46 -104 -26 -50 -67 -141 -91 -202 -24 -60 -57 -132 -72 -160 -16
-27 -32 -66 -36 -85 -4 -19 -20 -62 -36 -95 -61 -131 -131 -300 -198 -485 -16
-42 -33 -84 -39 -95 -32 -57 -174 -353 -204 -426 -19 -46 -44 -106 -55 -134
-45 -109 -183 -417 -240 -535 -33 -69 -95 -199 -138 -290 -42 -91 -121 -255
-175 -365 -54 -110 -119 -247 -145 -305 -26 -58 -76 -163 -110 -235 -59 -122
-86 -182 -180 -395 -21 -47 -82 -177 -137 -290 -55 -113 -131 -275 -170 -360
-128 -284 -180 -393 -319 -677 -77 -155 -139 -289 -139 -297 0 -17 -362 -736
-391 -778 -23 -32 -26 -80 -4 -72 8 4 15 18 15 31 0 30 36 93 53 94 7 0 37 3
67 7 55 7 111 7 431 1 163 -3 166 -3 233 25 80 34 86 31 86 -56 0 -31 5 -60
10 -63 6 -4 72 -7 147 -7 120 -1 138 1 149 17 13 17 21 17 111 7 191 -23 444
-10 549 28 33 12 81 28 108 36 55 15 66 26 66 65 0 50 -39 65 -245 94 -72 10
-122 25 -222 68 -70 30 -155 62 -188 72 -33 9 -88 32 -122 51 -62 35 -81 53
-148 149 -43 61 -46 50 -5 -17 17 -26 30 -52 30 -57 0 -10 92 -82 128 -100 13
-7 56 -23 95 -35 l72 -23 -4 -89 c-2 -49 -6 -93 -8 -98 -3 -5 -60 -6 -127 -3
-104 4 -138 10 -236 42 -63 21 -123 44 -132 53 -22 19 -24 57 -3 49 23 -9 25
6 4 32 -10 13 -19 18 -19 12 0 -19 -24 -11 -43 14 -10 14 -13 26 -7 30 5 3 10
16 10 27 0 12 -3 18 -7 15 -3 -4 -15 0 -25 10 -17 15 -18 15 -18 0 0 -10 -5
-17 -10 -17 -17 0 -22 27 -11 49 7 13 8 22 1 26 -5 3 -10 16 -10 28 -1 20 -1
21 -11 4 -8 -13 -7 -22 2 -33 8 -10 9 -18 2 -25 -20 -20 -93 33 -122 88 -22
44 -5 60 26 24 9 -11 21 -18 25 -14 5 3 16 -3 23 -13 8 -11 15 -14 15 -7 0 6
3 18 6 26 4 11 0 14 -13 11 -10 -3 -35 6 -56 20 -21 14 -42 26 -48 26 -6 0 -8
9 -4 20 4 12 1 27 -5 35 -18 22 -6 42 29 50 39 8 50 25 17 25 -31 0 -35 26 -6
35 26 8 40 -1 40 -26 0 -25 4 -24 35 7 19 19 23 29 15 34 -19 12 -1 32 21 25
14 -5 21 0 28 18 13 34 27 41 85 42 48 1 49 1 66 -39 10 -23 20 -50 24 -60 12
-35 15 -11 4 32 -10 41 -9 45 19 75 23 24 30 39 27 62 -7 63 -24 123 -53 195
-32 79 -110 343 -131 443 -11 56 -11 58 28 145 22 48 45 103 52 122 8 19 64
141 126 270 61 129 123 262 137 295 14 33 55 121 90 196 36 75 93 201 127 280
34 79 109 239 166 355 91 183 107 211 124 207 16 -4 20 0 20 23 l1 29 20 -27
c28 -38 43 -36 35 6 -8 44 2 50 47 26 47 -26 49 -25 31 7 -7 16 -14 38 -14 50
0 12 -4 25 -10 28 -20 13 -9 33 23 39 l32 7 -24 19 c-13 11 -32 20 -42 20 -25
0 -24 15 3 34 15 11 26 12 32 6 18 -18 26 -10 26 24 0 19 5 38 10 41 8 5 8 11
1 19 -7 9 -5 19 6 36 15 22 15 23 0 17 -27 -10 -29 10 -2 41 14 16 25 39 25
51 0 30 17 26 35 -9 20 -39 19 -53 -4 -45 -16 5 -19 -1 -23 -37 -2 -24 -1 -44
4 -46 4 -2 1 -17 -7 -33 -15 -28 -15 -29 12 -35 17 -5 28 -3 31 4 6 19 20 14
27 -8 11 -35 26 -11 23 38 -3 44 -1 47 20 45 30 -4 36 17 18 61 -12 29 -13 41
-4 56 19 30 3 34 -31 9 -30 -22 -31 -22 -51 -4 -11 10 -17 22 -13 27 3 6 0 14
-8 18 -10 7 9 52 79 194 51 102 92 190 92 196 0 6 11 30 24 53 13 23 34 70 46
105 13 34 25 62 27 62 2 0 13 -5 24 -11 25 -13 49 4 49 35 0 12 6 31 14 42 14
18 16 18 32 2 17 -16 17 -19 1 -36 -15 -17 -24 -52 -12 -52 21 0 56 28 61 49
3 14 9 36 14 48 12 28 -1 37 -43 29 -22 -4 -39 0 -55 12 l-23 18 32 68 32 68
136 -3 c75 -2 142 0 149 5 8 5 18 4 25 -3 6 -6 31 -10 57 -10 25 1 37 3 28 6
-10 2 -18 12 -18 21 0 33 -15 45 -40 32 -41 -22 -44 4 -6 57 22 31 32 53 27
62 -15 23 -48 -9 -86 -80 -32 -62 -59 -88 -74 -73 -3 3 5 14 18 25 13 11 21
22 18 25 -12 12 -56 -7 -62 -26 -8 -27 -25 -26 -25 2 l0 21 -25 -23 -25 -23 0
21 c0 26 -12 28 -30 7 -42 -51 -28 54 21 162 l39 83 49 0 c42 0 53 4 70 26 12
15 21 31 21 35 0 19 -48 8 -70 -16 -13 -14 -27 -25 -32 -25 -14 0 -9 30 7 36
14 6 14 8 0 18 -25 18 15 99 63 126 39 23 95 89 107 128 7 23 6 23 -18 7 -17
-11 -27 -13 -32 -5 -9 15 4 50 20 50 8 0 17 5 21 12 5 8 2 9 -10 5 -10 -4 -22
-4 -28 -1 -16 10 22 43 58 50 18 3 40 15 50 25 19 21 13 25 -15 7 -10 -6 -27
-8 -37 -4 -18 7 -18 9 5 27 13 10 29 19 37 19 8 0 11 6 8 15 -4 8 -2 15 2 16
5 0 27 2 49 3 22 2 44 1 49 -2 5 -3 38 -6 73 -6 50 -1 67 2 80 16 21 23 33 23
33 -1 0 -25 17 -36 35 -21 9 8 15 8 20 0 9 -15 95 -2 117 17 12 11 15 21 9 32
-6 10 -5 24 0 34 8 13 6 19 -8 24 -10 3 -22 8 -27 11 -4 2 -1 -7 8 -20 15 -23
15 -26 1 -38 -12 -10 -13 -15 -4 -20 6 -4 8 -13 5 -19 -11 -16 -26 -13 -26 5
0 14 -2 15 -17 3 -15 -13 -16 -12 -11 9 7 26 1 28 -24 5 -25 -22 -36 -8 -13
17 24 26 13 37 -17 16 -22 -16 -58 -22 -58 -10 0 3 16 25 36 49 32 40 38 65
14 65 -12 0 -70 -63 -70 -76 0 -16 -38 -62 -62 -75 -18 -10 -19 -8 -16 18 3
25 0 28 -21 25 -13 -2 -37 -13 -53 -25 -18 -13 -32 -17 -38 -11 -13 13 60 161
83 168 9 2 17 14 17 25 0 12 6 21 15 21 8 0 15 4 15 10 0 6 -9 6 -22 2 -30
-11 -48 -9 -49 3 0 6 20 16 45 24 43 14 46 13 63 -8 l18 -22 27 20 c31 25 42
27 34 6 -3 -8 -1 -15 4 -15 6 0 10 5 10 10 0 6 7 10 15 10 8 0 15 -9 15 -20 0
-17 5 -19 33 -13 17 3 38 9 46 13 7 4 33 5 57 2 26 -3 50 0 58 7 7 6 20 9 29
5 8 -3 18 -1 22 5 10 17 28 13 21 -5 -5 -14 0 -15 31 -12 21 3 50 -1 64 -8 22
-11 29 -11 48 2 12 8 21 26 21 40 0 28 -7 30 -31 8 -28 -25 -32 1 -4 34 37 44
30 61 -8 21 -59 -60 -107 -84 -99 -51 3 10 -8 13 -40 11 -24 -2 -53 0 -66 5
-16 5 -31 2 -47 -8 -22 -15 -25 -15 -25 -1 0 20 -10 19 -36 -6 -24 -22 -47
-18 -37 6 11 29 -56 18 -94 -16 -42 -36 -55 -31 -25 11 20 27 21 30 4 39 -15
8 -12 12 18 24 19 8 63 21 98 27 69 14 86 34 20 24 -68 -9 -164 -43 -183 -64
-20 -22 -40 -26 -50 -10 -8 12 26 43 72 65 17 8 33 20 35 25 2 5 39 17 83 26
129 25 151 34 70 29 -38 -3 -80 -8 -92 -11 -17 -5 -23 -2 -23 9 0 22 25 34 85
42 122 16 128 18 131 46 2 24 -2 27 -36 33 -39 6 -100 -9 -100 -25 0 -5 15 -3
33 5 29 12 37 11 61 -1 19 -10 25 -18 18 -25 -7 -7 -17 -6 -31 2 -17 8 -26 8
-42 -4 -20 -13 -85 -13 -98 0 -12 12 72 74 100 74 15 0 31 5 34 10 3 6 1 10
-4 10 -6 0 -11 5 -11 10 0 6 5 10 11 10 32 0 152 57 159 75 7 18 9 19 15 3 5
-12 18 -18 37 -18 37 0 33 19 -8 40 -23 12 -29 21 -28 45 1 17 -3 33 -9 37
-20 12 13 38 39 32 24 -6 54 9 54 27 0 5 -11 9 -25 9 -35 0 -31 19 5 32 24 8
29 15 25 29 -4 11 -2 19 4 19 17 0 13 51 -4 64 -13 9 -11 16 17 50 31 38 32
43 33 131 0 60 -4 97 -13 107 -7 9 -10 22 -7 30 3 8 -18 40 -51 77 -53 58 -60
62 -89 57 -24 -5 -34 -2 -39 9 -4 11 -21 15 -66 15 -33 0 -60 4 -60 10 0 6 16
10 35 10 19 0 35 5 35 10 0 10 -73 12 -117 3z m107 -1283 c0 -5 -9 -14 -20
-20 -15 -8 -20 -8 -20 3 0 8 3 17 7 20 10 10 33 8 33 -3z m-650 -569 c0 -5 -7
-11 -15 -15 -9 -3 -15 0 -15 9 0 8 7 15 15 15 8 0 15 -4 15 -9z m-240 -761 c0
-5 -4 -10 -10 -10 -5 0 -10 5 -10 10 0 6 5 10 10 10 6 0 10 -4 10 -10z m-110
-65 c0 -8 -4 -15 -10 -15 -5 0 -10 7 -10 15 0 8 5 15 10 15 6 0 10 -7 10 -15z
m-1680 -3980 c0 -8 -4 -15 -9 -15 -13 0 -22 16 -14 24 11 11 23 6 23 -9z
m-150 -37 c0 -7 -19 -21 -42 -30 -23 -10 -38 -21 -35 -24 4 -4 13 -1 21 5 11
9 16 9 22 0 4 -7 3 -14 -2 -16 -30 -10 -74 -45 -74 -59 0 -12 5 -10 21 10 11
14 29 26 40 26 25 0 24 -16 -2 -30 -19 -11 -19 -13 -4 -24 12 -9 14 -17 7 -36
-11 -29 4 -70 24 -70 7 0 28 -9 46 -19 45 -26 78 -35 78 -22 0 6 -8 11 -17 11
-10 0 -39 14 -65 30 -39 24 -48 35 -48 58 0 30 16 52 37 52 7 0 50 17 95 38
94 44 103 46 103 31 0 -18 88 -104 105 -102 16 1 140 -128 140 -147 0 -5 -7
-10 -15 -10 -8 0 -40 -25 -72 -55 -59 -56 -85 -65 -116 -42 -16 11 -16 14 3
52 22 44 21 47 -32 68 -37 16 -37 16 -64 -16 -15 -18 -35 -51 -45 -74 -10 -24
-27 -44 -40 -48 -37 -12 -370 5 -375 19 -3 7 12 43 33 80 28 48 43 65 55 62
21 -5 28 13 28 70 0 31 4 44 14 44 15 0 26 21 26 50 0 32 31 95 40 80 9 -15
30 -5 30 16 0 15 32 32 63 33 9 1 17 -5 17 -11z m1178 -352 c26 -13 59 -26 75
-30 36 -8 34 -28 -4 -61 -28 -23 -39 -26 -98 -23 l-66 3 -3 41 c-4 49 12 94
33 94 9 0 37 -11 63 -24z"/>
<path d="M2865 1039 c-11 -17 1 -21 15 -4 8 9 8 15 2 15 -6 0 -14 -5 -17 -11z"/>
<path d="M3365 910 c3 -5 8 -10 11 -10 2 0 4 5 4 10 0 6 -5 10 -11 10 -5 0 -7
-4 -4 -10z"/>
<path d="M5205 7900 c-3 -5 3 -10 14 -10 11 0 23 5 26 10 3 6 -3 10 -14 10
-11 0 -23 -4 -26 -10z"/>
<path d="M5752 7864 c-12 -8 -26 -13 -31 -9 -5 3 -12 1 -16 -5 -3 -5 -1 -10 4
-10 6 0 11 -4 11 -10 0 -5 -15 -11 -32 -11 -18 -1 -25 -3 -15 -6 24 -6 22 -33
-3 -33 -11 0 -23 -7 -26 -15 -4 -8 -15 -15 -25 -15 -10 0 -19 -4 -19 -10 0
-22 69 -6 73 16 1 5 22 8 47 6 l45 -3 -23 19 -24 18 30 32 c17 18 35 32 42 32
6 0 8 5 5 10 -8 14 -17 13 -43 -6z"/>
<path d="M5170 7850 c0 -5 9 -10 19 -10 11 0 23 5 26 10 4 6 -5 10 -19 10 -14
0 -26 -4 -26 -10z"/>
<path d="M5395 7810 c-29 -6 -29 -6 -6 -14 14 -5 27 -4 34 3 15 15 7 18 -28
11z"/>
<path d="M5795 7800 c3 -5 17 -10 30 -10 13 0 27 5 30 10 4 6 -8 10 -30 10
-22 0 -34 -4 -30 -10z"/>
<path d="M5235 7790 c-3 -5 1 -10 9 -10 9 0 16 5 16 10 0 6 -4 10 -9 10 -6 0
-13 -4 -16 -10z"/>
<path d="M4965 7775 l-30 -13 49 -1 c42 -1 47 1 36 14 -15 18 -17 18 -55 0z"/>
<path d="M5110 7775 l-35 -14 44 2 c25 1 46 7 49 15 5 15 -13 14 -58 -3z"/>
<path d="M5265 7760 c-4 -6 15 -10 49 -10 31 0 56 5 56 10 0 6 -22 10 -49 10
-28 0 -53 -4 -56 -10z"/>
<path d="M5450 7728 c0 -4 14 -8 30 -8 17 0 30 2 30 4 0 2 -13 6 -30 8 -16 3
-30 1 -30 -4z"/>
<path d="M4960 7720 c0 -5 4 -10 9 -10 6 0 13 5 16 10 3 6 -1 10 -9 10 -9 0
-16 -4 -16 -10z"/>
<path d="M5658 7713 c-27 -7 -21 -21 6 -16 37 7 43 -16 7 -30 -17 -6 -31 -15
-31 -19 0 -16 23 -19 45 -4 13 9 33 16 45 16 26 0 25 11 -3 38 -23 22 -35 24
-69 15z"/>
<path d="M5429 7681 c12 -8 51 -4 51 5 0 2 -15 4 -32 4 -23 0 -29 -3 -19 -9z"/>
<path d="M5586 7621 c-3 -5 1 -14 9 -21 12 -10 15 -10 15 3 0 19 -16 31 -24
18z"/>
<path d="M3194 7528 c-30 -28 -44 -48 -42 -62 4 -28 51 -29 56 -2 4 18 3 19
-13 3 -20 -21 -25 -21 -25 -3 0 20 49 76 66 76 9 0 14 -11 14 -34 0 -46 16
-55 23 -13 5 36 -7 77 -23 77 -6 0 -31 -19 -56 -42z"/>
<path d="M5158 7559 c-26 -14 -22 -29 7 -29 18 0 25 5 25 20 0 22 -7 24 -32 9z"/>
<path d="M5660 7548 c0 -4 9 -8 20 -8 11 0 20 4 20 8 0 4 -9 8 -20 8 -11 0
-20 -4 -20 -8z"/>
<path d="M5537 7543 c-12 -11 -8 -23 8 -23 8 0 15 7 15 15 0 16 -12 20 -23 8z"/>
<path d="M5609 7514 c-15 -18 -14 -19 41 -32 49 -12 59 -9 41 12 -21 25 -68
37 -82 20z"/>
<path d="M5495 7490 c3 -5 15 -10 26 -10 10 0 19 5 19 10 0 6 -12 10 -26 10
-14 0 -23 -4 -19 -10z"/>
<path d="M5560 7464 c0 -8 5 -12 10 -9 6 4 8 11 5 16 -9 14 -15 11 -15 -7z"/>
<path d="M3308 7453 c-14 -9 -42 -42 -62 -73 -47 -74 -77 -101 -107 -98 -16 2
-24 -2 -24 -12 0 -9 11 -16 26 -18 19 -2 34 6 57 32 17 20 36 36 42 36 5 0 10
9 10 20 0 39 70 123 88 106 5 -6 -2 -21 -55 -120 -23 -44 -28 -66 -15 -66 8 0
102 187 102 203 0 12 -34 7 -62 -10z"/>
<path d="M4417 7459 c-10 -6 -23 -22 -28 -36 -7 -20 -13 -23 -21 -15 -19 19
-43 14 -84 -19 -57 -45 -110 -131 -118 -191 -5 -34 -14 -56 -29 -68 l-22 -18
23 -25 c12 -13 20 -31 17 -39 -4 -9 9 -32 29 -57 19 -23 33 -48 30 -56 -6 -15
42 -45 72 -45 9 0 42 -13 73 -29 31 -17 69 -33 85 -36 21 -5 27 -10 23 -25 -3
-11 1 -21 9 -24 8 -3 24 -21 35 -41 22 -37 40 -42 78 -21 21 12 33 8 120 -30
120 -54 174 -63 238 -39 69 26 140 98 174 174 44 96 47 133 15 171 -14 18 -26
36 -26 41 0 5 -12 9 -26 9 -14 0 -34 5 -45 11 -27 14 -14 31 14 20 29 -11 53
2 72 39 19 36 19 50 1 50 -7 0 -19 7 -26 14 -10 13 -16 13 -45 -1 -33 -16 -34
-15 -81 16 -26 17 -51 31 -55 31 -4 0 -31 20 -61 45 -52 43 -53 44 -72 25 -10
-10 -22 -41 -27 -70 -4 -28 -19 -75 -33 -105 -15 -29 -26 -67 -26 -84 0 -27 4
-30 41 -36 22 -4 66 -4 96 0 49 6 55 5 60 -14 4 -16 16 -21 62 -26 75 -8 97
-19 116 -55 16 -30 16 -30 -27 -70 -24 -22 -52 -40 -64 -40 -34 0 -195 68
-223 94 -14 14 -38 28 -53 31 -15 4 -32 13 -39 21 -6 8 -17 14 -25 14 -19 0
-67 67 -61 84 4 10 -5 18 -25 25 -26 9 -35 8 -50 -6 -11 -9 -17 -25 -15 -35 6
-21 -11 -37 -35 -33 -9 2 -40 22 -67 46 -45 39 -54 43 -97 40 -46 -3 -47 -2
-41 25 3 17 -1 33 -9 41 -22 22 -17 40 21 82 22 24 33 45 29 54 -8 21 14 59
29 50 6 -4 39 -6 72 -5 58 2 61 1 100 -37 37 -37 44 -40 96 -41 48 0 57 3 66
23 17 36 0 59 -68 92 -46 22 -71 42 -92 73 -29 43 -47 50 -80 31z"/>
<path d="M3787 7412 c-21 -23 -22 -46 -2 -62 13 -10 19 -10 35 5 21 19 27 45
10 45 -5 0 -10 -6 -10 -14 0 -22 -19 -30 -26 -11 -4 9 1 24 11 35 10 11 14 20
8 20 -5 0 -17 -8 -26 -18z"/>
<path d="M5536 7419 c3 -6 -2 -17 -12 -24 -16 -12 -17 -14 -3 -15 9 0 23 9 30
19 12 17 20 19 59 11 45 -8 60 -6 60 9 0 5 -32 9 -70 9 -45 1 -68 -3 -64 -9z"/>
<path d="M3585 7360 c-3 -5 3 -10 14 -10 12 0 21 5 21 10 0 6 -6 10 -14 10 -8
0 -18 -4 -21 -10z"/>
<path d="M5498 7352 c-32 -7 -21 -29 12 -24 31 4 40 17 18 24 -7 2 -21 3 -30
0z"/>
<path d="M5606 7341 c-3 -5 0 -11 8 -14 15 -6 26 1 26 15 0 11 -27 10 -34 -1z"/>
<path d="M3625 7304 c-35 -28 -45 -30 -45 -8 0 13 -3 14 -15 4 -10 -9 -23 -9
-47 -1 -47 15 -119 16 -144 3 -25 -13 -50 -42 -36 -42 5 0 15 7 22 15 20 24
31 18 24 -12 l-6 -28 33 35 c21 22 34 30 37 22 2 -7 -2 -20 -10 -29 -14 -17
-11 -16 35 7 25 12 30 12 37 0 5 -8 12 -11 16 -7 4 4 13 2 19 -3 9 -7 21 -7
40 2 21 9 28 9 35 -1 4 -8 12 -11 18 -7 10 6 27 64 20 71 -1 2 -16 -8 -33 -21z"/>
<path d="M5420 7220 c-9 -5 -9 -9 -1 -14 13 -8 55 3 46 12 -9 9 -31 11 -45 2z"/>
<path d="M5473 7178 c-35 -17 -27 -28 18 -28 33 0 40 3 37 17 -4 22 -25 26
-55 11z"/>
<path d="M5427 7113 c-16 -15 -5 -24 25 -21 41 4 50 28 11 28 -17 0 -33 -3
-36 -7z"/>
<path d="M5911 7047 c-30 -13 -57 -29 -59 -36 -3 -10 0 -11 18 -1 13 7 41 12
63 12 42 -1 97 21 97 38 0 17 -63 10 -119 -13z"/>
<path d="M3946 6984 c-14 -36 -5 -83 20 -113 21 -26 24 -34 14 -46 -9 -11 -10
-19 -1 -28 8 -10 7 -22 -1 -44 -13 -36 -5 -65 16 -57 10 4 20 -5 30 -30 17
-40 26 -43 62 -19 24 15 29 15 82 -1 74 -23 182 -74 182 -87 0 -12 -137 -12
-145 1 -9 14 -86 12 -111 -3 -11 -6 -36 -22 -54 -34 -18 -12 -56 -27 -84 -34
-34 -8 -63 -23 -86 -46 -122 -118 -187 -173 -212 -178 -15 -4 -28 -11 -28 -15
0 -15 37 -30 74 -30 19 0 38 -4 41 -10 4 -6 18 -4 37 6 20 11 34 12 40 6 12
-12 40 -4 51 15 12 20 31 16 72 -17 21 -16 45 -30 54 -30 41 0 131 -32 189
-66 59 -35 63 -40 58 -66 -4 -18 -1 -28 7 -29 6 0 19 -2 27 -4 8 -2 26 -6 39
-9 14 -3 35 -18 47 -33 17 -22 29 -27 57 -25 30 2 45 -6 101 -53 63 -54 72
-68 78 -125 4 -34 29 -32 46 3 15 30 8 107 -9 107 -6 0 -31 20 -58 45 -26 24
-64 51 -83 60 -42 17 -98 80 -98 110 0 12 -20 40 -44 64 l-44 43 -12 -23 c-7
-13 -14 -26 -16 -28 -7 -8 -94 51 -105 71 -10 18 -8 24 7 35 10 7 29 13 42 13
13 0 57 11 97 25 40 14 99 27 130 28 49 3 63 -1 95 -24 44 -32 57 -36 89 -25
14 5 32 3 47 -4 18 -10 39 -10 100 -1 91 15 160 55 222 129 63 75 83 145 27
92 -14 -13 -33 -25 -41 -26 -9 -2 -28 -14 -43 -27 -39 -38 -62 -37 -85 0 -24
37 -67 44 -98 16 -17 -15 -21 -15 -61 4 -23 12 -52 24 -63 27 -12 4 -29 15
-39 26 -10 11 -25 20 -33 20 -7 0 -27 14 -44 32 -16 17 -52 40 -80 50 -28 10
-58 24 -67 32 -9 8 -41 24 -71 36 -30 12 -64 30 -75 40 -11 10 -40 26 -65 35
-25 10 -58 32 -75 49 -16 18 -42 40 -57 50 -22 14 -27 27 -33 77 -6 53 -9 59
-30 59 -13 0 -26 -7 -29 -16z"/>
<path d="M5930 6980 c-8 -5 -11 -12 -7 -16 4 -4 13 -2 19 4 15 15 7 24 -12 12z"/>
<path d="M2834 6869 c-26 -55 -70 -106 -81 -95 -3 2 4 27 14 55 14 39 15 53 5
63 -15 15 -44 -9 -81 -68 -14 -22 -43 -60 -64 -84 -35 -42 -38 -43 -51 -24
-14 19 -15 19 -22 0 -5 -13 -2 -23 9 -31 10 -7 17 -17 17 -24 0 -6 5 -11 11
-11 6 0 9 6 6 14 -4 9 10 29 34 51 40 36 65 38 56 4 -7 -27 0 -24 30 11 13 17
31 30 39 30 16 0 19 -26 4 -35 -19 -12 -11 -37 12 -33 15 2 22 10 22 28 2 29
52 120 66 120 13 0 60 72 54 82 -3 4 -15 8 -28 8 -18 0 -29 -13 -52 -61z m-71
-16 c-15 -42 -56 -103 -69 -103 -27 0 -12 53 29 98 25 27 49 30 40 5z"/>
<path d="M5911 6919 c-17 -7 -21 -13 -14 -20 14 -14 75 -1 70 14 -5 16 -27 18
-56 6z"/>
<path d="M3350 6829 c-29 -49 -104 -129 -120 -129 -7 0 -9 8 -5 21 4 12 8 29
9 37 2 9 8 18 14 20 15 5 16 22 2 22 -6 0 -16 -12 -22 -27 -7 -16 -22 -40 -35
-54 -21 -23 -22 -27 -8 -39 13 -11 21 -10 46 9 34 25 50 21 41 -11 -4 -16 -2
-19 9 -13 8 5 20 17 27 27 20 28 44 23 36 -7 -7 -30 5 -32 39 -5 34 27 38 25
30 -11 l-6 -31 29 16 c34 18 74 51 74 61 0 4 -14 -5 -31 -20 -40 -33 -65 -18
-31 18 27 29 27 32 2 34 -11 1 -20 -2 -20 -7 0 -5 -14 -19 -32 -31 l-31 -23 5
22 c5 18 2 22 -17 22 -37 0 -40 19 -9 50 16 16 32 30 35 30 4 0 18 -12 33 -26
29 -30 35 -21 9 16 -10 13 -17 34 -18 45 0 35 -29 27 -55 -16z"/>
<path d="M2909 6748 c-18 -18 -29 -40 -27 -52 3 -18 11 -21 56 -24 43 -2 57 1
67 15 13 17 15 17 37 -5 l24 -22 25 26 c23 25 23 26 2 15 -34 -17 -46 -14 -33
9 6 11 17 20 24 20 15 0 28 24 19 34 -4 3 -16 6 -28 6 -16 0 -21 -6 -21 -22 1
-14 -6 -24 -17 -26 -16 -3 -18 1 -12 27 l7 31 -47 0 c-40 0 -52 -5 -76 -32z
m81 -8 c-12 -22 -49 -50 -67 -50 -23 0 -14 27 17 54 35 29 66 26 50 -4z"/>
<path d="M3130 6740 c0 -14 -3 -36 -7 -49 -4 -17 -2 -22 7 -19 22 7 32 60 15
78 -13 13 -15 11 -15 -10z"/>
<path d="M2490 6545 c-7 -9 -8 -15 -2 -15 5 0 12 7 16 15 3 8 4 15 2 15 -2 0
-9 -7 -16 -15z"/>
<path d="M3243 6516 c-14 -6 -21 -17 -18 -26 3 -10 -9 -30 -30 -50 l-35 -34 0
32 c0 30 -1 31 -37 28 -29 -3 -37 -8 -35 -21 2 -9 -4 -26 -14 -36 -26 -29 -1
-23 26 6 28 30 44 32 37 5 -7 -28 8 -34 36 -15 13 8 32 13 41 9 12 -5 16 0 16
19 0 16 11 35 31 51 17 14 27 30 24 36 -7 12 -12 11 -42 -4z"/>
<path d="M2390 6490 c0 -5 14 -7 33 -3 45 8 47 13 4 13 -20 0 -37 -4 -37 -10z"/>
<path d="M3290 6470 c-21 -21 -27 -64 -10 -75 11 -7 61 17 79 39 19 22 4 20
-26 -4 -14 -11 -33 -20 -41 -20 -13 0 -12 4 5 23 29 32 35 45 24 52 -6 3 -19
-3 -31 -15z"/>
<path d="M2189 6463 c-8 -10 -9 -14 -2 -10 21 13 24 -11 2 -26 -11 -8 -17 -17
-12 -20 5 -3 21 9 36 28 22 28 24 34 11 39 -21 8 -20 8 -35 -11z"/>
<path d="M2559 6476 c-2 -2 -18 -6 -36 -9 -43 -7 -59 -17 -42 -27 10 -7 10
-12 -1 -27 -8 -10 -1 -6 16 10 38 34 56 35 48 2 -6 -24 8 -36 20 -17 6 9 137
3 171 -8 19 -6 70 12 94 34 l24 21 -5 -28 -5 -28 21 20 c27 25 46 27 46 4 0
-14 3 -14 22 3 21 19 21 19 16 -3 -4 -13 -3 -25 2 -28 4 -3 10 5 14 18 11 41
8 50 -18 43 -14 -3 -27 -3 -29 1 -9 14 -65 7 -91 -11 -26 -16 -26 -16 -26 9 0
36 -41 34 -82 -5 -36 -35 -53 -38 -45 -10 6 24 -5 26 -23 5 -16 -20 -30 -19
-30 2 0 15 -1 15 -18 0 -27 -24 -40 -21 -34 8 4 23 1 31 -9 21z m221 -31 c0
-16 -34 -38 -43 -28 -10 9 12 43 28 43 8 0 15 -7 15 -15z"/>
<path d="M2110 6455 c-16 -19 -6 -45 17 -45 17 1 17 1 0 11 -13 8 -15 14 -7
30 13 23 7 25 -10 4z"/>
<path d="M2250 6444 c-14 -37 -12 -42 6 -16 9 13 26 27 38 32 19 8 19 9 -7 9
-21 1 -30 -5 -37 -25z"/>
<path d="M2377 6463 c-11 -10 -8 -51 3 -58 6 -4 10 8 10 29 0 37 -2 41 -13 29z"/>
<path d="M3012 6447 c-12 -13 -22 -29 -22 -35 0 -19 37 -14 43 6 2 9 8 25 12
35 10 24 -8 21 -33 -6z"/>
<path d="M5920 6454 c0 -8 5 -12 10 -9 6 4 8 11 5 16 -9 14 -15 11 -15 -7z"/>
<path d="M2425 6437 c-4 -10 -5 -21 -1 -24 10 -10 18 4 13 24 -4 17 -4 17 -12
0z"/>
<path d="M2310 6413 c-14 -7 -18 -13 -10 -13 17 0 47 17 40 23 -3 2 -16 -2
-30 -10z"/>
<path d="M5858 6393 c-13 -16 -4 -27 29 -37 16 -5 23 -2 28 14 8 27 35 27 28
0 -3 -11 0 -20 6 -20 6 0 11 7 11 15 0 18 12 19 27 4 15 -15 55 -7 61 11 4 12
2 13 -9 3 -18 -18 -26 -16 -32 7 -4 17 -13 19 -71 18 -43 -1 -70 -6 -78 -15z"/>
<path d="M2967 6270 c-14 -17 -36 -48 -48 -70 -13 -22 -28 -40 -35 -40 -7 0
-16 -4 -19 -10 -3 -5 0 -7 8 -4 8 3 17 -2 20 -10 10 -25 75 -21 97 7 22 26 40
15 21 -14 -7 -12 -10 -23 -8 -25 3 -3 14 10 25 28 l21 33 -41 7 c-35 6 -46 4
-63 -12 -25 -24 -35 -25 -35 -5 0 8 15 25 34 37 34 23 76 75 76 96 0 22 -28
12 -53 -18z m23 -13 c0 -8 -9 -22 -20 -32 -22 -20 -27 -6 -8 25 15 23 28 26
28 7z m-12 -109 c-6 -18 -28 -21 -28 -4 0 9 7 16 16 16 9 0 14 -5 12 -12z"/>
<path d="M5419 6244 c-19 -33 -47 -65 -70 -79 -39 -25 -57 -45 -40 -45 5 0 13
5 16 10 11 18 26 10 20 -10 -9 -28 3 -44 21 -29 9 7 12 20 8 36 -6 21 4 35 56
88 58 59 69 85 34 85 -7 0 -28 -25 -45 -56z"/>
<path d="M2208 6256 c-40 -50 -34 -68 7 -22 19 22 35 43 35 48 0 17 -16 7 -42
-26z"/>
<path d="M2566 6239 c-14 -17 -26 -37 -26 -45 0 -8 -13 -17 -30 -20 -16 -4
-35 -13 -41 -20 -6 -8 -22 -14 -35 -14 -12 0 -25 -4 -28 -8 -3 -5 37 -9 88
-10 69 -2 93 1 93 10 0 7 4 22 8 33 7 16 3 15 -22 -7 -54 -51 -61 -25 -8 33
19 22 35 48 35 59 0 27 -4 25 -34 -11z"/>
<path d="M2716 6230 c-9 -17 -34 -41 -54 -54 -21 -13 -43 -31 -51 -40 -12 -15
-6 -16 67 -16 72 0 83 2 93 21 8 15 8 24 0 32 -8 8 -19 3 -40 -17 -40 -39 -60
-24 -27 19 29 37 50 85 38 85 -4 0 -16 -14 -26 -30z m-56 -80 c0 -5 -5 -10
-11 -10 -5 0 -7 5 -4 10 3 6 8 10 11 10 2 0 4 -4 4 -10z"/>
<path d="M5830 6200 c0 -5 5 -10 11 -10 5 0 7 5 4 10 -3 6 -8 10 -11 10 -2 0
-4 -4 -4 -10z"/>
<path d="M2146 6171 c-13 -14 -14 -20 -4 -23 10 -4 9 -10 -3 -29 -25 -38 -59
-119 -50 -119 13 0 65 80 68 104 1 11 5 36 7 54 6 37 5 38 -18 13z"/>
<path d="M2207 6169 c-13 -8 -15 -14 -7 -30 13 -24 81 -26 104 -3 22 22 20 31
-2 11 -23 -21 -36 -22 -28 -2 6 17 -9 21 -19 5 -3 -5 -13 -10 -21 -10 -11 0
-13 6 -9 20 7 23 6 23 -18 9z"/>
<path d="M2343 6148 l0 -28 24 22 c13 12 23 22 23 24 0 1 -10 4 -23 6 -20 4
-24 1 -24 -24z"/>
<path d="M5640 6153 c-23 -19 -28 -28 -19 -34 9 -5 2 -24 -29 -70 -23 -34 -42
-66 -42 -71 0 -18 20 4 55 61 31 50 42 59 73 65 22 3 39 1 43 -6 12 -18 50
-20 76 -2 14 8 30 13 37 11 6 -3 20 1 31 9 25 18 35 18 35 -2 0 -15 2 -15 24
-1 22 15 24 15 29 -2 3 -12 15 -18 40 -19 28 -1 36 3 40 20 5 17 11 19 34 13
l28 -7 -24 26 c-25 26 -43 24 -71 -8 -15 -19 -34 -21 -27 -3 8 21 -101 20
-161 -2 l-52 -19 0 24 c0 27 -12 31 -30 9 -13 -15 -35 -11 -25 5 3 5 -3 14
-14 19 -16 9 -26 6 -51 -16z"/>
<path d="M5517 6143 l-28 -28 -5 23 c-8 30 -38 28 -63 -4 -26 -33 -27 -47 -3
-42 10 2 16 11 14 21 -4 23 10 21 26 -3 12 -20 12 -20 42 2 16 12 33 18 37 14
4 -4 1 -11 -7 -16 -8 -5 -12 -12 -8 -15 10 -11 38 26 38 51 0 31 -9 30 -43 -3z"/>
<path d="M1872 6064 c-15 -99 -15 -159 0 -187 6 -12 15 -49 18 -82 l7 -60 2
57 c0 32 6 78 13 102 9 35 9 62 -2 128 -20 125 -25 130 -38 42z"/>
<path d="M1793 5950 c-13 -21 -23 -46 -23 -54 0 -8 18 -37 40 -65 22 -28 40
-57 40 -66 0 -8 5 -15 11 -15 6 0 8 7 5 16 -3 9 -6 19 -6 23 0 4 -12 21 -26
37 -22 25 -25 36 -21 79 2 28 8 58 12 68 14 33 -10 17 -32 -23z"/>
<path d="M2631 5972 c-6 -11 -9 -21 -6 -23 2 -3 -17 -27 -41 -54 -34 -38 -43
-44 -38 -26 l6 24 -30 -22 c-17 -11 -35 -21 -41 -21 -14 0 -14 17 -1 25 6 3
10 12 10 18 -1 13 -40 -30 -40 -43 0 -15 32 -20 47 -8 11 9 16 9 23 -2 7 -11
11 -11 24 -1 9 8 23 10 33 5 27 -11 112 -14 119 -3 3 5 12 5 23 -1 30 -16 88
-6 115 20 19 17 26 19 26 9 0 -8 -5 -20 -12 -27 -8 -8 -8 -12 -1 -12 19 0 35
28 28 50 -7 21 -8 21 -27 4 -15 -14 -21 -15 -27 -5 -6 10 -15 6 -35 -14 -30
-30 -58 -25 -30 6 9 10 12 19 6 19 -6 0 -14 -5 -17 -10 -9 -15 -25 -2 -25 21
0 10 -3 19 -6 19 -14 0 -52 -25 -76 -52 -25 -26 -48 -30 -48 -9 0 5 16 28 35
52 19 24 35 49 35 56 0 21 -19 24 -29 5z m59 -91 c0 -11 -29 -35 -35 -29 -10
9 7 38 21 38 8 0 14 -4 14 -9z"/>
<path d="M1962 5942 c8 -34 6 -46 -16 -90 -26 -52 -34 -92 -17 -92 6 0 8 9 6
20 -4 23 31 71 48 64 20 -8 9 101 -13 121 -18 16 -18 15 -8 -23z"/>
<path d="M2505 5960 c-3 -5 -1 -10 4 -10 6 0 11 5 11 10 0 6 -2 10 -4 10 -3 0
-8 -4 -11 -10z"/>
<path d="M3136 5955 c-3 -8 -1 -15 3 -15 5 0 11 7 15 15 3 8 1 15 -3 15 -5 0
-11 -7 -15 -15z"/>
<path d="M3604 5899 c-24 -15 -34 -31 -44 -73 -12 -49 -11 -58 4 -81 14 -22
22 -25 47 -20 24 6 30 3 38 -17 10 -26 78 -86 128 -111 17 -9 53 -35 78 -57
26 -23 82 -58 124 -80 76 -38 112 -70 186 -165 22 -27 58 -70 81 -95 39 -43
42 -49 46 -117 4 -80 8 -88 36 -79 14 5 22 19 26 49 5 29 20 59 46 91 33 40
38 51 28 63 -9 12 -26 14 -64 10 -51 -5 -51 -5 -100 46 -27 29 -60 64 -74 80
l-24 27 33 34 c19 19 47 40 62 47 35 14 36 25 5 58 -13 15 -27 37 -31 50 -7
22 -5 23 26 16 19 -4 50 -7 69 -7 74 0 348 20 359 26 6 4 11 17 11 30 0 19 -7
24 -52 32 -42 7 -55 14 -68 39 l-17 30 -179 12 c-98 6 -202 16 -231 23 -87 19
-94 62 -7 45 25 -4 43 -1 60 10 29 19 23 38 -9 26 -12 -5 -67 -12 -123 -16
-100 -7 -101 -7 -159 24 -32 17 -65 31 -74 31 -9 0 -52 9 -96 20 -96 24 -101
24 -141 -1z m475 -245 c66 -7 89 -28 116 -107 21 -63 18 -76 -27 -110 -17 -13
-35 -18 -50 -14 -62 16 -326 216 -312 238 5 8 158 4 273 -7z"/>
<path d="M2145 5879 c-21 -40 -16 -44 13 -8 13 16 18 30 13 34 -6 3 -17 -8
-26 -26z"/>
<path d="M5405 5891 c-3 -10 -14 -26 -25 -36 -16 -15 -22 -16 -35 -5 -12 10
-19 10 -27 2 -20 -20 -41 -14 -35 9 4 15 1 19 -10 17 -21 -4 -57 -53 -49 -66
3 -6 39 -8 87 -6 50 3 95 0 115 -8 27 -9 37 -9 46 0 9 9 8 12 -5 12 -21 0 -22
8 -1 31 23 26 0 32 -30 8 -32 -25 -44 -19 -28 16 9 20 19 25 47 25 19 0 35 5
35 10 0 6 -18 10 -39 10 -30 0 -41 -5 -46 -19z"/>
<path d="M2278 5887 c11 -13 10 -17 -7 -26 -27 -15 -31 -14 -31 6 0 13 -3 14
-11 6 -17 -17 -3 -47 19 -38 9 4 24 7 32 7 21 -1 20 50 0 56 -13 4 -13 3 -2
-11z"/>
<path d="M2940 5889 c0 -5 5 -7 10 -4 6 3 10 8 10 11 0 2 -4 4 -10 4 -5 0 -10
-5 -10 -11z"/>
<path d="M3060 5888 c-48 -18 -56 -61 -10 -52 17 4 36 1 44 -5 17 -14 43 -4
67 25 12 16 11 16 -18 -1 -36 -21 -53 -14 -36 14 10 16 9 20 -5 23 -10 3 -29
1 -42 -4z m20 -17 c0 -12 -28 -22 -34 -12 -3 5 -3 11 1 15 9 9 33 7 33 -3z"/>
<path d="M4075 5873 l-17 -28 23 22 c12 12 20 25 17 28 -3 3 -13 -7 -23 -22z"/>
<path d="M2335 5870 c-18 -19 -17 -20 3 -20 15 0 22 6 22 20 0 11 -2 20 -3 20
-2 0 -12 -9 -22 -20z"/>
<path d="M2029 5878 c0 -2 -2 -13 -3 -25 -1 -12 -17 -34 -35 -48 -38 -33 -35
-44 6 -19 15 10 29 19 31 20 9 5 19 65 11 69 -5 4 -9 5 -10 3z"/>
<path d="M4110 5870 c0 -6 7 -10 15 -10 8 0 15 2 15 4 0 2 -7 6 -15 10 -8 3
-15 1 -15 -4z"/>
<path d="M1725 5860 c-28 -44 -11 -75 58 -103 47 -20 47 -11 -2 36 -22 21 -41
47 -43 60 -2 18 -5 19 -13 7z"/>
<path d="M2170 5860 c0 -5 5 -10 10 -10 6 0 10 5 10 10 0 6 -4 10 -10 10 -5 0
-10 -4 -10 -10z"/>
<path d="M5609 5863 c-15 -2 -35 -13 -45 -24 -17 -19 -17 -20 1 -13 15 6 17 4
12 -9 -8 -22 7 -22 28 0 14 13 18 14 25 3 7 -12 12 -11 28 3 26 23 32 21 32
-10 0 -32 15 -20 24 20 6 25 4 27 -21 26 -16 -1 -35 0 -43 3 -8 3 -27 3 -41 1z"/>
<path d="M5754 5831 c-23 -25 -24 -26 -5 -29 11 -2 36 1 55 6 25 7 36 7 39 -1
3 -9 9 -8 21 2 13 11 20 11 28 3 13 -13 115 -16 169 -5 27 5 30 8 14 13 -11 4
-21 12 -21 19 -3 22 -4 23 -20 10 -21 -17 -77 -21 -86 -5 -6 8 -8 8 -8 -1 0
-7 -7 -13 -15 -13 -8 0 -15 7 -15 16 0 13 -3 14 -14 5 -7 -6 -20 -9 -29 -5 -8
3 -18 1 -22 -5 -9 -16 -35 -14 -35 2 0 22 -31 15 -56 -12z"/>
<path d="M1951 5703 c-12 -14 -19 -28 -16 -31 6 -7 34 17 46 40 15 28 -6 22
-30 -9z"/>
<path d="M1805 5691 c23 -23 95 -39 95 -22 0 6 -13 11 -29 11 -16 0 -34 7 -41
15 -7 8 -20 15 -28 15 -14 0 -13 -3 3 -19z"/>
<path d="M2648 5683 c-8 -10 -19 -26 -25 -36 -5 -10 -25 -25 -44 -35 -42 -21
-48 -57 -9 -57 14 0 30 -3 36 -7 16 -10 75 2 68 14 -3 5 0 15 6 23 22 26 -2
16 -27 -11 -18 -19 -27 -24 -35 -16 -8 8 -1 26 25 64 36 52 46 78 29 78 -5 0
-16 -8 -24 -17z m-60 -109 c-24 -24 -44 -7 -22 17 12 13 21 16 28 9 7 -7 5
-15 -6 -26z"/>
<path d="M3050 5660 c0 -5 7 -10 15 -10 8 0 15 5 15 10 0 6 -7 10 -15 10 -8 0
-15 -4 -15 -10z"/>
<path d="M2383 5653 c-7 -3 -13 -10 -13 -17 0 -8 -9 -25 -20 -39 -24 -30 -17
-37 42 -43 41 -4 57 6 58 32 0 22 -30 24 -47 4 -10 -11 -23 -20 -30 -20 -37 0
20 69 60 72 15 1 27 5 27 9 0 8 -58 9 -77 2z m55 -75 c-6 -18 -28 -21 -28 -4
0 9 7 16 16 16 9 0 14 -5 12 -12z"/>
<path d="M2700 5636 c0 -9 5 -16 10 -16 6 0 10 4 10 9 0 6 -4 13 -10 16 -5 3
-10 -1 -10 -9z"/>
<path d="M5482 5590 c-33 -59 -71 -84 -57 -37 7 21 6 21 -10 5 -21 -20 -13
-53 11 -44 9 3 27 6 40 6 16 0 24 6 24 18 0 10 11 33 25 52 27 37 32 60 12 60
-7 0 -27 -27 -45 -60z"/>
<path d="M2126 5602 c-26 -50 27 -89 56 -42 13 20 13 20 30 -2 16 -22 17 -22
37 -4 17 16 23 17 36 6 12 -10 19 -10 27 -2 9 9 8 12 -6 12 -12 0 -16 5 -12
15 18 45 16 47 -13 13 -35 -41 -61 -49 -61 -20 0 33 -13 33 -40 0 -16 -19 -31
-28 -38 -24 -19 11 -14 37 8 43 23 6 27 33 5 33 -8 0 -21 -13 -29 -28z"/>
<path d="M2880 5595 c-14 -17 -40 -20 -40 -5 0 13 -49 -21 -50 -34 0 -5 7 -3
16 5 13 10 17 10 24 -1 7 -12 12 -11 28 3 23 21 36 22 28 2 -7 -20 4 -18 32 4
22 19 31 38 12 26 -6 -4 -17 -2 -24 4 -10 8 -17 7 -26 -4z"/>
<path d="M2986 5579 c-14 -11 -30 -18 -35 -14 -5 3 -12 1 -15 -4 -12 -19 16
-22 36 -5 19 18 20 18 33 1 13 -18 35 -23 35 -8 0 5 -7 12 -16 15 -13 5 -14 9
-4 21 18 22 -3 18 -34 -6z"/>
<path d="M5656 5558 c-9 -12 -16 -26 -16 -30 0 -12 88 -10 95 2 10 16 28 12
21 -5 -7 -20 1 -19 26 5 25 23 42 17 28 -11 -13 -24 -2 -25 15 -2 12 17 15 17
49 0 45 -21 70 -22 87 -1 11 14 13 14 21 0 5 -9 16 -16 23 -16 17 0 20 16 5
25 -6 4 -8 11 -4 16 3 6 3 17 0 26 -5 12 -9 13 -20 4 -7 -6 -20 -9 -28 -6 -8
3 -25 -6 -38 -20 -29 -30 -42 -32 -38 -4 3 18 -3 21 -45 25 -31 2 -60 -2 -77
-11 -37 -19 -40 -19 -40 2 0 15 -1 15 -18 0 -25 -22 -50 -24 -32 -2 7 9 10 18
7 21 -3 3 -12 -5 -21 -18z m304 -18 c0 -13 -28 -25 -38 -16 -3 4 0 11 8 16 20
13 30 12 30 0z"/>
<path d="M5532 5558 c-7 -7 -12 -22 -12 -35 0 -25 23 -31 50 -13 12 8 11 10
-7 10 -24 0 -31 14 -13 25 12 7 13 25 2 25 -4 0 -13 -5 -20 -12z"/>
<path d="M3393 5485 c-2 -19 -16 -54 -33 -77 -17 -24 -41 -70 -54 -103 -22
-54 -29 -62 -68 -77 -44 -17 -49 -29 -22 -59 30 -34 3 -151 -50 -209 -68 -76
-81 -131 -33 -144 12 -3 36 0 54 6 28 10 34 9 63 -15 17 -15 36 -27 41 -27 5
0 32 -21 61 -48 68 -61 112 -92 131 -92 30 0 28 33 -6 89 -28 48 -38 57 -69
62 -20 3 -50 18 -68 32 -17 15 -36 27 -41 27 -4 0 -15 11 -24 24 -14 21 -14
28 6 79 25 66 63 107 81 89 7 -7 26 -12 44 -12 49 0 163 -57 170 -85 5 -20 13
-23 64 -27 45 -3 72 -12 119 -42 36 -22 82 -40 113 -46 64 -10 140 -51 168
-89 26 -37 74 -58 94 -42 8 7 27 13 43 13 41 1 129 -28 160 -52 37 -29 53 -26
44 8 -6 20 -26 37 -84 70 -63 35 -77 48 -77 67 0 31 -26 45 -84 45 -40 0 -51
5 -86 39 -26 25 -52 40 -78 44 -20 4 -53 18 -72 33 -46 34 -132 78 -217 109
-37 14 -88 39 -114 55 -25 17 -49 30 -53 30 -11 0 -86 64 -86 73 0 5 -10 17
-21 26 -21 17 -21 20 -8 62 14 43 15 44 59 45 125 2 244 26 237 47 -5 15 -72
35 -120 36 -23 1 -64 15 -104 36 -36 19 -69 35 -72 35 -3 0 -7 -16 -8 -35z"/>
<path d="M2545 5478 c-59 -32 -80 -73 -50 -98 17 -14 19 -7 6 19 -12 22 -5 33
39 60 44 26 72 27 95 1 17 -19 17 -21 0 -40 -10 -11 -16 -23 -13 -26 6 -6 48
44 48 57 0 4 -10 15 -22 23 -26 18 -74 20 -103 4z"/>
<path d="M2557 5412 c-19 -20 -23 -37 -7 -27 10 6 33 45 27 45 -2 0 -11 -8
-20 -18z"/>
<path d="M2565 5366 c-40 -69 -78 -97 -93 -69 -6 11 -11 12 -16 4 -10 -15 2
-31 23 -31 30 0 68 37 100 97 43 78 32 78 -14 -1z"/>
<path d="M2615 5339 c-50 -38 -62 -57 -39 -66 22 -8 45 7 67 45 28 47 17 55
-28 21z m15 -17 c0 -13 -23 -32 -39 -32 -11 0 -10 4 4 20 19 21 35 26 35 12z"/>
<path d="M5064 5359 c-3 -6 -15 -9 -25 -6 -21 6 -27 -18 -6 -26 8 -3 6 -11 -9
-28 -37 -42 -56 -89 -35 -89 5 0 23 25 40 55 18 31 38 58 46 62 8 3 15 14 15
24 0 21 -15 25 -26 8z"/>
<path d="M2681 5324 c-42 -53 -9 -84 36 -34 14 17 32 30 40 30 7 0 13 5 13 10
0 19 -21 10 -47 -20 -13 -16 -32 -30 -41 -30 -13 0 -12 4 5 23 27 30 36 47 24
47 -5 0 -19 -12 -30 -26z"/>
<path d="M2945 5170 c3 -5 8 -10 11 -10 2 0 4 5 4 10 0 6 -5 10 -11 10 -5 0
-7 -4 -4 -10z"/>
<path d="M2554 5156 c-4 -10 0 -29 7 -43 l14 -27 3 34 c4 37 -13 64 -24 36z"/>
<path d="M5330 5137 c-37 -12 -57 -23 -47 -25 10 -2 32 1 48 7 25 9 38 7 70
-10 42 -21 138 -24 131 -4 -2 6 -7 9 -12 8 -59 -16 -135 4 -124 32 4 8 5 15 3
14 -2 -1 -33 -11 -69 -22z"/>
<path d="M2614 5124 c-4 -16 -20 -49 -35 -74 -25 -40 -27 -51 -22 -107 3 -36
2 -63 -3 -63 -5 0 -33 32 -62 71 -50 66 -55 70 -88 67 -34 -3 -36 -5 -61 -78
-14 -41 -37 -90 -51 -107 -13 -18 -20 -33 -14 -33 14 0 41 40 87 133 21 42 44
77 51 77 14 0 91 -104 123 -167 25 -50 25 -53 7 -53 -10 0 -14 -17 -14 -70 0
-38 4 -70 9 -70 20 0 36 97 32 199 -3 82 0 109 12 127 21 33 44 30 56 -6 14
-38 42 -42 33 -4 -6 23 -4 25 15 19 12 -4 21 -2 21 4 0 6 -11 13 -25 17 -30 7
-33 21 -5 26 12 2 20 8 20 13 -1 6 -7 9 -15 7 -20 -4 -27 14 -10 28 29 24 15
31 -20 10 -36 -22 -44 -15 -24 22 7 14 8 23 0 31 -7 7 -12 1 -17 -19z"/>
<path d="M5196 5121 c5 -21 1 -32 -14 -42 -10 -8 -22 -23 -26 -34 -3 -11 -28
-42 -55 -68 -35 -34 -54 -64 -71 -109 -12 -35 -26 -67 -31 -72 -17 -19 -21 4
-10 50 7 28 8 51 3 56 -10 10 -26 -100 -17 -123 2 -8 1 -21 -4 -29 -8 -12 -13
-12 -30 4 -23 20 -89 38 -96 25 -3 -4 14 -13 37 -20 65 -19 123 -79 86 -91 -7
-3 -9 -14 -4 -33 6 -22 9 -26 16 -15 7 12 14 10 36 -10 l27 -25 -7 25 c-15 57
-17 88 -8 123 6 23 7 39 1 43 -5 3 0 17 11 31 11 14 25 44 31 67 6 22 35 70
63 106 29 36 58 75 64 87 14 26 16 83 2 83 -5 0 -7 -13 -4 -29z"/>
<path d="M5580 4943 c-1 -10 -2 -36 -2 -58 -1 -36 -6 -44 -61 -90 -69 -57
-139 -92 -193 -97 -37 -3 -38 -2 -47 35 -5 20 -13 37 -17 37 -4 0 -3 -16 3
-35 7 -25 7 -45 -2 -72 -14 -47 -41 -83 -48 -65 -13 35 -50 96 -60 99 -8 3
-13 -19 -15 -69 -2 -59 -6 -73 -18 -71 -10 2 -16 -5 -17 -17 -2 -17 3 -19 23
-14 23 6 25 4 22 -17 -6 -43 -40 -35 -98 21 -37 36 -56 48 -63 41 -6 -6 -32
-11 -57 -11 -42 0 -50 4 -100 56 -30 30 -72 64 -92 75 -45 23 -51 11 -7 -14
19 -11 29 -23 26 -31 -7 -18 18 -40 33 -31 6 4 33 -14 60 -39 42 -39 47 -47
32 -55 -9 -5 -25 -30 -34 -55 l-17 -47 23 -9 c13 -5 26 -15 29 -22 3 -7 8 6
12 29 9 51 25 47 25 -6 0 -43 21 -78 39 -66 9 5 11 22 6 56 -7 51 3 65 20 27
13 -29 52 -40 40 -12 -4 11 -10 30 -13 43 -4 20 -2 23 12 18 10 -4 28 -7 40
-7 13 0 31 -12 44 -30 24 -32 43 -98 25 -87 -7 4 -13 -10 -17 -36 -4 -24 -15
-70 -25 -104 -19 -62 -14 -93 14 -93 27 0 15 -25 -23 -50 -34 -23 -35 -25 -14
-28 17 -3 22 -10 22 -32 0 -16 -4 -31 -9 -34 -5 -3 -32 13 -60 35 -44 35 -51
46 -51 75 l0 35 31 -17 c26 -13 33 -14 40 -2 17 26 8 30 -53 26 -51 -2 -63 0
-63 12 0 12 -15 16 -67 18 -63 3 -86 13 -55 25 6 3 -30 5 -81 4 -101 -2 -130
-15 -119 -57 7 -29 -5 -32 -39 -9 -39 26 -48 24 -28 -6 9 -14 14 -34 11 -45
-6 -22 8 -28 16 -7 3 9 12 8 34 -5 34 -20 43 -16 43 20 0 25 0 25 21 6 21 -19
54 -20 76 -3 7 6 13 6 17 0 7 -11 -82 -106 -91 -97 -4 3 2 15 12 26 23 25 14
36 -14 18 -24 -14 -28 -57 -8 -77 10 -10 7 -12 -12 -9 -13 1 -28 11 -32 21 -5
9 -13 25 -17 34 -5 9 -14 19 -22 21 -10 4 -11 -4 -6 -33 12 -62 -13 -63 -41
-2 -19 41 -22 56 -14 75 13 28 14 32 1 32 -5 0 -22 -18 -36 -40 -29 -44 -49
-51 -59 -20 -10 30 -28 24 -73 -24 -36 -39 -39 -47 -33 -77 4 -19 11 -32 16
-29 6 2 9 11 7 18 -2 9 4 12 15 10 12 -2 19 -14 21 -38 4 -37 26 -70 49 -70
10 0 8 8 -7 28 -17 23 -19 33 -10 56 12 32 33 30 38 -3 3 -17 8 -21 23 -17 63
20 59 21 59 -18 0 -41 24 -51 34 -13 4 16 8 18 14 9 7 -10 14 -10 35 1 l26 14
-21 21 c-12 12 -19 24 -15 28 12 13 57 -7 73 -32 20 -30 11 -43 -47 -72 -27
-14 -34 -23 -34 -47 0 -27 -4 -30 -34 -33 -28 -3 -33 -1 -27 13 4 11 2 15 -6
13 -7 -3 -15 -15 -16 -28 -2 -14 -13 -35 -23 -49 -16 -19 -17 -27 -7 -39 11
-13 13 -12 16 9 4 27 29 59 47 59 14 0 75 -62 75 -76 0 -11 -42 -54 -53 -54
-13 0 -7 23 10 43 17 18 17 19 -1 33 -24 17 -36 10 -36 -22 0 -18 -8 -28 -31
-38 -25 -10 -28 -14 -14 -19 9 -4 14 -11 10 -17 -10 -17 15 -51 46 -62 32 -11
40 -44 12 -51 -10 -3 3 -5 30 -6 35 -1 47 3 47 13 0 25 21 29 36 7 20 -28 36
-27 28 3 -9 37 2 46 36 29 21 -10 30 -22 30 -39 0 -19 8 -29 35 -40 20 -8 35
-22 36 -32 1 -9 6 0 11 21 6 20 16 37 23 37 7 0 18 7 25 15 25 30 41 18 34
-25 -7 -42 11 -104 28 -94 5 3 18 -2 28 -11 23 -21 33 -5 20 30 -16 42 -13 65
10 65 24 0 24 3 4 42 -9 17 -14 42 -11 55 4 21 1 24 -16 19 -12 -3 -26 -1 -32
4 -8 7 -19 -3 -34 -30 -12 -22 -26 -40 -32 -40 -11 0 -11 -4 5 50 9 33 21 49
42 59 36 18 51 37 60 76 3 17 12 39 19 51 12 18 31 134 21 123 -9 -9 -66 -165
-66 -180 0 -9 -22 -34 -49 -57 -44 -37 -48 -45 -48 -83 0 -30 -6 -46 -19 -56
-26 -19 -37 -12 -53 34 -14 39 -13 41 15 76 19 24 35 35 45 32 10 -3 19 1 23
11 4 9 13 14 21 10 10 -3 15 1 15 11 0 9 7 25 17 35 15 17 15 20 -7 43 -13 14
-31 27 -42 31 -18 5 -25 38 -10 48 5 3 19 -8 31 -25 29 -39 37 -32 17 16 -14
34 -19 37 -45 32 -17 -4 -36 0 -48 8 -19 13 -24 12 -58 -15 -43 -34 -55 -32
-32 3 22 35 81 60 119 52 21 -5 28 -4 24 4 -4 6 -20 11 -36 11 -16 0 -32 5
-35 10 -13 20 -36 9 -50 -24 -17 -39 -38 -50 -68 -35 -20 11 -20 12 -1 26 10
8 18 20 16 27 -1 8 7 16 18 19 16 4 20 13 20 46 0 45 8 49 47 24 26 -17 26
-17 14 6 -15 27 -14 29 24 33 28 3 30 1 31 -33 1 -45 10 -59 35 -59 18 0 19 5
14 55 -4 30 -4 55 1 55 13 0 114 -110 114 -124 0 -15 -57 -43 -67 -33 -3 4 0
13 7 22 15 17 7 19 -21 5 -21 -12 -25 -36 -6 -43 6 -2 29 2 51 9 21 8 42 11
47 8 5 -3 28 -33 51 -67 40 -61 62 -87 204 -239 39 -42 88 -109 108 -148 43
-81 62 -167 41 -189 -11 -11 -30 3 -116 84 -81 76 -105 93 -108 79 -2 -10 -10
-24 -19 -30 -12 -9 -14 -27 -9 -106 7 -127 35 -177 117 -212 30 -12 40 -12 69
0 l33 14 -6 64 -6 65 42 3 c43 3 43 3 46 44 3 36 -7 72 -43 157 -4 10 -3 17 3
17 13 0 92 -82 109 -113 20 -35 15 -113 -12 -192 -27 -83 -124 -277 -172 -346
-17 -25 -48 -81 -68 -125 -20 -43 -47 -99 -60 -124 -30 -58 -114 -300 -125
-361 -5 -26 -13 -64 -19 -85 -6 -22 -11 -87 -11 -145 0 -82 -3 -109 -15 -119
-12 -10 -18 -10 -30 0 -8 7 -12 16 -10 20 7 11 -46 50 -103 79 -39 20 -44 20
-65 6 -12 -8 -16 -15 -10 -15 7 0 27 -12 45 -27 18 -16 55 -39 81 -52 84 -43
108 -89 137 -270 13 -78 41 -146 68 -160 29 -16 67 -14 82 4 20 24 23 121 5
149 -38 57 38 22 118 -55 34 -32 37 -39 28 -62 -11 -29 4 -38 26 -16 13 13 43
5 43 -10 0 -5 -23 -22 -52 -38 -54 -29 -101 -85 -96 -112 6 -29 53 -24 91 8
34 30 67 41 67 22 0 -5 -12 -23 -26 -41 -25 -30 -26 -31 -9 -50 17 -19 19 -19
38 -3 10 10 28 35 38 56 11 20 23 37 27 37 5 0 21 -28 36 -62 16 -35 32 -70
37 -78 4 -8 27 -53 50 -100 23 -47 55 -103 70 -125 15 -22 39 -59 53 -82 20
-32 33 -43 51 -43 34 0 32 24 -5 79 -17 24 -30 50 -30 58 0 13 -52 103 -138
238 -25 38 -50 81 -56 95 -20 44 -61 100 -73 100 -21 0 -15 17 21 64 19 25 37
63 41 85 9 53 18 58 45 24 37 -49 100 -153 100 -167 0 -18 40 -102 70 -148 16
-24 33 -38 46 -38 26 0 54 30 54 56 0 21 -73 141 -153 254 -26 36 -56 82 -67
102 -28 52 -61 52 -87 1 -20 -41 -40 -53 -49 -29 -3 8 8 35 26 61 27 39 36 46
56 41 17 -5 24 -2 24 8 0 8 -10 16 -22 18 -12 2 -24 9 -26 17 -3 10 1 12 17 8
27 -7 37 11 44 83 3 30 17 91 31 135 14 44 26 91 26 106 0 16 -21 53 -55 97
-63 83 -68 109 -28 167 14 21 29 53 33 69 3 20 13 32 25 35 22 4 37 21 66 74
22 42 19 54 -18 68 -20 7 -30 6 -45 -7 -11 -11 -14 -20 -8 -24 6 -4 0 -16 -15
-30 -21 -20 -28 -22 -35 -10 -13 21 -35 -2 -69 -74 -22 -44 -27 -64 -19 -73 8
-10 6 -18 -5 -31 -11 -12 -13 -22 -6 -32 5 -8 9 -44 7 -79 -1 -59 0 -65 24
-77 38 -20 53 -66 41 -120 -6 -25 -9 -65 -8 -90 2 -24 0 -46 -5 -49 -5 -3 -6
-13 -3 -21 6 -16 -12 -34 -33 -34 -6 0 -16 11 -24 24 -7 14 -18 22 -25 20 -16
-6 -68 81 -62 104 3 13 7 10 16 -12 11 -28 51 -84 51 -73 0 10 -129 260 -139
270 -7 7 -7 17 0 29 15 28 2 58 -27 58 -16 0 -24 -6 -24 -17 0 -15 2 -15 9 -4
11 17 41 7 41 -13 0 -18 -49 -58 -64 -53 -6 2 -10 14 -9 26 2 11 -2 21 -7 21
-9 0 -15 -85 -10 -134 1 -10 -6 -38 -15 -62 -11 -29 -13 -49 -7 -60 5 -9 6
-33 1 -53 -4 -20 -11 -71 -14 -114 -8 -85 -16 -92 -69 -59 -26 16 -32 28 -47
107 -24 120 -23 132 6 260 71 303 123 461 205 626 56 110 165 373 191 459 12
41 23 103 23 139 1 63 1 64 -39 95 -113 88 -241 236 -372 431 -88 131 -104
165 -79 165 24 0 32 47 11 70 -18 20 -11 48 8 32 7 -5 26 -13 44 -17 35 -7
113 -59 113 -75 0 -6 -28 -10 -62 -10 -35 0 -69 -4 -77 -9 -23 -15 3 -20 49
-10 23 5 57 8 74 6 31 -4 31 -4 28 -59 -3 -42 2 -66 17 -94 13 -25 20 -32 21
-21 0 10 6 17 13 15 16 -6 22 -39 8 -48 -13 -7 -4 -40 10 -40 5 0 9 11 9 24 0
23 16 44 26 33 2 -2 5 -21 6 -41 1 -30 6 -40 25 -47 15 -6 23 -17 23 -33 0
-27 34 -58 55 -49 14 5 -6 48 -47 102 -10 13 -18 36 -18 52 0 15 -12 41 -27
59 -22 26 -25 36 -17 58 13 38 39 35 39 -4 0 -20 11 -43 32 -67 19 -22 35 -55
42 -87 14 -64 27 -90 46 -90 18 0 18 -3 -1 75 -18 73 -13 111 16 120 11 4 27
18 34 33 18 34 51 62 97 83 38 18 79 56 79 73 0 6 -5 3 -10 -6 -11 -18 -71
-58 -87 -58 -5 0 -16 11 -23 25 -17 32 -29 32 -22 0 3 -20 -4 -35 -34 -65 -22
-21 -49 -51 -61 -65 -34 -39 -57 -33 -81 23 -30 70 -36 129 -18 187 9 28 16
59 16 70 0 17 -2 17 -14 5 -19 -21 -56 -165 -49 -191 5 -18 3 -21 -10 -16 -14
5 -17 0 -17 -33 0 -48 -14 -51 -35 -10 -18 35 -14 62 26 145 15 33 30 78 33
100 l6 40 -17 -37 c-8 -21 -20 -38 -25 -38 -14 0 -47 83 -55 136 -3 27 -19 66
-34 89 -15 23 -38 71 -50 108 l-21 66 36 66 c21 36 49 73 64 82 15 9 38 27 52
39 14 13 41 30 61 38 20 8 75 45 123 81 48 36 118 81 156 100 38 19 71 39 75
44 9 15 -63 -16 -118 -52 -57 -35 -66 -29 -59 39 2 26 0 44 -6 44 -6 0 -11 -8
-12 -17z m-543 -439 c4 -13 -25 -23 -44 -17 -7 3 -13 11 -13 19 0 18 51 16 57
-2z m186 -135 c21 -44 35 -84 32 -89 -15 -24 -36 -5 -69 63 -40 80 -45 107
-18 107 11 0 29 -26 55 -81z m-24 -118 c-2 -18 5 -40 22 -62 36 -48 45 -68 53
-116 7 -50 -1 -53 -35 -17 -13 14 -38 32 -56 39 l-32 14 5 63 c7 90 12 108 30
108 11 0 15 -8 13 -29z m81 -34 c0 -18 11 -48 25 -69 25 -37 31 -58 17 -58 -7
0 -73 82 -95 118 -11 17 10 42 34 42 15 0 19 -7 19 -33z m-382 -85 c2 -7 -2
-12 -10 -13 -7 0 -20 -2 -29 -4 -23 -4 -43 10 -34 24 9 15 67 9 73 -7z m-14
-65 c-2 -7 -13 -18 -24 -25 -17 -10 -20 -10 -20 2 0 8 8 20 18 25 23 14 32 13
26 -2z m-74 -12 c0 -16 -27 -32 -37 -22 -3 4 -3 13 0 22 8 20 37 20 37 0z
m-300 -80 c10 -12 9 -16 -5 -21 -16 -6 -34 9 -35 29 0 13 27 8 40 -8z m210
-40 c0 -8 -4 -15 -10 -15 -5 0 -10 7 -10 15 0 8 5 15 10 15 6 0 10 -7 10 -15z
m401 -62 c5 -14 23 -41 39 -60 30 -34 38 -53 21 -53 -10 0 -46 46 -80 103 -19
31 -20 37 -7 37 9 0 21 -12 27 -27z m-481 -88 c0 -8 -7 -15 -16 -15 -14 0 -14
3 -4 15 7 8 14 15 16 15 2 0 4 -7 4 -15z m48 -17 c-2 -6 -10 -14 -16 -16 -7
-2 -10 2 -6 12 7 18 28 22 22 4z m127 -19 c-5 -15 -4 -19 4 -15 6 4 11 14 11
22 0 8 5 14 10 14 6 0 10 -8 10 -18 0 -10 5 -23 11 -29 17 -17 1 -35 -27 -31
-17 2 -31 -5 -44 -22 -24 -32 -36 -20 -17 17 8 15 12 34 10 41 -7 20 5 42 22
42 12 0 15 -6 10 -21z m-205 -27 c0 -13 -12 -22 -22 -16 -10 6 -1 24 13 24 5
0 9 -4 9 -8z m145 -31 c3 -5 1 -12 -5 -16 -5 -3 -10 1 -10 9 0 18 6 21 15 7z
m-65 -49 c-8 -45 -17 -62 -32 -62 -14 0 -4 76 12 95 19 23 28 9 20 -33z m100
-38 c0 -17 -22 -14 -28 4 -2 7 3 12 12 12 9 0 16 -7 16 -16z m-20 -75 c0 -10
-5 -21 -10 -24 -12 -7 -30 36 -30 68 l1 22 19 -24 c11 -13 20 -31 20 -42z
m-210 16 c0 -8 -4 -15 -10 -15 -5 0 -10 7 -10 15 0 8 5 15 10 15 6 0 10 -7 10
-15z m405 -24 c7 -12 -12 -24 -25 -16 -11 7 -4 25 10 25 5 0 11 -4 15 -9z
m334 -221 c46 -55 81 -142 81 -202 0 -43 -12 -48 -58 -24 -62 33 -91 82 -96
170 -8 120 8 133 73 56z m465 -823 c-13 -22 -37 -47 -46 -47 -15 0 -8 23 13
47 22 22 45 22 33 0z m-94 -108 c0 -25 -17 -59 -30 -59 -13 0 -13 36 0 61 14
25 30 24 30 -2z m-36 -153 c7 -27 -1 -56 -15 -56 -12 0 -23 46 -15 65 8 23 23
18 30 -9z m56 -106 c22 -22 26 -40 8 -40 -16 0 -48 31 -48 47 0 19 17 16 40
-7z m-227 -178 c21 -43 37 -82 37 -87 0 -6 22 -46 48 -90 30 -50 47 -91 47
-110 -1 -35 -24 -75 -43 -75 -19 0 -26 -28 -12 -45 10 -12 10 -21 2 -40 -27
-58 -95 -4 -106 83 -6 48 -5 53 16 62 22 8 22 9 2 9 -19 1 -22 8 -28 69 -14
161 -18 302 -9 302 5 0 26 -35 46 -78z m255 50 c4 -28 -26 -92 -44 -92 -8 0
-14 5 -14 10 0 6 5 10 10 10 6 0 10 15 10 34 0 43 9 68 24 63 6 -2 12 -13 14
-25z m-26 -148 c-4 -43 -10 -54 -27 -54 -13 0 -15 7 -9 38 8 46 13 54 27 49 7
-2 11 -17 9 -33z m-33 -67 c6 -8 8 -16 5 -20 -10 -9 -34 4 -34 19 0 18 14 18
29 1z m-363 -146 c23 -20 60 -51 83 -69 41 -33 54 -62 28 -62 -8 0 -22 10 -33
21 -10 12 -35 32 -54 44 -47 30 -121 105 -114 116 7 12 40 -6 90 -50z m72 18
c3 -32 -13 -58 -28 -43 -13 13 -1 76 14 71 6 -2 12 -14 14 -28z m42 -33 c0
-14 -4 -28 -10 -31 -6 -4 -10 7 -10 24 0 17 5 31 10 31 6 0 10 -11 10 -24z
m70 -144 c22 -17 21 -42 0 -42 -11 0 -50 41 -50 52 0 14 27 9 50 -10z m110 10
c0 -14 -39 -46 -47 -39 -3 4 2 16 12 27 19 21 35 26 35 12z m261 -134 c16 -32
38 -62 49 -68 27 -15 25 -36 -6 -56 -22 -15 -27 -15 -34 -4 -5 9 -5 19 1 26 7
9 5 21 -5 41 l-16 28 6 -30 7 -30 -23 20 c-28 25 -41 58 -26 67 8 5 4 19 -11
47 -12 21 -19 41 -16 45 11 11 45 -28 74 -86z m-327 12 c16 -6 26 -17 26 -30
0 -17 -6 -20 -43 -20 -33 0 -51 -7 -77 -30 -59 -50 -94 -33 -49 24 21 26 83
65 106 66 6 0 23 -4 37 -10z m-10 -129 c3 -5 -1 -14 -8 -20 -16 -13 -32 2 -21
19 8 12 22 13 29 1z"/>
<path d="M2454 4765 c-4 -8 8 -36 26 -63 l32 -47 -7 39 c-13 76 -37 109 -51
71z"/>
<path d="M2606 4733 c-23 -45 -37 -105 -23 -100 19 6 79 98 73 113 -9 23 -34
16 -50 -13z"/>
<path d="M2401 4711 c-11 -20 11 -46 57 -71 35 -17 35 -9 2 43 -32 51 -44 57
-59 28z"/>
<path d="M4645 4650 c-4 -7 3 -10 19 -8 35 5 45 18 13 18 -14 0 -29 -5 -32
-10z"/>
<path d="M2356 4641 c-10 -15 23 -34 70 -41 55 -9 56 4 2 30 -46 22 -64 25
-72 11z"/>
<path d="M5634 4618 c-9 -17 -22 -52 -28 -77 -7 -30 -18 -49 -32 -55 -18 -8
-20 -16 -16 -58 4 -40 0 -53 -22 -82 -14 -19 -32 -61 -39 -93 -13 -53 -16 -58
-38 -55 -32 5 -47 20 -26 28 19 7 51 97 49 135 -1 15 5 32 13 39 17 14 20 46
4 56 -12 7 -4 53 13 69 7 7 8 3 3 -14 -6 -19 -1 -16 27 15 33 37 65 104 50
104 -5 0 -34 -27 -65 -60 -53 -56 -57 -64 -52 -98 6 -45 -34 -203 -53 -210 -7
-2 -16 5 -19 17 -3 12 -9 21 -14 21 -5 0 -5 -10 0 -23 5 -14 5 -30 0 -40 -7
-11 -6 -17 0 -17 6 0 23 -13 38 -30 29 -34 45 -37 63 -15 7 8 22 15 34 15 22
0 109 50 101 58 -2 3 -25 -8 -50 -22 -25 -15 -49 -25 -54 -22 -5 3 -5 21 -1
38 9 36 57 166 68 183 6 8 38 98 71 198 13 38 -5 35 -25 -5z"/>
<path d="M2520 4595 c-15 -18 -6 -45 13 -45 8 0 20 7 27 15 10 12 10 18 0 30
-16 19 -24 19 -40 0z"/>
<path d="M4755 4554 c-38 -49 -26 -53 14 -4 17 22 28 40 23 40 -5 0 -22 -16
-37 -36z"/>
<path d="M2350 4556 c0 -22 15 -27 44 -16 31 11 34 0 6 -25 -21 -19 -27 -45
-10 -45 6 0 22 7 35 16 29 19 32 9 9 -24 -18 -26 -12 -52 10 -52 21 0 43 36
52 84 5 28 4 37 -5 32 -6 -4 -11 -1 -11 8 0 10 -6 13 -15 10 -9 -4 -15 0 -15
10 0 13 -11 16 -50 16 -37 0 -50 -4 -50 -14z"/>
<path d="M2710 4540 c-8 -16 -6 -26 9 -47 53 -74 73 -201 56 -356 -6 -57 -11
-70 -31 -80 -23 -12 -23 -14 -8 -35 13 -18 25 -22 71 -22 31 0 73 -5 92 -11
49 -16 197 -81 306 -135 50 -24 96 -44 104 -44 22 0 294 -136 313 -156 9 -11
25 -40 36 -65 17 -39 37 -59 58 -59 2 0 4 35 4 78 1 212 37 294 165 376 41 27
74 54 72 60 -6 20 -73 46 -133 52 -32 3 -84 10 -114 16 -30 6 -68 12 -85 12
-16 1 -34 4 -40 7 -5 4 -23 9 -40 13 -16 4 -40 16 -51 27 -14 13 -24 17 -28
10 -8 -13 11 -51 24 -51 6 0 27 -16 49 -35 21 -19 53 -38 70 -41 37 -8 73 -61
91 -135 10 -41 9 -51 -10 -88 -26 -52 -38 -57 -98 -41 -119 32 -186 60 -221
94 -20 20 -51 40 -69 47 -58 20 -27 50 33 32 29 -9 37 -8 51 8 9 10 25 19 34
19 23 0 80 20 80 29 0 4 -55 17 -122 30 -93 18 -129 30 -149 48 -14 12 -31 23
-39 23 -7 0 -25 14 -40 32 -33 39 -60 31 -31 -10 10 -15 31 -53 46 -85 33 -72
24 -92 -26 -56 -18 13 -67 35 -108 49 -41 14 -78 32 -82 40 -5 8 -22 45 -39
81 -17 37 -40 75 -51 84 -23 21 -25 63 -4 71 8 3 31 -4 51 -15 l37 -22 38 26
c29 21 51 27 96 28 66 2 113 26 113 57 0 26 -12 25 -36 -1 -15 -16 -25 -19
-53 -14 -49 9 -143 58 -233 121 -85 60 -138 72 -158 34z"/>
<path d="M4811 4520 c-6 -22 -21 -44 -32 -50 -11 -6 -17 -15 -13 -21 9 -15 32
8 55 55 21 44 23 56 11 56 -5 0 -14 -18 -21 -40z"/>
<path d="M5830 4406 c-26 -6 -62 -22 -82 -34 -19 -12 -45 -22 -56 -22 -11 0
-23 -4 -27 -10 -11 -18 67 0 98 24 41 30 86 39 111 20 23 -17 76 -19 76 -3 0
7 -11 9 -26 6 -20 -3 -28 0 -31 14 -6 22 -4 22 -63 5z"/>
<path d="M4602 4327 c-26 -26 -32 -41 -31 -72 l1 -40 16 48 c13 38 20 47 39
47 16 0 23 6 23 19 0 33 -15 32 -48 -2z"/>
<path d="M5737 4313 c-10 -9 62 -42 94 -43 24 0 49 16 49 32 0 12 -38 10 -45
-2 -3 -5 -16 -10 -28 -10 -22 1 -22 1 -3 15 19 14 17 15 -20 15 -23 0 -44 -3
-47 -7z"/>
<path d="M5630 4300 c0 -5 5 -10 11 -10 5 0 7 5 4 10 -3 6 -8 10 -11 10 -2 0
-4 -4 -4 -10z"/>
<path d="M5652 4239 c-11 -19 -25 -58 -30 -86 -8 -48 -8 -53 9 -53 10 0 22 8
28 17 14 25 36 3 51 -52 7 -25 16 -47 19 -49 3 -2 4 34 2 81 -2 62 0 84 8 79
6 -4 9 -12 6 -17 -4 -5 -2 -9 3 -9 22 0 21 43 -1 61 -37 29 -11 33 27 4 38
-29 47 -48 19 -39 -11 4 -6 -5 12 -22 27 -25 30 -26 34 -8 2 12 -14 34 -49 66
-57 53 -74 59 -85 26 -6 -23 -7 -22 -19 6 l-13 28 -21 -33z"/>
<path d="M5770 4104 c0 -7 9 -22 20 -35 25 -31 26 -12 0 21 -11 14 -20 20 -20
14z"/>
<path d="M2560 4031 c0 -10 6 -24 14 -30 32 -26 48 -167 21 -177 -8 -4 -15
-11 -15 -18 0 -15 60 -50 81 -47 9 1 29 -13 43 -31 55 -68 76 -88 92 -88 9 0
28 -12 44 -27 15 -16 55 -52 89 -81 33 -29 61 -60 61 -68 0 -17 -91 -19 -185
-5 -33 6 -85 13 -115 16 -83 9 -128 23 -143 45 -7 10 -25 24 -40 31 -16 7 -27
20 -27 31 0 11 -5 18 -12 15 -9 -2 -13 -24 -13 -60 0 -75 -26 -111 -83 -115
-38 -3 -63 -24 -43 -37 8 -4 52 -7 109 -5 32 0 42 -7 42 -32 0 -16 5 -19 24
-14 17 4 58 -12 147 -57 68 -35 133 -69 144 -75 11 -6 36 -15 55 -20 34 -8 35
-9 32 -54 l-3 -46 53 -4 c92 -8 166 -43 238 -112 36 -35 74 -68 85 -73 24 -13
158 -8 163 5 4 12 -39 24 -90 27 -38 2 -44 8 -145 133 -47 58 -124 104 -248
147 -139 48 -182 80 -112 83 218 8 293 2 427 -32 123 -31 137 -33 152 -19 25
22 9 39 -60 60 -37 12 -73 33 -107 65 -28 26 -76 58 -106 71 -55 25 -169 130
-156 144 4 3 49 -8 100 -26 139 -48 263 -78 352 -85 46 -4 126 -21 191 -41
119 -38 175 -43 193 -21 15 18 -1 28 -73 45 -72 18 -123 47 -186 107 -62 59
-82 66 -293 100 -86 14 -120 24 -164 51 -60 36 -138 70 -245 108 -37 13 -82
35 -100 48 -18 13 -41 27 -50 30 -10 4 -38 37 -63 76 -46 71 -75 95 -75 62z"/>
<path d="M2155 3943 c-26 -6 -55 -32 -55 -49 0 -22 63 -27 106 -9 45 19 76 44
68 56 -5 9 -84 10 -119 2z"/>
<path d="M5029 3638 c-7 -23 -9 -58 -4 -75 9 -39 21 -25 17 19 -4 32 -1 40 9
35 44 -17 50 -17 21 2 -31 20 -41 24 -43 19z"/>
<path d="M4170 3567 c0 -2 13 -31 30 -63 21 -41 30 -74 30 -107 0 -55 -16 -67
-58 -46 -15 7 -30 15 -34 17 -5 2 -8 -10 -8 -27 0 -20 -7 -34 -20 -41 -22 -12
-28 -64 -8 -76 7 -5 9 -2 5 8 -3 9 0 24 7 33 11 15 18 11 63 -39 28 -31 54
-56 57 -56 4 0 -14 30 -38 67 -25 36 -43 70 -40 75 3 5 20 6 38 3 68 -13 78
63 23 187 -20 46 -47 83 -47 65z"/>
<path d="M1785 3469 c-11 -17 1 -21 15 -4 8 9 8 15 2 15 -6 0 -14 -5 -17 -11z"/>
<path d="M3906 3295 c4 -8 8 -15 10 -15 2 0 4 7 4 15 0 8 -4 15 -10 15 -5 0
-7 -7 -4 -15z"/>
<path d="M5097 3239 c-4 -13 -7 -34 -7 -46 0 -13 -13 -37 -28 -54 -22 -25 -36
-31 -67 -31 -36 0 -54 -10 -55 -30 0 -5 6 -8 13 -8 7 0 21 -14 31 -30 9 -17
42 -60 72 -95 79 -93 88 -146 32 -188 l-27 -20 -35 27 c-19 14 -59 60 -88 101
-28 42 -56 71 -60 67 -5 -5 10 -42 34 -82 43 -75 108 -247 108 -287 0 -12 -4
-24 -8 -27 -18 -11 -91 35 -147 93 -88 91 -138 123 -183 119 l-37 -3 -5 75
c-4 63 -10 84 -37 126 -27 42 -40 52 -78 62 -56 15 -78 3 -131 -69 -36 -49
-36 -50 -39 -167 -2 -64 -8 -132 -13 -150 -10 -30 -9 -34 14 -42 14 -6 30 -10
35 -10 5 0 9 47 9 105 0 126 8 132 69 45 23 -33 62 -79 86 -101 24 -23 41 -47
39 -54 -3 -7 11 -31 30 -53 20 -21 47 -65 62 -96 14 -31 29 -56 34 -56 5 0 23
-23 41 -50 47 -72 109 -83 109 -20 0 36 -58 112 -125 164 -22 17 -62 55 -89
84 l-49 52 13 56 c16 65 36 80 83 65 33 -11 127 -101 127 -121 0 -6 11 -15 25
-20 14 -5 25 -14 25 -19 0 -16 86 -62 103 -56 8 4 18 2 22 -4 9 -15 40 -14 52
2 9 11 -9 99 -42 205 -8 25 1 27 51 13 17 -5 36 -6 42 -2 5 3 22 32 36 64 15
35 30 56 36 52 14 -8 42 14 34 27 -9 14 26 49 64 65 25 10 32 19 32 41 0 16
-7 37 -15 48 -15 18 -15 18 -10 -7 8 -32 -15 -53 -45 -44 -14 4 -28 1 -40 -10
-19 -17 -20 -17 -29 7 -5 14 -12 49 -16 79 -4 30 -11 72 -16 94 -4 22 -9 54
-9 71 0 16 -6 38 -13 49 -13 17 -14 17 -20 -6z m17 -141 c2 -7 8 -45 14 -84 6
-39 14 -79 18 -89 13 -34 -16 -11 -76 60 -65 76 -72 95 -37 95 13 0 32 7 43
15 24 18 34 19 38 3z m-597 -150 c13 -12 23 -26 23 -30 0 -5 14 -30 32 -56 42
-62 51 -137 18 -167 l-22 -20 -79 83 c-92 97 -100 125 -50 180 35 38 47 39 78
10z"/>
<path d="M4031 3149 c-26 -42 -14 -83 38 -131 53 -50 87 -51 106 -4 21 50 2
102 -50 138 -52 35 -71 35 -94 -3z m99 -35 c26 -22 31 -33 28 -62 -5 -54 -29
-63 -75 -26 -43 35 -52 67 -27 95 23 25 36 24 74 -7z"/>
<path d="M4765 3080 c-17 -19 -17 -22 -3 -36 21 -21 78 -10 78 15 0 41 -45 54
-75 21z"/>
<path d="M3940 2965 c-15 -17 -17 -50 -7 -89 8 -27 6 -28 -18 -22 -48 12 -24
-11 61 -59 47 -27 104 -62 126 -79 23 -17 71 -52 107 -77 36 -25 81 -65 99
-88 17 -23 32 -37 32 -31 0 25 -61 97 -114 135 -151 107 -141 96 -138 153 2
29 -2 68 -8 87 -21 64 -108 108 -140 70z m67 -18 c29 -16 60 -58 68 -90 8 -28
-16 -77 -36 -77 -25 0 -69 42 -69 66 0 13 -5 33 -12 43 -9 15 -9 25 0 45 13
29 18 30 49 13z"/>
<path d="M2180 2952 c0 -12 7 -42 16 -67 14 -44 14 -48 -5 -81 -12 -19 -21
-42 -21 -50 0 -17 -51 -63 -89 -81 l-26 -11 30 -1 c17 0 60 4 98 8 38 5 79 5
95 0 15 -4 55 -14 90 -21 82 -16 177 -66 178 -94 1 -21 32 -74 43 -74 4 0 16
7 28 15 19 13 31 11 149 -36 175 -70 179 -72 222 -137 20 -31 44 -57 52 -57 9
0 21 19 30 48 11 35 30 61 73 100 34 32 57 61 57 74 0 20 -5 21 -77 20 -64 -2
-92 3 -156 27 -75 27 -87 36 -157 119 -33 38 -66 47 -87 26 -9 -9 -37 1 -115
41 -57 29 -126 68 -155 86 -28 18 -82 45 -120 59 -37 15 -77 37 -88 49 -11 11
-30 30 -42 40 -23 19 -23 19 -23 -2z"/>
<path d="M2018 2443 c-8 -10 -25 -37 -38 -60 -21 -39 -85 -93 -110 -93 -14 0
-43 -47 -35 -60 9 -14 36 -12 58 5 15 10 26 11 50 3 28 -10 32 -9 53 17 l23
28 35 -26 c19 -15 55 -31 79 -36 25 -4 62 -21 83 -38 22 -17 55 -36 74 -43 79
-29 227 -95 252 -112 15 -10 51 -29 81 -42 79 -35 117 -71 117 -109 0 -18 9
-47 20 -65 26 -43 54 -40 58 6 2 22 16 45 41 70 21 20 42 47 45 58 4 12 33 40
66 62 48 32 74 42 137 51 115 17 182 64 95 67 -80 3 -148 30 -202 80 -16 15
-46 26 -85 33 -33 5 -87 19 -119 30 -33 12 -64 21 -69 21 -18 0 36 -51 74 -71
38 -19 129 -115 129 -135 0 -9 -103 -94 -114 -94 -2 0 -23 16 -46 35 -23 19
-60 40 -83 46 -45 12 -110 71 -139 127 -18 33 -38 43 -38 18 0 -30 -23 -26
-103 17 -45 24 -118 55 -162 68 -89 26 -151 76 -157 126 -2 22 -9 29 -29 31
-15 2 -31 -4 -41 -15z"/>
<path d="M3918 2223 c-2 -10 -1 -34 4 -53 4 -19 5 -43 2 -52 -8 -28 5 -21 16
8 l10 26 58 -53 c31 -29 66 -66 77 -81 11 -15 26 -28 33 -28 7 0 28 -15 47
-32 18 -18 49 -48 69 -65 35 -33 91 -113 114 -166 19 -44 15 -95 -8 -109 -23
-15 -28 -68 -6 -68 7 0 25 9 40 21 30 24 31 41 12 149 -13 75 -22 92 -107 203
-12 16 -40 40 -63 54 -22 14 -62 44 -87 67 -25 23 -76 67 -112 99 -40 34 -67
66 -67 78 0 24 -27 25 -32 2z"/>
<path d="M1540 2201 c-6 -12 -7 -21 -1 -21 10 0 24 30 17 37 -2 3 -9 -5 -16
-16z"/>
<path d="M4481 2072 c-1 -19 -5 -22 -22 -17 -15 5 -19 4 -15 -4 4 -6 14 -11
21 -11 12 0 107 -41 188 -82 35 -17 155 -58 171 -58 10 0 14 5 11 10 -3 6 -1
10 6 10 24 0 -5 16 -63 34 -31 10 -63 16 -71 13 -8 -3 -48 11 -88 31 -41 20
-85 39 -99 42 -15 3 -27 15 -31 30 -7 25 -7 25 -8 2z"/>
<path d="M1842 1998 c-70 -103 -75 -134 -37 -216 31 -67 31 -71 0 -42 -14 13
-25 19 -25 14 0 -6 18 -27 40 -48 29 -27 39 -44 35 -57 -5 -14 -2 -17 9 -13
10 4 18 0 22 -10 4 -10 18 -16 37 -16 31 0 110 -44 158 -87 14 -13 57 -35 94
-49 49 -17 78 -35 97 -59 23 -28 33 -33 51 -26 12 4 72 6 134 3 l112 -5 41 33
c46 36 59 59 96 160 23 65 25 98 4 85 -4 -3 -28 18 -52 46 -23 29 -63 72 -87
98 -24 25 -50 56 -58 67 -9 15 -29 24 -61 29 -66 10 -99 30 -121 73 -30 59
-42 66 -85 45 -32 -15 -42 -15 -79 -4 -23 8 -99 16 -168 18 l-127 5 -30 -44z
m137 -63 c22 -13 42 -33 46 -45 4 -14 15 -20 33 -20 58 2 191 -35 285 -78 46
-21 57 -30 53 -45 -4 -15 -2 -16 10 -6 11 9 22 4 54 -25 33 -30 47 -36 85 -36
38 0 50 -5 81 -36 31 -32 35 -41 31 -71 -8 -44 -23 -63 -53 -63 -13 0 -34 -5
-48 -11 -19 -9 -40 -9 -83 0 -103 20 -131 31 -182 71 -28 22 -61 40 -74 40
-25 0 -43 16 -62 54 -7 13 -21 21 -37 22 -15 1 -39 9 -54 19 -15 9 -43 19 -62
21 -62 6 -97 24 -130 66 -42 55 -42 90 2 134 41 41 54 42 105 9z"/>
<path d="M4432 1898 c-17 -17 -15 -32 7 -52 17 -16 19 -15 34 8 15 22 15 25
-2 40 -21 19 -24 19 -39 4z"/>
<path d="M4154 1799 c8 -107 29 -179 58 -206 20 -18 21 -18 13 7 -4 14 -15 41
-25 60 -19 38 -46 192 -36 209 4 5 1 13 -5 17 -9 5 -10 -16 -5 -87z"/>
<path d="M1570 1786 c0 -15 7 -54 14 -85 8 -31 18 -90 21 -131 7 -80 20 -101
45 -72 23 27 96 21 145 -12 21 -14 43 -26 50 -26 6 0 20 -9 29 -19 10 -11 32
-23 50 -27 17 -3 36 -11 43 -16 7 -5 35 -15 62 -23 56 -15 192 -94 187 -110
-2 -6 -55 -10 -132 -11 -71 0 -133 -2 -139 -4 -5 -2 -25 4 -43 13 -49 27 -119
37 -133 21 -13 -15 -42 -17 -113 -8 -41 6 -55 15 -115 76 -64 65 -70 68 -80
50 -8 -15 -8 -36 1 -74 6 -29 11 -86 12 -125 0 -40 2 -73 5 -73 3 0 44 -7 90
-15 108 -19 195 -57 187 -82 -5 -15 1 -18 38 -19 27 -1 56 -9 73 -22 15 -11
46 -27 67 -36 22 -9 85 -45 141 -81 56 -36 107 -65 113 -65 17 0 92 -49 90
-58 -2 -4 9 -19 22 -33 14 -15 35 -39 47 -53 49 -59 83 -5 39 61 -14 21 -28
50 -31 65 -8 31 -31 53 -90 88 -24 14 -83 49 -131 79 -48 30 -107 62 -133 71
-33 13 -47 24 -49 40 -4 22 -2 22 80 16 111 -9 135 -14 142 -32 8 -21 46 -17
72 7 19 18 38 21 132 25 77 3 134 12 189 28 109 34 125 41 151 69 23 25 24 25
4 36 -15 8 -35 6 -78 -6 -105 -30 -180 -18 -256 42 -24 19 -47 35 -52 35 -30
0 -216 97 -247 128 -59 60 -68 65 -173 92 -130 33 -160 51 -185 112 -16 39
-25 48 -45 48 -27 0 -76 54 -101 112 l-14 33 -1 -29z"/>
<path d="M3424 1475 c2 -5 12 -9 24 -8 32 4 48 -22 32 -52 -7 -14 -11 -28 -7
-31 3 -3 13 9 23 27 11 23 13 34 5 37 -7 2 -8 9 -1 22 9 17 6 18 -35 17 -25
-1 -43 -6 -41 -12z"/>
<path d="M3360 1404 c0 -8 5 -12 10 -9 6 3 10 10 10 16 0 5 -4 9 -10 9 -5 0
-10 -7 -10 -16z"/>
<path d="M3407 1384 c-14 -18 -26 -24 -45 -22 -21 2 -28 -3 -36 -25 -7 -20 -6
-30 3 -40 11 -10 15 -9 19 2 3 8 22 32 43 52 22 21 39 43 39 49 0 14 -3 13
-23 -16z"/>
<path d="M3505 1390 c-3 -5 -2 -10 4 -10 5 0 13 5 16 10 3 6 2 10 -4 10 -5 0
-13 -4 -16 -10z"/>
<path d="M3597 1373 c-8 -13 12 -63 25 -63 5 0 6 5 3 11 -4 6 -10 22 -14 37
-4 16 -10 22 -14 15z"/>
<path d="M3455 1350 c-3 -5 -1 -10 4 -10 6 0 11 5 11 10 0 6 -2 10 -4 10 -3 0
-8 -4 -11 -10z"/>
<path d="M3516 1318 c-11 -42 -5 -53 9 -19 18 39 18 41 6 41 -5 0 -11 -10 -15
-22z"/>
<path d="M3245 1310 c4 -6 11 -8 16 -5 14 9 11 15 -7 15 -8 0 -12 -5 -9 -10z"/>
<path d="M5207 1289 c-87 -20 -149 -67 -178 -133 -18 -41 -23 -70 -23 -147 -1
-87 -3 -99 -28 -137 -16 -23 -28 -44 -28 -47 0 -4 42 -4 93 -1 129 7 126 6
132 17 4 5 14 9 25 9 10 0 32 16 49 35 29 34 32 35 54 20 30 -19 105 -30 151
-21 45 9 47 32 6 79 -35 40 -46 66 -54 132 -6 50 -19 67 -85 115 -11 8 -23 27
-25 42 -9 51 -16 54 -89 37z"/>
<path d="M3410 1268 c0 -19 2 -20 10 -8 13 19 13 30 0 30 -5 0 -10 -10 -10
-22z"/>
<path d="M3573 1278 c-14 -18 -25 -80 -13 -73 6 3 10 15 10 26 0 11 5 29 10
40 12 21 8 25 -7 7z"/>
<path d="M3525 1240 c-3 -5 -1 -10 4 -10 6 0 11 5 11 10 0 6 -2 10 -4 10 -3 0
-8 -4 -11 -10z"/>
<path d="M3478 1220 c-7 -24 -3 -38 8 -28 3 4 4 17 2 30 l-3 23 -7 -25z"/>
<path d="M3368 1208 c9 -9 15 -9 24 0 9 9 7 12 -12 12 -19 0 -21 -3 -12 -12z"/>
<path d="M3637 1203 c-4 -3 -7 -13 -7 -22 1 -13 3 -13 11 2 11 19 8 33 -4 20z"/>
<path d="M3646 1124 c-9 -22 3 -32 14 -14 12 19 12 30 1 30 -5 0 -12 -7 -15
-16z"/>
<path d="M3687 1093 c-4 -3 -7 -11 -7 -17 0 -6 5 -5 12 2 6 6 9 14 7 17 -3 3
-9 2 -12 -2z"/>
<path d="M3486 1055 c-3 -8 -1 -15 3 -15 5 0 11 7 15 15 3 8 1 15 -3 15 -5 0
-11 -7 -15 -15z"/>
<path d="M3556 1005 c-9 -26 -7 -32 5 -12 6 10 9 21 6 23 -2 3 -7 -2 -11 -11z"/>
<path d="M6156 403 c-6 -14 -5 -15 5 -6 7 7 10 15 7 18 -3 3 -9 -2 -12 -12z"/>
<path d="M7000 346 l0 -75 -37 -4 -38 -4 43 -1 42 -2 0 80 c0 44 -2 80 -5 80
-3 0 -5 -33 -5 -74z"/>
<path d="M6758 335 c-2 -41 0 -75 5 -75 4 0 7 34 7 75 0 41 -2 75 -4 75 -3 0
-6 -34 -8 -75z"/>
<path d="M6158 315 c-1 -30 0 -55 5 -55 4 0 7 25 7 55 0 71 -7 71 -12 0z"/>
<path d="M6233 363 c-17 -3 -23 -11 -22 -31 0 -27 0 -27 11 -4 6 12 17 22 25
22 7 0 13 5 13 10 0 6 -1 9 -2 9 -2 -1 -13 -4 -25 -6z"/>
<path d="M6362 339 c-2 -43 -19 -66 -52 -72 -21 -4 -20 -4 7 -6 40 -1 56 24
50 77 l-4 37 -1 -36z"/>
<path d="M6433 363 c-23 -3 -33 -9 -32 -21 0 -11 3 -12 6 -4 2 6 18 12 34 12
16 0 29 5 29 10 0 6 -1 9 -2 8 -2 0 -18 -3 -35 -5z"/>
<path d="M6583 363 c-16 -3 -23 -11 -23 -29 0 -13 5 -24 10 -24 6 0 10 6 8 14
-2 8 6 22 17 30 11 9 18 15 15 14 -3 0 -15 -3 -27 -5z"/>
<path d="M6080 336 c0 -14 4 -28 10 -31 6 -4 7 1 3 11 -4 11 1 22 12 30 18 13
18 14 -3 14 -17 0 -22 -6 -22 -24z"/>
<path d="M6281 340 c0 -14 4 -32 9 -40 9 -13 10 -13 9 0 -1 8 -5 26 -9 40 l-8
25 -1 -25z"/>
<path d="M6637 353 c-4 -3 -7 -18 -6 -32 l1 -26 9 27 c6 15 18 29 27 31 13 4
12 5 -4 6 -11 0 -24 -2 -27 -6z"/>
<path d="M6806 345 c-7 -19 3 -19 28 0 19 15 19 15 -1 15 -11 0 -23 -7 -27
-15z"/>
<path d="M6927 353 c-4 -3 -7 -18 -6 -32 l1 -26 9 27 c6 15 18 29 27 31 13 4
12 5 -4 6 -11 0 -24 -2 -27 -6z"/>
<path d="M7047 353 c-4 -3 -7 -18 -6 -32 l1 -26 9 27 c6 15 18 29 27 31 13 4
12 5 -4 6 -11 0 -24 -2 -27 -6z"/>
<path d="M6880 330 c0 -17 -7 -20 -41 -20 -22 0 -38 -4 -35 -8 2 -4 23 -6 45
-4 35 4 41 7 41 28 0 13 -2 24 -5 24 -3 0 -5 -9 -5 -20z"/>
<path d="M6708 301 c-10 -19 -26 -31 -45 -34 -27 -4 -27 -4 4 -6 25 -1 37 5
49 24 9 13 14 29 12 34 -1 6 -10 -3 -20 -18z"/>
<path d="M7118 301 c-10 -19 -26 -31 -45 -34 -27 -4 -27 -4 4 -6 25 -1 37 5
49 24 9 13 14 29 12 34 -1 6 -10 -3 -20 -18z"/>
<path d="M6408 303 c6 -2 18 -2 25 0 6 3 1 5 -13 5 -14 0 -19 -2 -12 -5z"/>
<path d="M6461 286 c-7 -8 -27 -17 -44 -19 -32 -4 -32 -4 4 -5 33 -2 70 20 57
33 -3 3 -11 -1 -17 -9z"/>
<path d="M6840 270 l-35 -7 38 -2 c20 0 37 4 37 9 0 6 -1 9 -2 9 -2 -1 -19 -5
-38 -9z"/>
<path d="M6098 263 c7 -3 16 -2 19 1 4 3 -2 6 -13 5 -11 0 -14 -3 -6 -6z"/>
<path d="M6228 263 c7 -3 16 -2 19 1 4 3 -2 6 -13 5 -11 0 -14 -3 -6 -6z"/>
<path d="M6578 263 c7 -3 16 -2 19 1 4 3 -2 6 -13 5 -11 0 -14 -3 -6 -6z"/>
</g>
</svg>
