<svg width="1000" height="1000" viewBox="0 0 1000 1000" fill="none" xmlns="http://www.w3.org/2000/svg">
<path d="M720 968.412V486C720 473.729 712.527 462.695 701.131 458.142C689.736 453.588 676.717 456.434 668.261 465.326L496.462 645.98L332.169 465.787C323.823 456.635 310.711 453.551 299.162 458.026C287.612 462.501 280 473.614 280 486V968.412C139.467 953.443 30 834.505 30 690V310C30 159.989 147.967 37.5313 296.194 30.3344L472.92 243.165C478.55 249.945 486.876 253.907 495.688 253.998C504.501 254.09 512.908 250.302 518.677 243.64L703.431 30.3165C851.834 37.325 970 159.863 970 310V690C970 834.505 860.533 953.443 720 968.412Z" stroke="white" stroke-width="60" stroke-linejoin="round"/>
</svg>
