<svg width="1384" height="647" viewBox="0 0 1384 647" fill="none" xmlns="http://www.w3.org/2000/svg">
<path d="M1291.85 346.357C1289.88 346.56 1287.79 346.82 1287.31 347.049C1286.82 347.279 1283.96 347.168 1280.93 346.695C1277.9 346.222 1271.33 346.699 1266.3 347.621C1261.28 348.544 1254.11 349.01 1250.48 348.526C1242.98 347.674 1235.71 347.601 1228.78 348.25C1226.27 348.563 1222.47 347.718 1220.22 346.425C1218.04 345.252 1214.95 344.659 1213.39 345.108C1211.71 345.614 1208.39 344.54 1205.03 342.153C1199.61 338.535 1196.09 338.59 1198.53 342.153C1199.23 343.001 1201.27 346.02 1203.06 348.856C1204.98 351.634 1208.56 354.8 1210.99 355.858C1215.72 358.032 1216.45 360.49 1212.97 361.56C1209.97 362.4 1212.7 369.666 1216.83 372.127C1220.85 374.347 1222.69 377.899 1220.41 378.991C1218.84 379.737 1218.65 383.67 1219.95 391.029C1220.27 392.944 1219.71 397.347 1218.75 400.908C1217.62 404.405 1217.13 408.035 1217.59 408.997C1218.05 409.96 1218.3 412.946 1218.19 415.509C1217.94 419.321 1218.34 420.461 1219.71 420.248C1223 420.009 1223.46 424.371 1220.82 431.54C1218.93 436.873 1218.6 442.055 1219.49 451.971C1220.66 466.485 1219.66 472.43 1215.45 474.441C1211.48 476.337 1210.37 474.945 1210.14 467.963C1210.04 463.727 1208.19 457.073 1204.83 448.484C1201.98 441.275 1199.66 434.256 1199.74 432.885C1199.72 430.977 1197.73 428.674 1192.62 424.764C1187.91 421.1 1184.76 417.584 1182.97 413.854C1180.62 408.921 1180.57 408.204 1183.68 404.802C1185.38 402.805 1187.04 400.39 1187.05 399.496C1187.19 398.544 1189.07 396.908 1191.23 395.874C1193.52 394.783 1195.52 392.791 1195.91 391.427C1196.29 390.062 1197.57 388.415 1198.77 387.841C1199.98 387.266 1201.15 385.379 1201.41 383.774C1201.74 381.991 1203.46 379.696 1205.27 378.536C1209.97 375.699 1208.6 372.216 1200.08 365.5C1196.31 362.569 1192.2 358.916 1191.04 357.404C1184.39 349.351 1163.37 344.316 1149.71 347.586C1140.13 349.798 1127.62 345.872 1123.09 339.17C1119.25 333.613 1113.41 330.048 1111.88 332.406C1111.2 333.467 1112.73 337.908 1116.06 344.887C1120.37 353.911 1122.12 356.328 1125.77 358.721C1128.95 360.747 1130.41 362.562 1130.96 365.256C1131.34 367.291 1132.06 370.345 1132.74 372.087C1133.31 373.887 1134.17 378.793 1134.57 383.034C1134.97 387.276 1136.31 395.65 1137.39 401.633C1138.58 408.454 1138.96 417.287 1138.16 425.204C1137.37 432.227 1137.2 438.665 1137.66 439.628C1138.12 440.59 1137.96 442.436 1137.4 443.738C1135.36 448.114 1135.13 457.235 1136.92 460.368C1138.43 462.901 1138.04 464.563 1134.54 470.225C1129.37 478.6 1128.88 482.527 1132.73 484.088C1134.21 484.711 1136.68 486.784 1138.02 488.657L1140.7 492.105L1150.21 487.269C1160.32 482.145 1161.6 480.498 1158.96 474.963C1158.21 473.399 1157.28 469.267 1156.74 465.679C1150.76 420.961 1150.81 421.379 1158.62 418.539C1163.3 416.895 1164.43 417.094 1167.54 419.894C1169.53 421.601 1172.5 425.949 1174.16 429.438C1178.59 438.703 1182.99 455.661 1181.91 459.279C1181.4 460.999 1181.59 463.567 1182.4 465.252C1184.23 469.102 1183.78 470.942 1180.43 475.056C1176.89 479.405 1178.24 483.783 1185.06 489.394C1187.94 491.713 1191.1 494.931 1191.97 496.438C1192.95 497.887 1195.66 500.143 1198.2 501.441C1200.8 502.86 1203.84 505.838 1205.28 508.548C1206.67 511.138 1209.83 514.356 1212.25 515.712C1215.85 517.686 1217.52 517.776 1221.13 516.053C1223.66 514.846 1226.5 512.453 1227.43 510.681C1229.03 507.847 1229.04 507.251 1226.62 506.193C1216.15 501.589 1209.61 493.479 1210 485.613C1210.18 481.979 1212.68 482.263 1214.52 486.113C1215.84 488.881 1216.26 488.829 1223 485.612C1229.62 482.452 1230.75 482.353 1235.84 484.354C1238.74 485.481 1242.11 487.272 1242.99 488.182C1243.92 489.213 1246.24 489.732 1248.22 489.231C1250.25 488.851 1253.53 488.911 1255.61 489.545C1257.56 490.237 1261.8 489.837 1264.86 488.819C1268.34 487.749 1273.06 487.716 1277.63 488.634C1286.19 490.459 1291.11 488.7 1289.09 484.787C1284.49 475.757 1282.57 466.478 1283.77 459.105C1285.22 451.617 1283.39 444.069 1280.96 446.411C1280.29 447.174 1279.21 450.792 1278.61 454.777C1277.73 460.069 1275.69 464.147 1270.07 471.559L1262.8 481.088L1255.29 480.534C1244.45 479.8 1241.64 477.303 1239.91 467.491C1238.22 458.395 1237.4 451.105 1237.6 446.576C1237.82 441.153 1242.21 426.204 1243.89 425.399C1246.66 424.078 1248.18 426.014 1247.62 430.119C1246.94 434.878 1248.35 435.977 1252.97 434.808C1255.84 434.026 1256.52 432.965 1256.84 428.676C1257.07 425.758 1258.08 422.318 1259.06 420.964C1260.65 418.727 1260.44 417.649 1257.01 412.339C1254.46 408.237 1253.27 405.114 1253.48 403.09C1253.83 400.711 1253.42 399.869 1251.82 399.303C1249.33 398.423 1246.88 402.254 1248.26 405.142C1248.78 406.225 1248.04 407.166 1246.24 407.73C1243.54 408.575 1242.96 407.968 1240.55 402.616C1236.31 393.414 1235.04 387.368 1236.52 381.789C1237.93 376.387 1248.08 362.378 1250.4 362.599C1251.18 362.673 1253.05 361.336 1254.75 359.637C1256.64 357.405 1258.21 356.658 1259.69 356.984C1260.76 357.361 1263.39 356.991 1265.43 356.313C1271.37 354.214 1275.2 360.069 1283.12 383.77C1284.64 388.509 1285.92 390.56 1288.1 391.733C1291.77 393.529 1292.57 391.814 1291.46 384.22C1290.45 377.463 1291.13 369.603 1293.04 362.779C1293.93 359.992 1294.79 354.998 1295.09 351.903L1295.67 346.009L1291.85 346.357ZM1174.33 364.793C1173.9 365.441 1174.17 366.639 1174.99 367.429C1175.76 368.099 1175.55 369.825 1174.62 371.299C1173.53 372.71 1173.02 374.43 1173.42 375.273C1173.82 376.115 1174.12 379.222 1173.95 382.26C1173.92 387.15 1174.09 387.809 1176.69 388.632C1179.06 389.569 1179.29 390.051 1178.54 392.184C1177.29 395.143 1171.58 400.824 1167.97 402.548C1166.41 403.294 1163.48 403.36 1161.35 402.904C1157.54 402.06 1157.43 401.819 1158.32 398.734C1159.97 393.218 1158.92 385.446 1155.66 377.991C1153.31 372.462 1152.77 369.47 1153.68 365.491C1154.93 358.834 1156.74 357.972 1166.14 359.098C1173.16 359.881 1176.11 362.022 1174.33 364.793Z" fill="white"/>
<path d="M1109.45 341.248C1107.32 340.195 1106.24 340.414 1102.37 343.445C1096.5 348.169 1084.79 352.726 1076.3 353.824C1066.56 355.078 1047.64 352.587 1043.7 349.593C1041.81 348.127 1039.59 345.642 1038.85 344.078C1038.1 342.513 1036.29 340.572 1034.75 339.828C1031.97 338.346 1031.85 338.404 1030.48 341.719C1028.74 345.802 1031.31 351.813 1037.05 357.642C1040.45 361.044 1040.84 362.184 1041.47 370.307C1042.78 386.969 1042.72 393.648 1041.44 398.097C1040.68 400.529 1040.4 403.028 1040.74 403.75C1041.09 404.472 1041.28 407.04 1041.24 409.425C1041.13 411.689 1041.27 417.536 1041.36 422.369C1041.57 427.144 1041.16 433.398 1040.63 436.311C1040.04 439.103 1040.09 442.623 1040.78 444.067C1041.42 445.39 1041.24 448.429 1040.3 450.797C1039.37 453.166 1039.02 455.843 1039.54 456.926C1040 457.888 1039.79 459.316 1039 460.137C1038.33 460.9 1038.17 463.342 1038.72 465.439C1039.94 470.471 1033.75 480.079 1025.41 486.13C1020.69 489.563 1019.47 491.032 1020.15 493.072C1021.62 497.392 1024.17 498.095 1027.22 494.87C1033.72 488.071 1057.75 485.168 1077.12 488.92C1083.12 490.043 1088.48 490.737 1089.32 490.335C1090.04 489.99 1092.89 490.698 1095.67 491.882C1101.89 494.381 1111.53 495.391 1117.47 493.889C1122.74 492.553 1122.17 491.052 1115.36 488.543C1107.89 485.902 1105.27 482.276 1105.7 475.127C1105.82 471.968 1105.36 467.905 1104.44 465.979C1102.43 461.768 1102.45 450.378 1104.48 447.194C1106.51 444.011 1106.05 443.048 1101.26 440.754C1099.13 439.702 1096.9 437.812 1096.32 436.609C1095.69 435.285 1094.75 434.553 1094.03 434.897C1093.43 435.185 1093.34 436.555 1093.97 437.878C1094.61 439.202 1095.72 439.997 1096.33 439.71C1097.05 439.366 1097.93 439.978 1098.39 440.941C1098.97 442.144 1098.05 443.32 1095.64 444.469C1092.76 445.848 1091.03 445.637 1088.14 443.617C1080.66 438.471 1082.73 443.101 1090.44 448.728C1093.44 450.989 1092.15 456.035 1085.64 466.532C1075.32 483.281 1066.74 482.35 1061.42 463.765C1060.46 460.527 1060.75 458.028 1062.52 455.555C1064.6 452.492 1064.63 451.299 1061.83 444.211C1058.98 437.003 1058.94 435.988 1061.49 430.19C1064.67 422.912 1067.44 420.995 1068.32 425.305C1069.35 430.87 1078.04 435.143 1083.46 432.558C1085.02 431.811 1084.98 430.796 1082.77 427.715C1081.32 425.601 1080.4 423.378 1080.83 422.729C1081.26 422.081 1081.12 419.932 1080.68 417.777C1080.12 415.679 1080.49 412.108 1081.48 409.859C1082.3 407.548 1082.76 405.112 1082.42 404.39C1082.07 403.668 1078.59 401.636 1074.69 399.955C1066.82 396.472 1063.04 397.835 1065.62 403.249C1067.46 407.099 1065.99 409.279 1063.47 406.49C1054.99 397.39 1055.42 380.639 1064.46 368.638C1069.23 362.224 1069.89 361.759 1076.48 360.388C1087.26 357.9 1087.73 358.267 1087.51 370.19C1087.21 380.383 1087.32 380.624 1091.37 384.156C1093.49 386.103 1096.81 389.981 1098.49 392.874C1101.74 398.121 1108.08 403.366 1110.36 402.572C1112.22 401.831 1109.6 395.402 1106.14 391.88C1102.45 388.175 1102.4 384.655 1105.93 370.705C1107.34 365.303 1108.48 358.406 1108.47 355.603C1108.58 352.742 1109.43 348.643 1110.37 346.572C1111.86 343.2 1111.69 342.541 1109.45 341.248Z" fill="white"/>
<path d="M1027.57 367.191C1026.27 366.332 1023.6 365.687 1021.63 365.89C1018.82 366.197 1018.12 365.647 1018.62 364.225C1019.81 360.847 1017.83 358.247 1011.51 355.209C1002.82 350.936 989.427 349.5 981.748 351.984C977.369 353.336 974.205 353.517 971.9 352.401L968.47 350.788L966.783 354.992C965.908 357.182 964.202 359.179 963.067 359.278C961.755 359.313 959.734 362.199 957.875 366.041C956.199 369.649 953.995 372.77 952.86 372.868C950.711 373.008 949.859 380.507 951.582 384.117C952.099 385.2 952.431 389.917 952.286 394.566C952.022 399.273 952.28 404.764 952.838 406.862C953.443 409.676 953.186 410.685 951.151 411.065C949.655 411.336 948.682 412.392 948.781 413.527C948.879 414.662 947.633 417.621 945.858 420.094C942.67 424.866 943.102 427.319 947.812 430.685C950.462 432.523 950.671 434.196 951.096 446.847C951.493 464.388 953.512 471.403 960.076 477.725C967.169 484.533 979.911 488.94 991.008 488.665C1005.09 488.444 1009.71 486.679 1012.45 480.646C1013.81 477.927 1015.28 475.449 1015.88 475.162C1016.49 474.875 1016.28 473.201 1015.47 471.517C1014.67 469.832 1014.12 467.139 1014.21 465.47C1014.35 461.417 1017.14 462.005 1017.42 466.006C1017.77 470.127 1020.71 472.268 1026.25 472.429C1031.68 472.647 1033.36 471.842 1032.33 469.676C1031.92 468.834 1032.08 466.988 1032.52 465.744C1033.51 463.794 1033.16 463.072 1029.81 460.387C1025.99 457.335 1026.05 457.158 1027.08 449.721C1027.63 445.616 1027.88 441.804 1027.65 441.323C1027.42 440.842 1028.28 436.444 1029.56 431.398C1031.75 422.671 1031.81 422.493 1028.44 421.299C1026.66 420.67 1022.24 421.007 1018.46 422.071C1014.86 423.199 1008.35 424.094 1003.93 424.133C999.581 423.994 994.377 424.853 992.331 425.83C989.082 427.381 988.951 428.035 990.355 432.831C991.137 435.708 993.665 441.002 995.87 444.382C999.407 449.933 999.631 450.713 997.632 452.406C995.937 453.806 996.025 455.537 998.066 461.36C1001.41 470.843 1001.35 474.122 998.112 478.477C995.421 482.125 995.421 482.125 988.138 479.249C984.112 477.625 980.338 475.29 979.649 473.847C977.695 469.756 976.628 446.477 978.148 441.614C979.028 439.126 979.334 435.434 978.833 433.457C978.453 431.422 978.559 428.859 979.12 427.558C979.738 426.376 979.828 424.708 979.368 423.745C978.276 421.459 983.58 411.835 985.971 411.58C987.404 411.487 987.849 409.944 987.543 407.136C987.132 403.49 986.494 402.465 983.948 401.464C982.233 400.658 979.964 400.855 978.875 401.67C976.693 403.598 973.791 402.472 972.894 399.355C972.617 398.157 973.243 393.278 974.58 388.65C976.687 380.995 976.651 379.683 973.82 374.681C970.816 369.319 970.879 369.141 974.473 368.312C976.691 367.696 978.386 366.296 978.889 364.873C980.272 360.962 982.725 360.53 989.962 362.689C994.113 363.958 997.272 364.075 998.125 363.077C1000.19 360.908 1006.03 361.372 1005.81 363.694C1005.67 364.645 1007.33 368.731 1009.34 372.644C1012.91 379.508 1012.97 379.926 1010.63 386.802C1008.31 393.379 1008.35 394.394 1011.22 400.708C1013.97 406.484 1014.85 407.394 1017.78 407.328C1023.08 407.305 1024.87 403.939 1024.94 393.861C1024.94 387.062 1025.91 382.905 1028.44 378.598C1031.95 372.638 1031.75 370.07 1027.57 367.191Z" fill="white"/>
<path d="M943.36 337.807C938.224 338.19 933.086 341.973 930.913 346.705C928.991 350.725 928.2 351.546 926.182 351.032C924.341 350.581 923.321 350.92 922.756 352.52C922.012 354.057 920.511 354.626 917.404 354.928C912.325 355.432 909.296 358.06 911.465 360.127C912.52 361.101 912.012 362.821 909.578 365.46C905.742 369.804 905.898 371.059 910.854 374.012C914.038 376.038 914.325 376.64 915.445 383.936C916.928 394.161 916.996 410.086 915.432 410.832C913.988 411.522 906.118 395.038 907.222 393.328C908.39 391.441 903.726 382.291 900.485 380.145C899.131 379.166 895.769 377.077 893.292 375.601C890.814 374.124 886.826 370.414 884.375 367.447C881.459 363.815 877.988 361.188 873.9 359.742C852.693 351.841 842.341 347.18 840.303 344.459C838.96 342.884 837.371 341.722 836.89 341.952C835.085 342.814 835.406 348.127 837.531 352.579C838.623 354.865 839.233 357.381 838.683 358.087C838.191 358.913 839.236 360.482 841.531 362.194C844.003 363.969 844.928 365.596 844.551 366.662C843.796 368.796 846.367 371.705 849.285 371.937C852.381 372.232 852.991 374.748 851.376 381.577C850.657 385.023 850.352 388.715 850.869 389.798C853.224 394.731 854.544 407.398 853.785 416.33C852.963 425.44 852.592 426.208 849.176 427.1C846.78 427.653 845.749 428.589 846.089 429.609C846.433 430.331 846.94 432.01 847.159 433.087C847.377 434.165 847.93 436.56 848.316 438.297C848.759 440.154 848.161 443.542 847.046 445.848C845.375 449.157 845.463 450.888 847.312 454.142C849.276 457.637 849.175 459.902 846.737 469.34C843.859 480.022 842.692 481.909 836.178 485.906C832.317 488.34 833.994 491.234 839.181 491.268C843.653 491.35 852.515 486.084 851.539 484.039C851.194 483.317 852.164 479.16 853.621 474.475C855.015 469.967 856.081 463.844 856.073 461.041C855.705 455.011 860.068 444.654 863.678 442.93C865.122 442.241 867.342 438.226 868.851 433.959L871.497 426.195L868.04 426.072C866.074 425.977 864.108 425.881 863.752 425.756C862.387 425.373 864.488 411.515 866.263 409.043C867.854 406.806 868.691 406.702 870.876 407.874C872.293 408.676 874.107 410.617 874.853 412.181C875.6 413.745 879.452 418.408 883.434 422.416C887.416 426.425 892.37 432.777 894.271 436.45C897.447 442.173 897.77 444.087 896.841 449.259C895.518 456.392 895.784 458.186 898.946 461.404C900.352 462.801 901.145 465.082 901.165 467.289C900.996 470.029 902.202 472.556 906.789 479.379C913.822 489.466 922.599 495.47 935.064 498.679C947.708 501.951 957.279 500.336 947.685 496.643C945.317 495.705 942.781 494.108 942.201 493.203C941.444 492.235 938.908 490.638 936.482 489.58C929.67 487.071 928.469 484.246 931.599 479.353C934.672 474.34 933.044 468.764 927.894 466.642C925.113 465.459 924.883 464.977 924.871 459.073C924.994 455.616 924.772 451.437 924.501 449.941C924.293 448.268 924.64 445.59 925.389 443.755C926.138 441.92 926.359 439.598 925.899 438.636C925.497 437.793 926.033 434.583 927.222 431.503C928.348 428.601 929.048 422.948 928.642 419.005C928.237 415.061 928.198 410.647 928.644 409.105C929.089 407.562 929.176 402.793 928.896 398.494C928.617 394.195 928.829 389.07 929.401 387.172C929.972 385.274 930.231 380.865 929.878 377.34C929.645 373.758 930.396 368.523 931.465 365.501C932.712 362.542 933.865 358.15 934.207 355.77C934.627 352.319 935.904 350.97 941.576 347.376C947.608 343.609 948.158 342.904 946.951 340.377C946.204 338.813 944.615 337.651 943.36 337.807Z" fill="white"/>
<path d="M793.163 358.988C789.979 356.962 787.48 356.678 781.852 357.887C775.267 359.258 774.241 359.896 772.335 363.022C770.493 365.97 770.591 367.105 772.629 369.826C774.73 372.369 774.713 373.263 772.767 375.375C770.213 378.072 766.9 389.7 766.764 397.153C766.658 399.715 765.598 405.541 764.387 409.813C763.113 414.262 762.119 423.011 761.885 429.328C761.678 440.656 759.896 446.826 752.717 461.187C750.732 465.385 747.626 472.187 745.939 476.391C743.006 483.554 742.456 484.259 734.504 488.647C725.108 493.724 724.376 494.665 727.067 497.517C728.473 498.915 730.617 499.073 734.456 497.831C738.233 496.766 742.704 496.848 748.048 498.138C754.757 499.81 756.368 499.78 757.237 497.888C758.164 496.115 757.428 493.955 754.764 489.612C751.232 483.763 751.232 483.763 754.554 474.938C756.492 470.023 758.808 464.042 759.928 461.438L761.798 456.999L767.785 459.016C771.163 460.211 775.298 462.374 777.002 463.776C780.697 467.183 782.078 466.672 784.268 461.046C785.326 458.62 787.169 455.672 788.503 454.444C790.748 452.337 790.983 452.521 791.922 456.653C792.532 459.169 793.952 463.071 795.044 465.357C799.295 474.261 817.442 506.08 818.796 507.059C819.622 507.551 821.473 507.406 823.038 506.659C825.324 505.568 825.523 504.438 823.901 498.564C822.33 493.109 822.425 491.142 824.687 488.142L827.32 484.373L818.48 462.146C813.572 450.009 808.801 436.921 807.977 433.03C805.265 421.47 810.037 418.158 812.99 429.603C813.945 432.84 815.34 434.834 817.64 436.247C821.592 438.645 823.533 436.832 820.251 433.671C818.96 432.514 814.958 426.299 811.26 419.79C804.673 408.16 804.615 408.04 805.013 399.28C805.22 394.453 805.009 389.679 804.492 388.596C803.975 387.513 802.588 381.822 801.384 375.896C798.756 362.966 798.469 362.364 793.163 358.988ZM790.972 430.216C793.921 438.559 792.716 442.533 784.761 450.32C778.388 456.466 776.651 456.852 769.975 453.391C767.434 452.092 765.798 450.213 765.418 448.179C763.781 439.8 772.679 396.545 776.131 396.965C777.381 397.108 785.689 415.747 790.972 430.216Z" fill="white"/>
<path d="M731.228 357.383C728.827 358.234 723.811 358.56 720.067 357.836C716.203 357.169 709.289 356.924 704.572 357.256C696.811 357.711 695.446 357.328 691.401 353.498C686.827 349.18 685.096 349.268 683.038 354.24C680.67 359.803 665.041 363.276 655.018 360.23C641.967 356.415 634.602 358.01 635.796 364.532C636.124 366.149 637.864 368.864 639.62 370.685C642.432 373.48 642.656 374.259 641.434 379.127C640.606 382.034 640.254 385.01 640.541 385.611C640.828 386.213 639.853 390.668 638.27 395.709C634.837 407.395 633.634 414.47 634.726 416.756C636.449 420.366 640.305 418.229 645.09 410.921C649.257 404.795 649.765 403.074 648.586 399.057C647.798 396.478 647.879 392.007 648.53 389.037C649.358 386.13 649.71 383.154 649.423 382.553C649.193 382.071 649.885 380.116 650.932 378.286C652.655 375.395 653.497 374.993 660.782 374.47C670.16 373.686 677.276 375.903 676.144 379.103C675.704 380.347 676.194 382.921 677.228 385.086C680.043 390.982 679.734 407.974 676.767 410.424C674.648 412.175 674.746 413.31 677.195 419.676C679.419 425.263 679.887 429.029 678.978 436.407C678.399 442.003 678.875 448.572 679.934 452.646C682.408 460.921 681.841 472.421 678.877 477.973C675.919 483.227 676.15 490.209 679.224 491.697C680.525 492.257 682.339 494.198 683.258 496.124C685.734 500.999 687.3 513.254 686.193 518.362C684.829 524.48 686.109 526.233 689.683 523.197C691.745 521.326 692.642 517.943 693.28 509.069C693.872 499.478 694.632 497.046 696.918 495.955C700.648 494.174 700.839 490.241 697.507 483.262C695.209 478.45 695.179 476.839 697.259 470.674C698.774 466.11 699.085 462.12 698.072 458.761C697.405 456.125 697.194 451.35 697.907 448.202C699.355 440.714 699.709 427.839 698.556 415.831C698.115 410.574 698.193 403.002 698.624 398.954C699.234 394.97 699.419 391.335 699.189 390.854C698.557 389.53 701.949 376.829 703.032 376.312C703.634 376.025 704.503 374.132 704.954 372.292C705.793 368.788 706.154 368.616 711.955 367.767C717.933 366.982 718.111 367.045 720.759 372.281C728.18 387.207 737.904 400.146 740.029 398.098C741.547 396.634 740.104 387.424 737.467 381.591C736.266 378.766 735.595 373.028 735.824 367.009C736.042 361.586 736.071 356.696 735.899 356.335C735.726 355.974 733.572 356.412 731.228 357.383Z" fill="white"/>
<path d="M578.286 329.492C575.901 329.448 574.813 330.263 573.148 333.275C567.289 343.903 553.157 353.605 533.53 360.464C526.327 363.017 524.476 363.162 522.124 361.33C519.359 359.252 519.118 359.367 517.453 362.378C516.034 364.976 516.242 366.65 518.885 372.185C520.665 375.915 522.477 381.256 522.846 383.887C523.736 390.701 524.417 412.243 524.182 428.461C524.167 435.856 524.403 442.539 524.862 443.502C526.126 446.149 525.388 486.69 524.073 490.125C523.267 491.84 520.697 495.431 518.32 498.191C514.604 502.476 513.347 506.032 514.553 508.559C514.668 508.799 518.995 507.029 524.168 504.559C549.734 492.5 561.669 492.121 578.889 502.812C584.493 506.194 589.637 508.613 590.244 508.028C592.306 506.157 591.585 496.602 588.86 489.038C587.383 485.015 585.238 478.356 584.236 474.402C583.235 470.448 581.774 465.531 580.797 463.485C579.998 461.502 579.325 459.164 579.341 458.27C579.536 457.439 579.103 454.986 578.608 452.71C578.17 450.555 578.235 446.978 578.927 445.023C579.687 442.591 579.593 441.158 578.521 441.079C576.497 440.864 573.017 445.333 573.764 446.897C574.108 447.619 573.39 451.065 572.367 454.803C571.288 458.422 570.84 463.363 571.455 465.581C572.618 470.493 568.309 477.869 560.44 484.286C556.081 487.845 554.82 488.299 549.277 488.138C541.526 487.997 540.235 486.841 538.714 478.702C535.728 462.545 535.248 452.875 537.328 446.711C538.585 443.155 539.211 438.276 539.019 435.708C538.094 427.581 543.484 429.587 544.765 437.841C545.348 441.847 545.928 442.752 548.658 443.518C550.378 444.026 552.38 445.434 552.897 446.517C554.218 449.284 559.899 454.994 560.982 454.477C561.464 454.247 559.868 446.883 557.583 438.074C554.406 425.85 553.782 420.829 554.799 417.389C555.439 415.015 555.785 412.337 555.326 411.375C554.924 410.532 555.574 407.562 556.878 404.723C559.675 398.512 557.161 395.723 553.894 401.568C552.664 403.633 549.298 408.343 546.309 411.986C539.542 420.093 536.618 420.159 538.078 412.075C538.608 409.162 538.44 402.002 537.769 396.265C537.098 390.527 537.138 385.041 537.871 384.1C538.547 383.039 542.022 378.868 545.377 374.755C548.852 370.583 552.103 365.633 552.554 363.792C553.76 359.819 558.698 357.165 560.867 359.232C561.688 360.023 562.167 363.192 561.992 366.23L561.471 371.946L566.782 375.025C570.975 377.308 572.961 379.61 575.666 384.967C579.698 392.794 585.286 397.07 589.016 395.289C592.145 393.795 591.335 392.409 586.828 391.015C584.041 390.129 583.105 389.098 582.098 385.442C580.366 379.029 580.862 364.904 583.272 350.456C585.608 336.782 584.007 329.715 578.286 329.492Z" fill="white"/>
<path d="M508.425 340.684C507.222 341.259 505.882 342.785 505.619 344.092C504.329 349.436 488.283 359.462 485.529 356.787C484.588 356.055 483.343 355.615 482.501 356.017C480.696 356.878 479.932 366.108 481.499 368.463C482.137 369.488 481.601 372.699 480.24 375.418C475.217 385.942 474.017 389.618 474.936 391.543C475.454 392.626 475.101 395.601 474.216 398.388C473.152 401.112 471.118 407.993 469.582 413.75C467.989 419.387 465.867 424.537 464.905 424.996C462.859 425.973 457.391 415.138 453.675 403.024C452.501 398.708 450.356 392.05 448.994 388.267C445.308 377.764 444.408 371.545 446.193 368.476C446.994 367.059 447.645 364.089 447.625 361.882C447.548 359.555 448.481 357.485 449.804 356.853C451.128 356.221 451.683 355.217 450.92 354.547C450.162 353.579 447.285 354.362 442.953 356.43C433.929 360.739 428.104 359.678 424.348 353.05C421.804 348.65 417.841 346.848 417.426 350.001C417.404 351.194 419.571 356.66 423.086 363.404C424.925 367.254 424.657 368.86 421.649 370.296C419.724 371.215 419.65 371.989 421.343 373.988C422.801 375.803 423.231 381.656 422.929 394.95C422.625 405.142 422.268 414.916 422.178 416.585C422.088 418.253 422.441 421.778 422.931 424.351C423.922 428.902 423.859 429.08 418.272 431.304L412.565 433.586L415.128 440.192C419.451 451.722 419.491 462.636 415.325 475.263C413.182 481.606 411.394 488.074 411.424 489.685C411.239 493.319 419.539 509.155 421.39 509.01C423.064 508.802 422.037 502.938 419.468 496.63C417.526 491.943 417.903 490.876 427.141 471.542C431.42 462.555 432.531 450.648 430.582 433.258C428.372 413.775 429.752 406.763 434.134 415.013C447.62 440.784 451.207 450.153 454.814 468.229C458.15 484.81 458.714 486.609 461.26 487.61C465.343 489.354 466.47 486.452 465.033 476.943C464.351 471.802 464.81 466.264 466.707 460.335C468.226 455.472 469.319 447.858 469.16 443.502C469.008 435.448 475.093 415.699 477.525 416.459C478.115 416.768 479.377 422.814 480.141 429.985C482.351 449.467 485.865 466.111 490.135 477.221C492.297 482.986 494.847 493.589 496.175 502.558C498.439 519.06 501.054 526.085 504.735 526.987C507.763 527.758 508.047 525.258 505.956 515.618C503.986 505.921 504.545 498.119 508.145 487.091C511.683 476.242 511.376 473.433 503.345 446.092C500.089 434.94 499.339 430.275 500.06 423.429C500.945 414.142 500.555 402.804 498.98 387.746C498.419 382.547 498.481 375.869 499.011 372.956C499.541 370.044 499.904 366.472 499.748 365.217C499.655 363.784 502.017 358.519 505.273 353.27C511.174 343.657 512.395 338.789 508.425 340.684Z" fill="white"/>
<path d="M356.767 356.949C355.323 357.638 352.115 360.204 349.624 362.723C345.134 366.935 344.653 367.165 339.591 366.775C336.615 366.422 333.331 366.661 332.368 367.12C330.323 368.097 321.858 364.603 317.509 361.065L314.692 358.568L316.295 362.235C317.272 364.281 320.223 369.225 322.888 373.567C325.672 377.852 328.028 382.786 328.345 384.998C328.726 387.033 329.82 392.42 330.989 397.034C333.774 407.819 333.216 422.122 329.904 423.851C327.435 425.178 322.839 431.953 323.471 433.276C323.701 433.757 325.232 434.799 326.884 435.783C329.54 437.323 329.989 438.881 331.112 455.78C332.743 480.857 332.732 481.454 327.382 490.362C324.801 494.549 323.051 498.93 323.511 499.893C324.028 500.976 327.003 501.328 331.009 500.745C335.853 500.058 340.073 500.85 347.235 503.784C353.039 506.036 357.85 507.138 359.414 506.391C361.82 505.242 361.653 504.583 357.397 495.977C353.479 488.391 352.472 484.735 351.684 475.656C350.624 465.08 351.017 463.12 356.983 449.929C359.659 443.775 358.846 439.287 355.113 437.967C353.513 437.401 353.108 433.458 353.44 421.775C353.654 413.25 354.383 402.708 354.883 398.184C355.44 393.781 355.587 385.732 355.088 380.356C354.767 375.042 355.117 368.966 355.928 366.953C356.62 364.997 357.815 361.62 358.329 359.601C359.293 355.742 359.293 355.742 356.767 356.949Z" fill="white"/>
<path d="M286.216 366.698C284.553 366.309 280.328 365.815 276.813 365.572C270.914 365.286 260.74 360.687 259.304 357.679C258.5 355.995 251.179 355.206 250.074 356.915C248.907 358.802 250.698 361.936 254.008 363.606C256.073 364.837 256.825 366.103 257.241 369.45C257.646 373.394 257.997 373.818 262.331 374.851L267.022 376.01L265.904 381.715C265.191 384.862 265.334 390.113 266.111 393.288C267.066 396.526 267.146 401.955 266.307 405.458C265.525 409.082 265.135 414.144 265.384 416.832C266.433 428.004 266.994 449.603 266.385 453.587C266.043 455.967 265.825 461.39 265.985 465.746C266.312 477.263 264.163 483.903 259.591 486.086C257.425 487.12 254.453 489.869 252.919 492.227C249.239 497.825 251.208 501.022 256.973 498.861C259.735 497.837 263.307 498.201 267.751 499.772C271.364 501.15 275.819 502.126 277.315 501.855C278.988 501.647 284.023 503.528 288.566 506.234C295.174 510.172 297.871 512.725 302.573 519.789C311.225 532.649 320.729 538.011 316.092 527.37C311.857 517.572 311.2 507.839 314.114 498.469C314.999 495.682 314.599 491.441 313.201 486.346C311.907 482.088 310.489 474.787 309.974 470.304C309.523 465.644 308.825 461.397 308.537 460.796C307.503 458.63 304.469 468.057 304.246 473.778C304.142 479.442 297.819 495.907 295.413 497.055C294.33 497.573 278.185 490.062 277.553 488.739C277.439 488.498 278.157 485.052 279.122 481.193C280.087 477.334 280.488 471.676 279.889 468.564C278.747 462.46 282.112 451.25 287.184 444.543C290.121 440.482 290.175 437.501 287.167 438.937C283.557 440.66 282.717 437.663 283.295 425.567C283.598 418.774 283.134 408.209 282.171 402.168C280.186 389.966 282.641 379.634 288.312 376.039C290.844 374.535 291.284 373.29 290.376 370.769C289.755 368.849 288.114 367.269 286.216 366.698Z" fill="white"/>
<path d="M222.562 371.085C206.147 368.58 202.13 369.759 194.446 379.042C188.166 386.621 187.684 386.851 189.393 381.455C190.153 379.024 190.243 377.355 189.641 377.643C188.919 377.987 187.426 381.359 186.164 385.213C184.581 390.253 183.11 392.433 181.316 392.699C179.344 392.901 179.156 393.435 180.269 394.529C181.325 395.502 181.303 396.694 180.329 397.75C179.356 398.806 179.438 400.835 180.53 403.121C182.311 406.851 181.555 418.884 179.139 427.13C178.379 429.561 178.202 435.999 178.643 441.255C179.412 448.128 178.913 452.651 177.116 456.316C175.069 460.692 175.041 462.183 176.918 463.946C178.088 465.16 181.776 472.265 184.977 479.897L190.809 493.66L197.135 496.698C204.11 500.165 207.624 500.407 221.902 499.057C231.044 498.09 235.13 496.435 232.359 494.655C231.768 494.346 232.917 490.252 234.907 485.756C237.075 481.323 239.951 474.039 241.7 469.658C243.33 465.334 245.566 460.425 246.43 458.83C247.718 456.886 247.652 453.962 246.415 449.825C243.827 441.309 244.337 436.189 248.247 431.072C253.623 424.073 253.776 422.227 248.779 418.259C245.136 415.271 244.561 414.067 243.759 408.984C243.4 405.757 239.997 396.152 236.274 387.735L229.579 372.167L222.562 371.085ZM222.852 391.189C222.551 394.583 221.294 398.138 220.08 399.309C218.625 400.594 218.535 402.262 219.569 404.428C223.142 411.292 226.33 429.42 226.557 443.201C226.673 449.942 226.222 451.783 224.187 452.163C222.152 452.544 222.147 452.842 224.04 453.711C225.754 454.518 225.785 456.129 224.134 461.645C222.42 467.339 222.502 469.368 224.685 473.94C226.868 478.513 226.956 480.244 225.007 485.755C222.937 491.323 222.084 492.321 218.245 493.563C212.491 495.129 209.343 494.415 207.62 490.806C206.873 489.241 205.065 487.002 203.539 485.662C201.364 483.893 200.158 481.366 198.771 475.675C195.26 462.133 194.975 458.132 196.858 449.698C197.896 445.065 198.166 440.06 197.42 438.496C195.983 435.488 196.874 432.403 200.355 427.934C201.517 426.345 201.676 424.201 200.877 422.218C200.135 420.356 199.719 417.008 200.061 414.629C200.282 412.307 199.876 408.364 199.026 405.963C196.186 398.158 196.341 392.913 199.499 386.529C203.704 378.316 207.915 376.305 215.737 379.072C223.025 381.65 223.892 383.156 222.852 391.189Z" fill="white"/>
<path d="M181.427 350.537C179.623 351.398 175.332 354.481 172.004 357.104C168.734 359.848 162.209 364.44 157.448 367.157C148.225 372.595 146.445 375.365 151.37 376.707C155.94 377.924 159.412 387.052 158.256 394.844C157.778 398.175 157.598 401.511 158 402.353C158.345 403.075 158.067 405.277 157.38 406.934C156.631 408.769 156.451 412.106 157.004 414.501C157.62 416.719 157.749 419.465 157.549 420.594C157.35 421.724 157.755 425.667 158.344 429.376C159.756 436.975 158.063 457.878 155.851 458.195C155.014 458.299 151.488 452.152 146.944 442.945C142.865 434.402 139.063 427.057 138.478 426.45C137.95 425.963 137.523 423.212 137.572 420.529C138.005 413.082 135.187 404.085 132.458 403.32C129.906 402.617 127.999 399.243 125.003 390.183C123.37 384.905 123.649 382.703 127.541 371.98C131.686 360.545 131.702 359.651 128.962 359.481C126.697 359.381 124.17 360.587 120.115 363.853C116.971 366.241 110.399 370.117 105.764 372.478C100.951 374.776 97.0957 376.912 97.2681 377.273C97.4404 377.634 98.9535 382.97 100.634 388.964C104.552 403.05 104.978 415.701 101.51 416.175C99.4178 416.435 99.4016 417.329 101.407 421.839C102.838 425.145 103.541 429.094 102.953 431.886C102.492 434.323 102.347 438.972 102.471 442.016C102.652 445.18 101.939 454.828 100.825 463.635C99.7104 472.441 99.151 480.243 99.4956 480.965C100.472 483.011 98.8851 494.85 97.6873 495.126C97.0911 495.115 95.9182 497.301 94.9805 499.669C93.9799 502.215 92.2986 506.121 91.3035 508.369C87.0194 517.654 95.4701 518.643 100.884 509.557C102.606 506.666 105.291 503.316 106.924 502.093C110.194 499.35 111.52 495.318 112.342 486.209C112.647 482.517 113.469 473.407 114.321 465.908C115.174 458.409 115.635 449.472 115.224 445.826C114.892 441.109 115.411 438.792 117.222 437.633C119.639 435.887 119.754 436.128 123.743 446.339C129.037 460.212 129.814 463.387 128.05 465.263C125.983 467.432 128.647 471.775 133.029 473.524C136.286 474.776 137.738 476.89 143.62 487.971C148.404 497.063 152.762 503.405 157.847 509.103C168.199 520.265 169.961 521.788 174.823 523.308C179.153 524.639 179.21 524.759 179.385 521.721C179.486 519.457 178.096 517.165 174.182 512.681C164.54 501.77 161.675 492.057 164.529 479.465C165.436 475.486 166.04 471.799 165.753 471.198C164.029 467.588 165.015 439.636 166.964 434.125C170.794 423.579 170.879 422.209 168.095 408.024C164.598 390.486 165.04 385.842 170.944 379.33C174.717 375.164 175.283 373.564 174.134 371.158C172.583 367.909 176.265 358.911 181.808 352.571L184.974 348.991L181.427 350.537Z" fill="white"/>
<path d="M821.807 302.316C821.534 304.219 821.892 307.446 822.571 309.486L819.826 316.116L814.921 323.482C805.66 337.507 802.803 340.496 795.102 344.173C789.643 345.117 792.367 318.33 794.835 312.977C796.044 312.105 795.967 309.778 794.725 305.938C793.65 302.758 792.79 297.553 792.73 294.332L792.477 288.542L784.174 286.006C778.359 284.349 777.178 283.731 780.394 283.969C783.014 284.195 786.58 284.857 788.421 285.308C790.319 285.879 794.068 286.305 796.751 286.354C802.174 286.572 802.645 286.938 801.841 291.754C801.306 294.965 801.541 295.148 807.137 295.727C810.29 296.143 814.698 296.402 817.026 296.325C821.56 296.228 822.375 297.317 821.807 302.316Z" fill="white"/>
<rect x="93" y="263" width="1199" height="12" fill="white"/>
<rect x="93" y="549" width="1199" height="12" fill="white"/>
<path d="M555.067 214.792C553.733 214.658 550.267 214.525 547.333 214.525C542.533 214.392 541.467 213.725 535.333 206.392C527.733 197.192 523.067 187.858 522.4 180.658C522 175.725 522.133 175.592 527.067 174.392C529.733 173.725 532 172.658 532 172.125C532 171.592 529.867 171.725 527.333 172.525C524 173.458 521.333 173.458 517.733 172.258C511.467 170.392 506.667 166.792 509.067 165.858C513.733 164.125 521.867 159.192 522.267 157.858C522.667 156.792 519.733 156.125 513.067 155.858C505.2 155.592 503.333 155.058 503.6 153.458C503.867 152.125 502.933 151.325 501.333 151.192C499.067 150.925 498.8 151.592 499.467 154.258C500.267 157.325 500 157.592 497.2 157.192C491.467 156.392 492.533 151.858 500 144.125C504.8 139.192 506.4 136.658 505.467 135.725C504.667 134.925 504 131.458 504 128.125C504 122.525 504.533 121.458 511.467 114.792C515.467 110.792 520 105.192 521.467 102.525C524.533 96.525 522.933 95.725 519.6 101.592C518.133 104.125 516.533 105.458 515.467 105.058C513.067 104.125 510.133 107.458 511.333 109.458C511.867 110.258 509.467 113.858 506.133 117.458C500.933 123.058 499.867 123.725 498.8 121.725C498.133 120.525 494.8 118.392 491.467 117.192L485.2 114.925L484 117.992C483.333 119.725 482 121.458 481.067 121.858C480.133 122.258 481.867 122.925 484.933 123.458C491.733 124.658 491.2 126.792 484.133 126.792C478.4 126.792 473.733 129.592 475.333 131.992C476 133.192 478.267 133.458 482.8 132.792C489.6 131.858 491.467 133.192 486.4 135.458C482.533 137.192 481.067 142.392 484.8 140.792C486.267 140.258 488.8 139.458 490.533 139.058C493.2 138.525 493.6 138.792 492.933 140.658C492.4 141.992 492 144.392 492 145.992C492 147.725 490.4 150.125 488 151.858C483.733 155.058 474.933 157.592 476.4 155.192C476.933 154.258 475.067 153.458 471.6 152.925C468.4 152.392 462.267 150.925 457.733 149.592C449.467 147.058 445.333 147.725 445.333 151.458C445.333 155.058 442 153.458 438.667 148.392C435.6 143.858 435.333 143.725 434.933 146.525C434.533 148.792 433.6 149.458 430.667 149.458C428.533 149.458 426.533 148.925 426.133 148.258C425.733 147.592 427.867 143.992 430.8 140.258C435.467 134.392 436.933 133.458 440.8 133.458H445.467L443.2 137.592C441.467 141.058 441.333 141.992 442.933 142.925C446.4 145.192 446.933 143.992 446.4 135.858C446.133 129.058 446.4 127.458 448 127.458C449.6 127.458 450.133 125.458 450.4 118.525C450.8 110.125 452.133 107.058 453.733 111.192C454.133 111.992 454.4 107.192 454.267 100.392C454 86.925 452.267 83.0583 446.667 84.525C442.8 85.4583 442.4 83.8583 445.467 79.325C448.933 74.125 448.667 72.925 444.667 75.5917C442.8 76.7917 440.133 77.4583 438.667 77.0583C435.733 76.2583 434.933 78.125 437.733 79.1917C438.933 79.5917 438.8 80.7917 437.067 83.725C434.4 88.2583 434.933 89.4583 439.733 89.4583C443.067 89.4583 443.067 89.4583 440.533 92.2583C438 95.0583 437.867 99.4583 440.133 102.392C440.933 103.325 440.933 104.125 440.133 104.658C438.667 105.592 426 93.725 427.2 92.525C427.6 91.9917 429.2 92.7917 430.667 94.125C434 97.1917 435.467 95.9917 433.067 92.2583C431.2 89.0583 425.467 88.525 422.8 91.1917C421.467 92.525 421.2 92.125 421.6 89.5917C421.733 87.8583 423.067 85.8583 424.4 85.325C425.6 84.6583 427.733 83.5917 428.933 83.0583C430.133 82.3917 431.467 81.1917 431.733 80.125C432.267 78.7917 431.2 78.6583 427.333 79.325C419.067 80.925 418.933 77.5917 427.067 73.8583C432.533 71.325 434.533 70.925 437.067 71.9917C440.8 73.725 441.333 73.8583 441.333 72.125C441.333 71.4583 438.933 69.1917 436 67.325C430.133 63.4583 429.2 60.7917 433.333 59.4583C437.333 58.125 436.533 55.725 430.133 49.725C424.933 44.925 423.867 44.525 419.867 45.325C417.333 45.8583 415.6 46.7917 416 47.4583C416.267 48.2583 417.467 48.6583 418.4 48.3917C419.6 48.125 420 48.925 419.733 50.3917C419.467 51.9917 417.867 52.925 414.667 53.1917C409.733 53.725 405.333 56.6583 405.333 59.725C405.333 61.0583 406.4 60.7917 409.067 58.7917C412.133 56.525 413.467 56.2583 416.533 57.4583C420.8 59.0583 420.533 61.8583 416.133 62.525C413.867 62.925 413.333 63.5917 413.867 65.5917C416.533 73.9917 416.667 73.4583 411.467 73.4583C406 73.4583 404.667 76.6583 409.733 77.9917C411.867 78.525 412.133 79.0583 410.933 79.8583C409.6 80.7917 409.6 81.725 411.067 84.525L412.933 87.9917L415.733 85.1917C417.333 83.5917 418.933 82.6583 419.467 83.1917C421.2 84.7917 418.533 90.7917 415.2 92.925C411.2 95.5917 409.467 94.3917 405.6 86.6583C403.733 83.0583 402.533 82.125 399.333 82.125C395.733 82.125 395.333 81.5917 394.933 77.5917C394.533 73.8583 394.8 73.1917 396.667 73.9917C398.133 74.525 398.667 74.2583 398.4 73.1917C398 72.2583 396.4 71.1917 394.667 71.0583C392.8 70.7917 390 69.325 388.133 67.9917C385.6 65.8583 384.533 65.725 382.933 67.0583C381.2 68.525 381.333 68.7917 384.133 69.1917C387.733 69.725 392 73.0583 392 75.4583C392 77.325 383.733 85.4583 381.867 85.4583C380.4 85.4583 374.667 79.8583 374.667 78.3917C374.667 76.6583 377.733 77.4583 380.4 79.725C382.8 81.9917 382.933 81.9917 384.8 79.5917C387.067 76.3917 386.133 74.7917 381.867 74.7917C379.467 74.7917 378.133 73.725 376.8 70.6583C375.467 67.325 374.933 66.925 374.267 68.7917C373.733 69.9917 372.8 70.6583 372 70.125C369.733 68.7917 365.2 72.125 363.733 76.2583C362.267 80.525 357.867 81.5917 356.933 77.8583C356.533 76.525 356.267 78.2583 356.133 81.8583C356 86.525 356.533 88.125 357.867 88.125C361.2 88.125 361.733 90.925 358.8 92.925C355.067 95.5917 355.2 97.725 359.2 96.6583C364.133 95.4583 365.333 96.925 363.067 101.458C361.733 104.258 360.133 105.458 357.867 105.458C355.333 105.458 354 106.525 352.533 110.125C351.467 112.792 349.6 114.792 348.267 114.925C347.067 115.058 348.267 115.725 351.067 116.392C353.733 117.192 356 118.525 356 119.458C356 120.392 356.933 121.858 358 122.792C362 126.125 360.4 128.258 354.667 127.325C349.067 126.392 340.8 128.792 342.133 131.058C342.533 131.725 341.867 133.458 340.667 134.792C337.867 137.858 340 139.192 344.667 137.458C350.267 135.325 353.333 135.725 353.333 138.792C353.333 141.992 353.733 141.992 358.933 139.325C361.2 138.125 364.533 137.458 366.267 137.858C369.067 138.392 369.467 137.992 368.8 135.725C368.4 134.125 368.667 132.258 369.333 131.458C370.267 130.392 368.933 128.925 365.333 126.925C362.4 125.325 360 123.458 360 122.658C360 121.192 359.467 121.192 366.667 123.325C371.067 124.525 373.2 126.125 374.533 128.925C376.933 133.725 379.467 135.725 384.667 136.925C386.933 137.325 389.867 138.525 391.467 139.458C393.867 141.058 409.333 143.592 407.867 142.258C406.667 141.058 385.867 133.458 383.867 133.458C382.667 133.458 379.333 130.525 376.267 126.925C371.333 121.058 370.267 120.525 365.2 120.525C361.2 120.525 359.067 119.725 357.733 117.992C355.2 114.525 356.133 113.058 362.267 110.925C367.467 109.058 367.733 109.192 372.4 112.925C375.6 115.458 377.067 117.592 376.667 118.925C376.267 120.258 376.8 121.458 378.133 121.992C379.333 122.525 380 123.725 379.467 124.792C379.067 126.125 379.6 126.792 380.933 126.792C382.133 126.792 384.267 127.725 385.6 129.058C387.867 131.058 388.267 131.058 391.333 128.125C393.2 126.392 394.933 123.992 395.467 122.525C396.133 120.125 400.533 119.192 401.867 121.192C402.267 121.858 400.8 123.725 398.533 125.325C393.333 129.192 394.267 130.258 400.667 127.592C405.2 125.725 405.6 125.058 404.933 121.592C404.4 119.325 404.933 116.792 406 115.192C407.733 112.658 407.6 111.992 404 107.458C399.467 101.725 399.733 100.125 404.4 103.192C409.067 106.125 412.4 113.992 411.333 119.058C410.667 121.858 410.8 122.792 411.867 122.258C412.667 121.725 413.333 119.592 413.333 117.458C413.333 115.325 414 113.192 414.667 112.792C417.333 111.058 415.867 107.992 411.467 106.125C406.267 103.858 404.8 101.058 406.8 97.0583C408.267 94.3917 408.4 94.3917 410.267 96.925C411.333 98.2583 412.933 99.325 413.867 99.0583C414.933 98.925 416 99.9917 416.4 101.458C416.933 103.592 418.133 104.125 422.533 104.125C428.533 104.125 429.067 105.192 425.733 110.392C423.467 113.858 423.467 113.858 426.533 112.258C430.133 110.258 430.4 110.392 430.933 115.458C431.333 119.192 431.067 119.458 426.533 119.592C420.533 119.725 418.667 120.925 418.667 124.258C418.667 126.658 419.333 126.792 426 126.125C430 125.592 433.333 125.592 433.333 126.258C433.333 127.992 418.667 141.458 416.8 141.458C414.8 141.458 411.067 133.858 412.4 132.525C412.933 132.125 414.133 132.525 415.333 133.458C417.6 135.458 417.867 134.392 416 130.658C414.4 127.858 411.2 127.325 410.267 129.858C410 130.658 410.533 133.725 411.467 136.658C412.533 139.458 412.933 142.258 412.533 142.925C412.133 143.592 408.133 146.658 403.6 149.725C395.467 155.058 392 157.992 371.733 176.925C366.133 182.125 357.2 188.658 352 191.325C341.2 197.058 329.733 199.592 326.8 196.792C325.333 195.325 327.2 192.792 338 181.325C348.133 170.525 350.4 167.325 348.533 166.925C347.2 166.658 345.333 165.592 344.533 164.392C343.333 162.792 340.933 162.525 330.4 163.192C313.467 164.125 306.8 167.858 302.133 178.792C300.533 182.792 300.533 184.125 302.133 187.992L304 192.392L312.533 191.592L321.2 190.792L321.6 196.392C322 202.125 322 202.125 327.467 202.525C332.267 202.925 337.067 201.592 348.4 196.792C349.733 196.258 350.667 196.392 350.667 197.192C350.667 198.925 339.733 209.458 335.6 211.725C330.933 214.392 320.533 213.725 310 210.125C298.933 206.525 273.067 193.592 263.867 187.192C260.533 184.925 253.067 180.792 247.2 178.125C241.467 175.458 234 171.858 230.667 170.125C222.933 166.125 190.667 154.925 182.533 153.458C179.067 152.792 174 151.725 171.2 150.925C168.267 150.125 159.6 149.458 151.867 149.458C140.933 149.458 137.333 149.058 136 147.458C134.667 145.858 134.667 145.058 136 143.458C136.933 142.392 138.133 141.858 138.667 142.125C140.133 143.058 145.333 135.992 149.2 128.392C151.867 123.192 151.867 122.525 150 119.725C148.933 118.125 148 117.592 148 118.392C148 119.325 146.4 121.992 144.4 124.392C142.267 126.792 139.2 131.725 137.467 135.192C131.733 146.392 125.6 149.592 101.467 153.458C91.0667 155.192 82 158.925 80.1333 162.525C78 166.392 78.2667 171.458 80.6667 173.458C83.8667 176.125 96.8 176.525 100.533 174.125C108.133 169.058 103.467 179.192 93.2 189.858C88.9333 194.392 88 194.792 84.9333 193.592C81.0667 192.125 79.8667 194.125 82.8 197.058C84.5333 198.792 83.4667 202.792 81.4667 202.792C80.8 202.792 78.5333 199.725 76.4 195.858C72.5333 188.658 65.0667 182.392 61.4667 183.058C57.6 183.858 58.2667 190.125 62.5333 195.192C66.5333 199.725 68 204.125 65.4667 204.125C64.8 204.125 62.4 202.525 60 200.658C56 197.325 55.8667 197.192 53.3333 199.458C50.8 201.725 50.8 201.992 52.9333 204.525C54.2667 205.858 57.6 208.258 60.4 209.592C63.0667 211.058 65.3333 212.658 65.3333 213.192C65.3333 213.858 61.6 215.992 57.0667 217.992C52.4 220.125 47.7333 222.258 46.6667 222.925C45.6 223.458 39.6 226.525 33.3333 229.592C27.0667 232.658 19.6 236.925 16.6667 238.925C13.7333 240.925 8.8 244.125 5.73333 245.992C1.46667 248.658 0 250.392 0 252.792C0 257.325 3.2 257.058 10.5333 252.125C13.7333 249.858 17.2 248.125 18.2667 248.125C20 248.125 32 241.192 50 229.725C55.0667 226.392 60.8 223.058 62.6667 222.258C68.5333 219.592 76 214.125 76 212.525C76 209.725 78.2667 210.525 84.5333 215.325C87.8667 217.858 92.9333 220.258 95.8667 220.792C102.933 221.992 103.6 223.192 99.0667 226.792C92.5333 231.725 78.6667 240.125 76.8 240.125C74.4 240.125 63.2 245.458 57.0667 249.458C53.8667 251.592 52 253.858 52 255.592C52 259.058 56 262.792 59.4667 262.792C62.2667 262.792 78.2667 253.058 93.3333 242.392C98.1333 238.925 104.267 234.925 106.933 233.458C113.867 229.725 113.867 225.325 107.067 221.858C101.6 219.192 100 216.525 103.2 215.325C104.267 214.925 107.867 216.392 111.333 218.792C116.533 222.392 117.467 223.592 116.8 226.258C116.133 228.525 116.533 229.458 117.867 229.458C118.933 229.458 120 228.125 120.267 226.525C120.533 224.925 121.467 223.325 122.533 223.058C123.867 222.658 124.133 223.192 123.6 225.325C122.667 228.925 125.067 230.258 134.667 231.192C138.667 231.592 146.8 233.458 152.667 235.325C158.533 237.192 164.8 238.792 166.8 238.792C168.933 238.792 173.867 235.992 179.733 231.458C190.8 223.058 194.267 222.392 202 227.725C204.8 229.592 209.067 231.592 211.2 232.125C213.867 232.525 215.467 233.858 215.867 235.458C216.4 238.392 218.667 240.392 225.733 244.258C231.333 247.192 232.933 246.792 234.8 241.858C235.733 239.192 235.6 237.858 233.867 235.858C232.4 234.392 231.2 233.992 230.667 234.792C230.133 235.592 228.533 234.792 226.667 232.792C224 229.992 223.733 229.058 225.333 228.125C228.133 226.392 225.067 223.458 215.467 218.925C209.6 215.992 206.933 215.325 205.733 216.392C204.4 217.458 203.333 217.192 201.6 215.725C200 214.258 198.667 213.992 197.333 214.925C196.267 215.592 191.467 216.125 186.8 215.858C178.933 215.725 178.133 215.858 176.533 219.058C173.867 224.125 167.733 226.125 160.533 224.525C157.2 223.725 151.867 223.325 148.533 223.458C145.333 223.725 142.4 223.458 142 222.792C141.6 222.125 140.267 221.992 139.2 222.392C137.067 223.192 134.667 220.792 134.667 217.992C134.667 217.192 136.133 215.858 137.867 214.792C139.733 213.858 140.8 212.392 140.533 211.458C139.733 209.325 151.333 202.392 154.4 203.192C156.133 203.592 155.733 204.125 152.8 205.325C149.067 206.792 141.6 212.125 143.067 212.125C144.4 212.125 177.733 194.925 179.067 193.592C180 192.658 181.333 192.658 182.933 193.592C186.667 195.592 190.667 193.858 190.667 189.992C190.667 187.858 189.867 186.792 188.4 186.792C186.4 186.792 186.4 187.058 187.867 187.992C190.133 189.458 188.8 193.458 186.133 193.458C183.733 193.458 178.4 186.925 179.067 184.925C179.333 184.125 180.933 183.592 182.533 183.725C184 183.992 185.333 183.458 185.333 182.792C185.333 181.592 174 180.792 167.467 181.458C166.133 181.592 162.4 180.658 159.2 179.458C155.333 177.992 152.667 177.725 151.2 178.525C150 179.192 146.8 179.325 144.133 178.658C141.467 178.125 134.667 177.192 128.933 176.792C117.6 175.725 116.667 174.658 121.067 167.592C123.2 164.125 124.8 163.325 135.333 161.325C151.333 158.125 152.933 158.258 170 162.125C210.4 171.592 231.467 178.525 253.467 189.458C268.133 196.925 303.2 211.458 314.667 214.925C320.133 216.525 328.4 217.992 333.2 217.992C341.6 218.125 341.733 218.125 345.867 212.792C357.6 197.725 377.333 180.658 403.333 163.192C420.8 151.458 425.333 149.325 425.333 152.658C425.333 155.858 431.6 156.925 434.667 154.125C437.333 151.725 441.067 152.658 438.933 155.192C438.267 156.125 437.2 158.658 436.667 161.058C435.733 165.725 428.8 176.125 426.667 176.125C425.867 176.125 425.333 172.392 425.333 167.858C425.333 163.192 424.8 158.658 424.133 157.592C422.133 154.525 421.467 157.992 422.8 164.125C423.467 167.192 423.867 171.725 423.6 173.992C423.067 178.125 423.067 178.125 415.733 177.725C410.133 177.325 406.933 177.992 403.2 179.992C399.867 181.725 398.933 182.658 400.4 182.792C401.733 182.792 402.667 183.592 402.4 184.525C401.6 186.658 397.2 187.458 396 185.592C395.067 183.858 390.667 185.058 390.667 186.925C390.667 187.592 392.133 188.125 393.867 188.125C396.933 188.125 399.733 190.258 398.267 191.592C398 191.858 395.467 192.258 392.8 192.392C388.8 192.525 387.467 193.192 386.533 195.725C385.733 197.725 384.267 198.792 382.133 198.792C378.533 198.792 374.4 203.325 375.6 206.125C376.267 207.992 382 205.325 389.2 199.858C390.933 198.525 394 197.458 396.133 197.458C398.133 197.458 401.6 195.858 404 193.858C407.467 190.925 408.8 190.525 411.733 191.592C416.8 193.325 416.4 196.792 411.2 196.792C408.533 196.792 405.467 198.258 402.267 201.058C399.333 203.592 394.933 205.725 390.667 206.658C382.133 208.525 378.667 210.258 378.667 212.792C378.667 215.192 378.267 215.192 388.667 212.658C398.4 210.258 403.467 210.925 404.667 214.792C405.2 216.258 407.067 218.392 409.067 219.325C413.6 221.725 417.333 226.125 420.133 232.258C422.533 237.325 427.6 242.792 429.867 242.792C430.667 242.792 430.267 242.125 429.067 241.458C426.667 239.992 421.333 231.992 421.333 229.858C421.333 229.192 422.8 227.725 424.667 226.792C428.933 224.525 428.933 222.925 424.667 223.858C422 224.258 420 223.325 416 219.325C413.2 216.392 409.2 212.792 407.333 211.192C402.133 206.658 402.933 203.592 410.4 200.392C419.733 196.392 427.6 195.592 435.333 197.992C439.067 199.192 443.2 200.125 444.667 200.125C446.933 200.125 446.933 199.858 445.333 198.258C442.533 195.725 423.333 190.792 419.867 191.725C417.467 192.392 417.067 192.125 417.733 190.392C418.4 188.525 417.733 188.125 413.333 188.125C406.933 188.125 406.533 186.258 412 183.458C416.667 181.058 420.267 181.592 431.333 186.925C435.733 188.925 441.733 190.925 444.667 191.325L450 192.125L445.067 189.858C442.267 188.792 440 187.192 440 186.525C440 184.658 451.067 180.258 458.133 179.192C461.733 178.792 466.933 176.658 470 174.658C473.067 172.658 479.467 169.592 484.4 167.992L493.2 165.192L502 169.992C506.8 172.792 511.733 176.525 512.933 178.525C514.133 180.525 516.533 183.592 518.133 185.458C519.867 187.325 522.133 190.925 523.2 193.592C524.267 196.258 529.2 203.592 534 209.992C538.8 216.392 544.8 225.725 547.333 230.792C549.867 235.858 552.533 240.258 553.2 240.792C555.2 241.992 551.067 232.392 546.267 225.058C541.6 217.458 542.4 216.258 551.467 217.192C554.933 217.458 557.333 217.192 557.333 216.392C557.333 215.592 556.267 214.925 555.067 214.792ZM496.533 142.392C494.8 142.925 493.467 139.058 494.267 136.525C494.667 135.592 495.733 134.792 496.8 134.792C499.2 134.792 498.933 141.592 496.533 142.392ZM478.533 167.192C472.667 169.992 467.333 171.858 466.667 171.458C463.467 169.458 466 166.658 475.067 162.258C485.733 156.925 489.333 156.258 489.333 159.858C489.333 161.325 485.867 163.725 478.533 167.192ZM462.8 163.992C460.4 163.725 457.467 164.658 454.533 166.925C448.133 171.725 445.467 172.925 439.067 173.992C432.4 174.925 432 173.858 436.8 169.325C438.667 167.592 441.067 164.258 442 161.858L443.867 157.592L452.267 158.258C464.267 159.192 466.667 159.858 466.667 162.258C466.667 163.725 465.6 164.258 462.8 163.992ZM458.267 174.792C455.867 174.792 451.867 176.258 449.067 178.125C444.133 181.458 441.333 182.258 441.333 180.392C441.333 179.458 452.267 170.658 457.067 167.725C459.333 166.258 462.667 169.058 462.667 172.258C462.667 174.258 461.733 174.792 458.267 174.792ZM446.933 123.858C446 124.125 445.333 123.592 445.2 122.525C445.2 121.592 444.933 119.858 444.667 118.658C444.133 115.592 446 112.925 447.867 114.125C449.867 115.325 449.067 123.058 446.933 123.858ZM438.267 121.992C437.333 121.725 435.867 120.258 434.933 118.792C433.6 116.525 433.6 116.125 435.2 116.125C436.267 116.125 437.867 117.192 438.533 118.525C440.4 121.592 440.267 122.792 438.267 121.992ZM436.667 112.125C434.533 112.125 432.4 108.525 433.733 107.192C434.267 106.792 435.467 106.792 436.667 107.192C439.333 108.258 439.333 112.125 436.667 112.125ZM426 72.125C424.4 73.4583 423.867 73.325 423.2 71.4583C422.4 69.325 424.4 66.925 427.067 66.7917C428.8 66.7917 428.133 70.3917 426 72.125ZM420.667 100.125C419.6 100.125 418.667 99.5917 418.667 98.7917C418.667 98.125 419.6 97.4583 420.667 97.4583C421.733 97.4583 422.667 98.125 422.667 98.7917C422.667 99.5917 421.733 100.125 420.667 100.125ZM412.4 153.592C410.533 154.258 406.933 156.658 404.4 158.792C399.867 162.792 397.333 163.858 397.333 161.592C397.333 160.258 403.467 155.458 411.067 150.925C415.2 148.392 416 148.258 416 149.992C416 151.192 414.4 152.792 412.4 153.592ZM400.667 89.4583C399.6 89.4583 398.667 88.525 398.667 87.325C398.667 85.4583 399.067 85.4583 400.667 86.7917C401.733 87.725 402.667 88.6583 402.667 88.925C402.667 89.1917 401.733 89.4583 400.667 89.4583ZM398.4 95.8583C397.6 95.5917 396.533 94.525 396.267 93.725C396 92.7917 396.533 92.3917 397.867 92.925C400.267 93.8583 400.8 96.6583 398.4 95.8583ZM395.867 112.792C393.867 112.125 393.333 112.258 393.867 113.325C394.4 114.125 395.733 114.792 396.8 114.792C397.867 114.792 398.667 115.458 398.667 116.125C398.667 116.925 397.6 117.458 396.267 117.458C394.933 117.458 393.2 118.125 392.4 118.925C390.133 121.192 387.733 119.058 388.267 115.325C388.533 113.058 387.6 111.192 385.333 109.458C381.067 106.258 382.667 104.658 387.6 107.192C389.6 108.258 392.133 108.792 393.067 108.525C395.733 107.592 398.667 109.192 398.667 111.458C398.667 113.058 397.867 113.458 395.867 112.792ZM392.267 85.4583C390.533 85.4583 389.333 83.8583 390.133 82.525C390.933 81.1917 393.333 82.3917 393.333 84.2583C393.333 84.925 392.8 85.4583 392.267 85.4583ZM388.133 104.792C387.467 105.192 386.533 104.925 386 104.125C385.6 103.458 386.133 102.792 387.2 102.792C389.6 102.792 390 103.592 388.133 104.792ZM381.6 96.125C375.6 95.0583 373.333 93.8583 373.333 91.8583C373.333 89.9917 383.467 91.325 386 93.4583C389.067 95.9917 387.2 97.1917 381.6 96.125ZM376.533 109.458C374.267 109.458 374.667 106.525 377.067 105.725C378 105.458 378.667 106.125 378.667 107.325C378.667 108.525 377.733 109.458 376.533 109.458ZM366.533 106.792C365.2 106.792 363.733 106.125 363.333 105.458C362.4 103.858 368.133 101.458 372.4 101.458L375.333 101.592L372.133 104.125C370.4 105.592 368 106.792 366.533 106.792ZM368.667 78.7917C367.6 78.7917 366.667 78.2583 366.667 77.4583C366.667 76.7917 367.6 76.125 368.667 76.125C369.733 76.125 370.667 76.7917 370.667 77.4583C370.667 78.2583 369.733 78.7917 368.667 78.7917ZM365.467 132.792C363.867 133.725 362.267 131.192 363.333 129.458C364.267 127.992 366.667 128.925 366.667 130.792C366.667 131.458 366.133 132.258 365.467 132.792ZM336 177.325C328.667 183.458 317.067 188.125 309.067 188.125C303.333 188.125 302.667 186.525 305.867 180.392C310.267 172.125 316.8 168.258 328.533 167.592C344.533 166.525 346.267 168.658 336 177.325ZM226.267 239.325C223.333 237.592 220 234.392 220 233.192C220 231.192 223.067 232.125 226.267 234.925C229.2 237.858 229.2 240.925 226.267 239.325ZM211.867 226.792C208.533 226.792 204 224.525 204 222.792C204 221.058 208.8 221.058 212.133 222.792C215.467 224.658 215.333 226.792 211.867 226.792ZM191.467 221.992C187.867 222.925 184 221.858 184 219.992C184 218.392 190.133 216.925 192.667 217.992C195.733 219.058 195.067 221.058 191.467 221.992ZM177.333 229.458C174.4 232.392 172 232.925 172 230.525C172 228.392 176.133 224.125 178.267 224.125C180.8 224.125 180.4 226.392 177.333 229.458ZM153.6 199.192C147.867 201.992 142.667 204.125 142 204.125C141.2 204.125 135.867 207.058 130 210.525C123.333 214.525 117.867 216.792 115.333 216.792C110.667 216.658 105.333 213.592 105.333 211.058C105.333 208.525 101.6 207.592 99.3333 209.458C97.7333 210.792 96.5333 210.792 94 209.725C86.2667 206.125 93.4667 197.058 105.067 195.592C111.467 194.792 112.133 194.925 113.333 197.725C114.4 200.658 114.533 200.658 114.533 197.992C114.667 195.458 115.6 195.058 123.733 194.258C145.2 192.392 164 191.858 164 193.058C164 193.725 159.333 196.525 153.6 199.192ZM160.267 233.192C156.533 233.725 148 229.725 148 227.325C148 226.258 148.667 225.458 149.333 225.458C150.133 225.458 150.667 226.125 150.667 226.792C150.667 227.592 152.667 228.125 155.2 228.125C160.933 228.125 164.267 229.325 163.6 231.325C163.333 232.125 161.867 232.925 160.267 233.192ZM140.533 229.725C134.8 229.192 133.333 228.392 133.333 226.125C133.333 224.392 134.267 224.125 138.4 224.925C144.533 225.992 145.6 226.658 144.933 228.525C144.667 229.458 142.667 229.992 140.533 229.725ZM131.6 225.325C130.533 226.125 129.467 226.392 128.933 225.992C127.733 224.658 129.467 221.458 131.467 221.458C133.867 221.458 133.867 223.325 131.6 225.325ZM112.133 176.925C109.467 179.992 105.333 184.925 102.933 187.992C98.5333 193.458 94.6667 195.192 94.6667 191.725C94.6667 190.658 96 188.792 97.4667 187.325C99.0667 185.992 101.733 182.658 103.333 180.125C107.333 173.858 117.333 163.992 118.8 164.925C120.4 165.858 118 170.258 112.133 176.925ZM114.533 186.525C110.267 186.925 106.8 184.792 108.8 182.792C110.533 181.058 118.933 182.658 118.267 184.658C118 185.458 116.4 186.258 114.533 186.525ZM110.133 192.125C108.267 192.125 106.4 191.592 106 190.792C105.467 189.992 106.933 189.458 109.2 189.458C111.467 189.458 113.333 190.125 113.333 190.792C113.333 191.592 111.867 192.125 110.133 192.125ZM90.9333 201.458C88.6667 204.392 85.3333 204.258 85.3333 201.458C85.3333 199.992 90.8 194.792 92.2667 194.792C94.1333 194.792 93.4667 198.392 90.9333 201.458ZM92.2667 216.125C90.4 216.125 86.1333 210.925 87.0667 209.858C87.6 209.458 89.2 210.125 90.6667 211.458C93.4667 213.992 94.1333 216.125 92.2667 216.125ZM74.4 250.925C70.1333 253.058 66.1333 255.992 65.3333 257.458C63.3333 261.058 60.5333 260.792 57.8667 256.658C55.8667 253.725 55.8667 253.058 57.3333 252.125C58.5333 251.458 59.8667 251.458 60.8 252.258C62 253.192 63.6 252.925 66.2667 251.592L70 249.458L66 250.258L62 251.192L64.6667 248.125C68 244.392 72.4 242.658 73.6 244.658C74.2667 245.725 76.1333 245.192 79.8667 243.192C82.6667 241.592 85.3333 240.658 85.8667 241.058C87.3333 242.525 82.1333 247.058 74.4 250.925ZM76 207.325C75.2 209.458 73.7333 210.792 72 210.792C69.7333 210.792 69.3333 209.992 69.3333 205.058C69.3333 200.658 68.4 198.258 65.3333 194.792C58.6667 186.925 60.9333 182.258 68.5333 188.258C72 191.058 77.2 199.325 77.3333 202.392C77.3333 203.192 76.8 205.458 76 207.325ZM58.8 205.992C58.1333 206.392 56.9333 205.858 56.1333 204.925C54.4 202.792 56.4 200.658 58.6667 202.125C60.2667 203.192 60.4 205.058 58.8 205.992Z" fill="white"/>
<path d="M828.267 208.954C829.6 208.821 833.067 208.687 836 208.687C840.8 208.554 841.867 207.886 848 200.546C855.6 191.337 860.267 181.995 860.933 174.788C861.333 169.85 861.2 169.717 856.267 168.515C853.6 167.848 851.333 166.78 851.333 166.247C851.333 165.713 853.467 165.846 856 166.647C859.333 167.581 862 167.581 865.6 166.38C871.866 164.512 876.666 160.908 874.266 159.974C869.6 158.239 861.467 153.301 861.067 151.966C860.667 150.899 863.6 150.231 870.266 149.964C878.133 149.697 880 149.164 879.733 147.562C879.466 146.227 880.4 145.427 882 145.293C884.266 145.026 884.533 145.694 883.866 148.363C883.066 151.432 883.333 151.699 886.133 151.299C891.866 150.498 890.8 145.961 883.333 138.22C878.533 133.282 876.933 130.746 877.866 129.812C878.666 129.011 879.333 125.541 879.333 122.205C879.333 116.599 878.8 115.531 871.866 108.858C867.866 104.855 863.333 99.2492 861.867 96.58C858.8 90.5743 860.4 89.7735 863.733 95.6458C865.2 98.1816 866.8 99.5162 867.866 99.1158C870.266 98.1816 873.2 101.518 872 103.52C871.466 104.321 873.866 107.924 877.2 111.528C882.4 117.133 883.466 117.8 884.533 115.798C885.2 114.597 888.533 112.462 891.866 111.261L898.133 108.992L899.333 112.061C900 113.796 901.333 115.531 902.266 115.932C903.2 116.332 901.466 117 898.4 117.533C891.6 118.735 892.133 120.87 899.2 120.87C904.933 120.87 909.6 123.673 908 126.075C907.333 127.276 905.066 127.543 900.533 126.876C893.733 125.941 891.866 127.276 896.933 129.545C900.8 131.28 902.266 136.485 898.533 134.883C897.066 134.349 894.533 133.549 892.8 133.148C890.133 132.614 889.733 132.881 890.4 134.75C890.933 136.084 891.333 138.487 891.333 140.088C891.333 141.823 892.933 144.226 895.333 145.961C899.6 149.164 908.4 151.699 906.933 149.297C906.4 148.363 908.266 147.562 911.733 147.028C914.933 146.494 921.066 145.026 925.599 143.692C933.866 141.156 937.999 141.823 937.999 145.56C937.999 149.164 941.333 147.562 944.666 142.491C947.733 137.953 947.999 137.819 948.399 140.622C948.799 142.891 949.733 143.558 952.666 143.558C954.799 143.558 956.799 143.024 957.199 142.357C957.599 141.69 955.466 138.086 952.533 134.349C947.866 128.477 946.399 127.543 942.533 127.543H937.866L940.133 131.68C941.866 135.15 941.999 136.084 940.399 137.019C936.933 139.288 936.399 138.086 936.933 129.945C937.199 123.139 936.933 121.537 935.333 121.537C933.733 121.537 933.199 119.535 932.933 112.595C932.533 104.187 931.199 101.118 929.599 105.255C929.199 106.056 928.933 101.251 929.066 94.4447C929.333 80.9651 931.066 77.0947 936.666 78.5628C940.533 79.497 940.933 77.8955 937.866 73.3578C934.399 68.1529 934.666 66.9517 938.666 69.6209C940.533 70.8221 943.199 71.4894 944.666 71.089C947.599 70.2882 948.399 72.1567 945.599 73.2244C944.399 73.6248 944.533 74.8259 946.266 77.762C948.933 82.2997 948.399 83.5009 943.599 83.5009C940.266 83.5009 940.266 83.5009 942.799 86.3035C945.333 89.1062 945.466 93.5104 943.199 96.4466C942.399 97.3808 942.399 98.1816 943.199 98.7154C944.666 99.6496 957.333 87.7716 956.133 86.5705C955.733 86.0366 954.133 86.8374 952.666 88.172C949.333 91.2416 947.866 90.0404 950.266 86.3035C952.133 83.1005 957.866 82.5666 960.533 85.2359C961.866 86.5705 962.133 86.1701 961.733 83.6343C961.599 81.8993 960.266 79.8974 958.933 79.3636C957.733 78.6963 955.599 77.6286 954.399 77.0947C953.199 76.4274 951.866 75.2263 951.599 74.1586C951.066 72.824 952.133 72.6905 955.999 73.3578C964.266 74.9594 964.399 71.6228 956.266 67.8859C950.799 65.3502 948.799 64.9498 946.266 66.0175C942.533 67.7525 941.999 67.8859 941.999 66.1509C941.999 65.4836 944.399 63.2148 947.333 61.3464C953.199 57.476 954.133 54.8068 949.999 53.4722C945.999 52.1376 946.799 49.7353 953.199 43.7295C958.399 38.9249 959.466 38.5245 963.466 39.3253C965.999 39.8592 967.733 40.7934 967.333 41.4607C967.066 42.2615 965.866 42.6618 964.933 42.3949C963.733 42.128 963.333 42.9288 963.599 44.3968C963.866 45.9984 965.466 46.9326 968.666 47.1995C973.599 47.7333 977.999 50.6695 977.999 53.7391C977.999 55.0737 976.933 54.8068 974.266 52.8049C971.199 50.536 969.866 50.2691 966.799 51.4703C962.533 53.0718 962.799 55.8745 967.199 56.5418C969.466 56.9421 969.999 57.6095 969.466 59.6114C966.799 68.0194 966.666 67.4856 971.866 67.4856C977.333 67.4856 978.666 70.6886 973.599 72.0232C971.466 72.5571 971.199 73.0909 972.399 73.8917C973.733 74.8259 973.733 75.7601 972.266 78.5628L970.399 82.0328L967.599 79.2301C965.999 77.6286 964.399 76.6944 963.866 77.2282C962.133 78.8297 964.799 84.8355 968.133 86.9708C972.133 89.6401 973.866 88.4389 977.733 80.6982C979.599 77.0947 980.799 76.1605 983.999 76.1605C987.599 76.1605 987.999 75.6267 988.399 71.6228C988.799 67.8859 988.532 67.2186 986.666 68.0194C985.199 68.5532 984.666 68.2863 984.932 67.2186C985.332 66.2844 986.932 65.2167 988.666 65.0833C990.532 64.8163 993.332 63.3483 995.199 62.0137C997.732 59.8783 998.799 59.7448 1000.4 61.0794C1002.13 62.5475 1002 62.8144 999.199 63.2148C995.599 63.7487 991.332 67.0852 991.332 69.4875C991.332 71.3559 999.599 79.497 1001.47 79.497C1002.93 79.497 1008.67 73.8917 1008.67 72.4236C1008.67 70.6886 1005.6 71.4894 1002.93 73.7582C1000.53 76.0271 1000.4 76.0271 998.532 73.6248C996.266 70.4217 997.199 68.8202 1001.47 68.8202C1003.87 68.8202 1005.2 67.7525 1006.53 64.6829C1007.87 61.3464 1008.4 60.946 1009.07 62.8144C1009.6 64.0156 1010.53 64.6829 1011.33 64.149C1013.6 62.8144 1018.13 66.1509 1019.6 70.2882C1021.07 74.559 1025.47 75.6267 1026.4 71.8898C1026.8 70.5552 1027.07 72.2901 1027.2 75.8936C1027.33 80.5647 1026.8 82.1663 1025.47 82.1663C1022.13 82.1663 1021.6 84.9689 1024.53 86.9708C1028.27 89.6401 1028.13 91.7754 1024.13 90.7077C1019.2 89.5066 1018 90.9747 1020.27 95.5123C1021.6 98.315 1023.2 99.5162 1025.47 99.5162C1028 99.5162 1029.33 100.584 1030.8 104.187C1031.87 106.857 1033.73 108.858 1035.07 108.992C1036.27 109.125 1035.07 109.793 1032.27 110.46C1029.6 111.261 1027.33 112.595 1027.33 113.53C1027.33 114.464 1026.4 115.932 1025.33 116.866C1021.33 120.203 1022.93 122.338 1028.67 121.404C1034.27 120.47 1042.53 122.872 1041.2 125.141C1040.8 125.808 1041.47 127.543 1042.67 128.878C1045.47 131.947 1043.33 133.282 1038.67 131.547C1033.07 129.411 1030 129.812 1030 132.881C1030 136.084 1029.6 136.084 1024.4 133.415C1022.13 132.214 1018.8 131.547 1017.07 131.947C1014.27 132.481 1013.87 132.081 1014.53 129.812C1014.93 128.21 1014.67 126.342 1014 125.541C1013.07 124.473 1014.4 123.005 1018 121.003C1020.93 119.402 1023.33 117.533 1023.33 116.733C1023.33 115.265 1023.87 115.265 1016.67 117.4C1012.27 118.601 1010.13 120.203 1008.8 123.005C1006.4 127.81 1003.87 129.812 998.666 131.013C996.399 131.413 993.466 132.614 991.866 133.549C989.466 135.15 973.999 137.686 975.466 136.351C976.666 135.15 997.466 127.543 999.466 127.543C1000.67 127.543 1004 124.607 1007.07 121.003C1012 115.131 1013.07 114.597 1018.13 114.597C1022.13 114.597 1024.27 113.796 1025.6 112.061C1028.13 108.592 1027.2 107.123 1021.07 104.988C1015.87 103.12 1015.6 103.253 1010.93 106.99C1007.73 109.526 1006.27 111.661 1006.67 112.996C1007.07 114.33 1006.53 115.531 1005.2 116.065C1004 116.599 1003.33 117.8 1003.87 118.868C1004.27 120.203 1003.73 120.87 1002.4 120.87C1001.2 120.87 999.066 121.804 997.732 123.139C995.466 125.141 995.066 125.141 991.999 122.205C990.132 120.47 988.399 118.067 987.866 116.599C987.199 114.197 982.799 113.263 981.466 115.265C981.066 115.932 982.532 117.8 984.799 119.402C989.999 123.272 989.066 124.34 982.666 121.671C978.133 119.802 977.733 119.135 978.399 115.665C978.932 113.396 978.399 110.86 977.333 109.259C975.599 106.723 975.733 106.056 979.332 101.518C983.866 95.7793 983.599 94.1777 978.932 97.2473C974.266 100.183 970.933 108.058 971.999 113.129C972.666 115.932 972.533 116.866 971.466 116.332C970.666 115.798 969.999 113.663 969.999 111.528C969.999 109.392 969.333 107.257 968.666 106.857C965.999 105.122 967.466 102.052 971.866 100.183C977.066 97.9146 978.532 95.112 976.533 91.1081C975.066 88.4389 974.933 88.4389 973.066 90.9747C971.999 92.3093 970.399 93.377 969.466 93.11C968.399 92.9766 967.333 94.0443 966.933 95.5123C966.399 97.6477 965.199 98.1816 960.799 98.1816C954.799 98.1816 954.266 99.2492 957.599 104.454C959.866 107.924 959.866 107.924 956.799 106.323C953.199 104.321 952.933 104.454 952.399 109.526C951.999 113.263 952.266 113.53 956.799 113.663C962.799 113.796 964.666 114.998 964.666 118.334C964.666 120.736 963.999 120.87 957.333 120.203C953.333 119.669 949.999 119.669 949.999 120.336C949.999 122.071 964.666 135.551 966.533 135.551C968.533 135.551 972.266 127.943 970.933 126.609C970.399 126.208 969.199 126.609 967.999 127.543C965.733 129.545 965.466 128.477 967.333 124.74C968.933 121.938 972.133 121.404 973.066 123.94C973.333 124.74 972.799 127.81 971.866 130.746C970.799 133.549 970.399 136.351 970.799 137.019C971.199 137.686 975.199 140.756 979.732 143.825C987.866 149.164 991.332 152.1 1011.6 171.051C1017.2 176.256 1026.13 182.796 1031.33 185.465C1042.13 191.204 1053.6 193.74 1056.53 190.937C1058 189.469 1056.13 186.933 1045.33 175.455C1035.2 164.645 1032.93 161.442 1034.8 161.042C1036.13 160.775 1038 159.707 1038.8 158.506C1040 156.904 1042.4 156.637 1052.93 157.305C1069.87 158.239 1076.53 161.976 1081.2 172.92C1082.8 176.923 1082.8 178.258 1081.2 182.128L1079.33 186.533L1070.8 185.732L1062.13 184.931L1061.73 190.536C1061.33 196.275 1061.33 196.275 1055.87 196.676C1051.07 197.076 1046.27 195.741 1034.93 190.937C1033.6 190.403 1032.67 190.536 1032.67 191.337C1032.67 193.072 1043.6 203.616 1047.73 205.884C1052.4 208.554 1062.8 207.886 1073.33 204.283C1084.4 200.68 1110.27 187.734 1119.46 181.328C1122.8 179.059 1130.26 174.922 1136.13 172.252C1141.86 169.583 1149.33 165.98 1152.66 164.245C1160.4 160.241 1192.66 149.03 1200.8 147.562C1204.26 146.895 1209.33 145.827 1212.13 145.026C1215.06 144.226 1223.73 143.558 1231.46 143.558C1242.4 143.558 1246 143.158 1247.33 141.556C1248.66 139.955 1248.66 139.154 1247.33 137.553C1246.4 136.485 1245.2 135.951 1244.66 136.218C1243.2 137.152 1238 130.079 1234.13 122.471C1231.46 117.266 1231.46 116.599 1233.33 113.796C1234.4 112.195 1235.33 111.661 1235.33 112.462C1235.33 113.396 1236.93 116.065 1238.93 118.468C1241.06 120.87 1244.13 125.808 1245.86 129.278C1251.6 140.489 1257.73 143.692 1281.86 147.562C1292.26 149.297 1301.33 153.034 1303.2 156.637C1305.33 160.508 1305.06 165.579 1302.66 167.581C1299.46 170.25 1286.53 170.651 1282.8 168.249C1275.2 163.177 1279.86 173.32 1290.13 183.997C1294.4 188.535 1295.33 188.935 1298.4 187.734C1302.26 186.266 1303.46 188.268 1300.53 191.204C1298.8 192.939 1299.86 196.943 1301.86 196.943C1302.53 196.943 1304.8 193.873 1306.93 190.003C1310.8 182.796 1318.26 176.523 1321.86 177.19C1325.73 177.991 1325.06 184.264 1320.8 189.335C1316.8 193.873 1315.33 198.277 1317.86 198.277C1318.53 198.277 1320.93 196.676 1323.33 194.807C1327.33 191.471 1327.46 191.337 1330 193.606C1332.53 195.875 1332.53 196.142 1330.4 198.678C1329.06 200.012 1325.73 202.415 1322.93 203.749C1320.26 205.217 1318 206.819 1318 207.353C1318 208.02 1321.73 210.155 1326.26 212.157C1330.93 214.293 1335.6 216.428 1336.66 217.095C1337.73 217.629 1343.73 220.699 1350 223.768C1356.26 226.838 1363.73 231.109 1366.66 233.111C1369.6 235.112 1374.53 238.315 1377.6 240.184C1381.86 242.853 1383.33 244.588 1383.33 246.99C1383.33 251.528 1380.13 251.261 1372.8 246.323C1369.6 244.054 1366.13 242.319 1365.06 242.319C1363.33 242.319 1351.33 235.379 1333.33 223.902C1328.26 220.565 1322.53 217.229 1320.66 216.428C1314.8 213.759 1307.33 208.287 1307.33 206.685C1307.33 203.883 1305.06 204.683 1298.8 209.488C1295.46 212.024 1290.4 214.426 1287.46 214.96C1280.4 216.161 1279.73 217.362 1284.26 220.966C1290.8 225.904 1304.66 234.312 1306.53 234.312C1308.93 234.312 1320.13 239.65 1326.26 243.654C1329.46 245.789 1331.33 248.058 1331.33 249.793C1331.33 253.263 1327.33 257 1323.86 257C1321.06 257 1305.06 247.257 1290 236.58C1285.2 233.111 1279.06 229.107 1276.4 227.639C1269.46 223.902 1269.46 219.497 1276.26 216.028C1281.73 213.358 1283.33 210.689 1280.13 209.488C1279.06 209.088 1275.46 210.556 1272 212.958C1266.8 216.561 1265.86 217.763 1266.53 220.432C1267.2 222.701 1266.8 223.635 1265.46 223.635C1264.4 223.635 1263.33 222.3 1263.06 220.699C1262.8 219.097 1261.86 217.496 1260.8 217.229C1259.46 216.828 1259.2 217.362 1259.73 219.497C1260.66 223.101 1258.26 224.436 1248.66 225.37C1244.66 225.77 1236.53 227.639 1230.66 229.507C1224.8 231.376 1218.53 232.977 1216.53 232.977C1214.4 232.977 1209.46 230.174 1203.6 225.637C1192.53 217.229 1189.06 216.561 1181.33 221.9C1178.53 223.768 1174.26 225.77 1172.13 226.304C1169.46 226.704 1167.86 228.039 1167.46 229.641C1166.93 232.577 1164.66 234.579 1157.6 238.449C1152 241.385 1150.4 240.985 1148.53 236.047C1147.6 233.377 1147.73 232.043 1149.46 230.041C1150.93 228.573 1152.13 228.172 1152.66 228.973C1153.2 229.774 1154.8 228.973 1156.66 226.971C1159.33 224.169 1159.6 223.234 1158 222.3C1155.2 220.565 1158.26 217.629 1167.86 213.091C1173.73 210.155 1176.4 209.488 1177.6 210.556C1178.93 211.623 1180 211.356 1181.73 209.888C1183.33 208.42 1184.66 208.153 1186 209.088C1187.06 209.755 1191.86 210.289 1196.53 210.022C1204.4 209.888 1205.2 210.022 1206.8 213.225C1209.46 218.296 1215.6 220.298 1222.8 218.697C1226.13 217.896 1231.46 217.496 1234.8 217.629C1238 217.896 1240.93 217.629 1241.33 216.962C1241.73 216.294 1243.06 216.161 1244.13 216.561C1246.26 217.362 1248.66 214.96 1248.66 212.157C1248.66 211.356 1247.2 210.022 1245.46 208.954C1243.6 208.02 1242.53 206.552 1242.8 205.618C1243.6 203.482 1232 196.542 1228.93 197.343C1227.2 197.743 1227.6 198.277 1230.53 199.478C1234.26 200.946 1241.73 206.285 1240.26 206.285C1238.93 206.285 1205.6 189.068 1204.26 187.734C1203.33 186.8 1202 186.8 1200.4 187.734C1196.66 189.736 1192.66 188.001 1192.66 184.13C1192.66 181.995 1193.46 180.927 1194.93 180.927C1196.93 180.927 1196.93 181.194 1195.46 182.128C1193.2 183.597 1194.53 187.6 1197.2 187.6C1199.6 187.6 1204.93 181.061 1204.26 179.059C1204 178.258 1202.4 177.724 1200.8 177.858C1199.33 178.125 1198 177.591 1198 176.923C1198 175.722 1209.33 174.922 1215.86 175.589C1217.2 175.722 1220.93 174.788 1224.13 173.587C1228 172.119 1230.66 171.852 1232.13 172.653C1233.33 173.32 1236.53 173.453 1239.2 172.786C1241.86 172.252 1248.66 171.318 1254.4 170.918C1265.73 169.85 1266.66 168.782 1262.26 161.709C1260.13 158.239 1258.53 157.438 1248 155.436C1232 152.233 1230.4 152.367 1213.33 156.237C1172.93 165.713 1151.86 172.653 1129.86 183.597C1115.2 191.07 1080.13 205.618 1068.67 209.088C1063.2 210.689 1054.93 212.157 1050.13 212.157C1041.73 212.291 1041.6 212.291 1037.47 206.952C1025.73 191.871 1006 174.788 979.999 157.305C962.533 145.56 957.999 143.425 957.999 146.761C957.999 149.964 951.733 151.032 948.666 148.229C945.999 145.827 942.266 146.761 944.399 149.297C945.066 150.231 946.133 152.767 946.666 155.169C947.599 159.84 954.533 170.25 956.666 170.25C957.466 170.25 957.999 166.514 957.999 161.976C957.999 157.305 958.533 152.767 959.199 151.699C961.199 148.63 961.866 152.1 960.533 158.239C959.866 161.309 959.466 165.846 959.733 168.115C960.266 172.252 960.266 172.252 967.599 171.852C973.199 171.452 976.399 172.119 980.132 174.121C983.466 175.856 984.399 176.79 982.932 176.923C981.599 176.923 980.666 177.724 980.932 178.658C981.732 180.794 986.132 181.595 987.332 179.726C988.266 177.991 992.666 179.192 992.666 181.061C992.666 181.728 991.199 182.262 989.466 182.262C986.399 182.262 983.599 184.397 985.066 185.732C985.332 185.999 987.866 186.399 990.532 186.533C994.532 186.666 995.866 187.333 996.799 189.869C997.599 191.871 999.066 192.939 1001.2 192.939C1004.8 192.939 1008.93 197.476 1007.73 200.279C1007.07 202.148 1001.33 199.478 994.132 194.006C992.399 192.672 989.332 191.604 987.199 191.604C985.199 191.604 981.732 190.003 979.332 188.001C975.866 185.065 974.533 184.664 971.599 185.732C966.533 187.467 966.933 190.937 972.133 190.937C974.799 190.937 977.866 192.405 981.066 195.208C983.999 197.743 988.399 199.879 992.666 200.813C1001.2 202.681 1004.67 204.416 1004.67 206.952C1004.67 209.354 1005.07 209.354 994.666 206.819C984.932 204.416 979.866 205.084 978.666 208.954C978.133 210.422 976.266 212.558 974.266 213.492C969.733 215.894 965.999 220.298 963.199 226.437C960.799 231.509 955.733 236.981 953.466 236.981C952.666 236.981 953.066 236.314 954.266 235.646C956.666 234.178 961.999 226.171 961.999 224.035C961.999 223.368 960.533 221.9 958.666 220.966C954.399 218.697 954.399 217.095 958.666 218.029C961.333 218.43 963.333 217.496 967.333 213.492C970.133 210.556 974.133 206.952 975.999 205.351C981.199 200.813 980.399 197.743 972.933 194.54C963.599 190.536 955.733 189.736 947.999 192.138C944.266 193.339 940.133 194.273 938.666 194.273C936.399 194.273 936.399 194.006 937.999 192.405C940.799 189.869 959.999 184.931 963.466 185.865C965.866 186.533 966.266 186.266 965.599 184.531C964.933 182.662 965.599 182.262 969.999 182.262C976.399 182.262 976.799 180.393 971.333 177.591C966.666 175.188 963.066 175.722 951.999 181.061C947.599 183.063 941.599 185.065 938.666 185.465L933.333 186.266L938.266 183.997C941.066 182.929 943.333 181.328 943.333 180.66C943.333 178.792 932.266 174.388 925.199 173.32C921.6 172.92 916.4 170.784 913.333 168.782C910.266 166.78 903.866 163.711 898.933 162.109L890.133 159.307L881.333 164.111C876.533 166.914 871.6 170.651 870.4 172.653C869.2 174.655 866.8 177.724 865.2 179.593C863.467 181.461 861.2 185.065 860.133 187.734C859.067 190.403 854.133 197.743 849.333 204.149C844.533 210.556 838.533 219.898 836 224.969C833.467 230.041 830.8 234.445 830.133 234.979C828.133 236.18 832.267 226.571 837.067 219.231C841.733 211.623 840.933 210.422 831.867 211.356C828.4 211.623 826 211.356 826 210.556C826 209.755 827.067 209.088 828.267 208.954ZM886.8 136.485C888.533 137.019 889.866 133.148 889.066 130.613C888.666 129.678 887.6 128.878 886.533 128.878C884.133 128.878 884.4 135.684 886.8 136.485ZM904.8 161.309C910.666 164.111 916 165.98 916.666 165.579C919.866 163.577 917.333 160.775 908.266 156.371C897.6 151.032 894 150.365 894 153.968C894 155.436 897.466 157.839 904.8 161.309ZM920.533 158.105C922.933 157.839 925.866 158.773 928.799 161.042C935.199 165.846 937.866 167.047 944.266 168.115C950.933 169.049 951.333 167.982 946.533 163.444C944.666 161.709 942.266 158.372 941.333 155.97L939.466 151.699L931.066 152.367C919.066 153.301 916.666 153.968 916.666 156.371C916.666 157.839 917.733 158.372 920.533 158.105ZM925.066 168.916C927.466 168.916 931.466 170.384 934.266 172.252C939.199 175.589 941.999 176.39 941.999 174.521C941.999 173.587 931.066 164.779 926.266 161.842C923.999 160.374 920.666 163.177 920.666 166.38C920.666 168.382 921.6 168.916 925.066 168.916ZM936.399 117.934C937.333 118.201 937.999 117.667 938.133 116.599C938.133 115.665 938.399 113.93 938.666 112.729C939.199 109.659 937.333 106.99 935.466 108.191C933.466 109.392 934.266 117.133 936.399 117.934ZM945.066 116.065C945.999 115.798 947.466 114.33 948.399 112.862C949.733 110.593 949.733 110.193 948.133 110.193C947.066 110.193 945.466 111.261 944.799 112.595C942.933 115.665 943.066 116.866 945.066 116.065ZM946.666 106.189C948.799 106.189 950.933 102.586 949.599 101.251C949.066 100.851 947.866 100.851 946.666 101.251C943.999 102.319 943.999 106.189 946.666 106.189ZM957.333 66.1509C958.933 67.4856 959.466 67.3521 960.133 65.4836C960.933 63.3483 958.933 60.946 956.266 60.8125C954.533 60.8125 955.199 64.416 957.333 66.1509ZM962.666 94.1777C963.733 94.1777 964.666 93.6439 964.666 92.8431C964.666 92.1758 963.733 91.5085 962.666 91.5085C961.599 91.5085 960.666 92.1758 960.666 92.8431C960.666 93.6439 961.599 94.1777 962.666 94.1777ZM970.933 147.696C972.799 148.363 976.399 150.765 978.932 152.901C983.466 156.904 985.999 157.972 985.999 155.703C985.999 154.369 979.866 149.564 972.266 145.026C968.133 142.491 967.333 142.357 967.333 144.092C967.333 145.293 968.933 146.895 970.933 147.696ZM982.666 83.5009C983.732 83.5009 984.666 82.5666 984.666 81.3655C984.666 79.497 984.266 79.497 982.666 80.8316C981.599 81.7659 980.666 82.7001 980.666 82.967C980.666 83.2339 981.599 83.5009 982.666 83.5009ZM984.932 89.907C985.732 89.6401 986.799 88.5724 987.066 87.7716C987.332 86.8374 986.799 86.437 985.466 86.9708C983.066 87.9051 982.532 90.7077 984.932 89.907ZM987.466 106.857C989.466 106.189 989.999 106.323 989.466 107.39C988.932 108.191 987.599 108.858 986.532 108.858C985.466 108.858 984.666 109.526 984.666 110.193C984.666 110.994 985.732 111.528 987.066 111.528C988.399 111.528 990.132 112.195 990.932 112.996C993.199 115.265 995.599 113.129 995.066 109.392C994.799 107.123 995.732 105.255 997.999 103.52C1002.27 100.317 1000.67 98.7154 995.732 101.251C993.732 102.319 991.199 102.853 990.266 102.586C987.599 101.652 984.666 103.253 984.666 105.522C984.666 107.123 985.466 107.524 987.466 106.857ZM991.066 79.497C992.799 79.497 993.999 77.8955 993.199 76.5609C992.399 75.2263 989.999 76.4274 989.999 78.2959C989.999 78.9632 990.532 79.497 991.066 79.497ZM995.199 98.8489C995.866 99.2492 996.799 98.9823 997.332 98.1816C997.732 97.5143 997.199 96.8469 996.132 96.8469C993.732 96.8469 993.332 97.6477 995.199 98.8489ZM1001.73 90.1739C1007.73 89.1062 1010 87.9051 1010 85.9032C1010 84.0347 999.866 85.3693 997.332 87.5047C994.266 90.0404 996.132 91.2416 1001.73 90.1739ZM1006.8 103.52C1009.07 103.52 1008.67 100.584 1006.27 99.7831C1005.33 99.5162 1004.67 100.183 1004.67 101.385C1004.67 102.586 1005.6 103.52 1006.8 103.52ZM1016.8 100.851C1018.13 100.851 1019.6 100.183 1020 99.5162C1020.93 97.9146 1015.2 95.5123 1010.93 95.5123L1008 95.6458L1011.2 98.1816C1012.93 99.6496 1015.33 100.851 1016.8 100.851ZM1014.67 72.824C1015.73 72.824 1016.67 72.2901 1016.67 71.4894C1016.67 70.8221 1015.73 70.1548 1014.67 70.1548C1013.6 70.1548 1012.67 70.8221 1012.67 71.4894C1012.67 72.2901 1013.6 72.824 1014.67 72.824ZM1017.87 126.876C1019.47 127.81 1021.07 125.274 1020 123.539C1019.07 122.071 1016.67 123.005 1016.67 124.874C1016.67 125.541 1017.2 126.342 1017.87 126.876ZM1047.33 171.452C1054.67 177.591 1066.27 182.262 1074.27 182.262C1080 182.262 1080.67 180.66 1077.47 174.521C1073.07 166.247 1066.53 162.376 1054.8 161.709C1038.8 160.641 1037.07 162.777 1047.33 171.452ZM1157.06 233.511C1160 231.776 1163.33 228.573 1163.33 227.372C1163.33 225.37 1160.26 226.304 1157.06 229.107C1154.13 232.043 1154.13 235.112 1157.06 233.511ZM1171.46 220.966C1174.8 220.966 1179.33 218.697 1179.33 216.962C1179.33 215.227 1174.53 215.227 1171.2 216.962C1167.86 218.83 1168 220.966 1171.46 220.966ZM1191.86 216.161C1195.46 217.095 1199.33 216.028 1199.33 214.159C1199.33 212.558 1193.2 211.089 1190.66 212.157C1187.6 213.225 1188.26 215.227 1191.86 216.161ZM1206 223.635C1208.93 226.571 1211.33 227.105 1211.33 224.702C1211.33 222.567 1207.2 218.296 1205.06 218.296C1202.53 218.296 1202.93 220.565 1206 223.635ZM1229.73 193.339C1235.46 196.142 1240.66 198.277 1241.33 198.277C1242.13 198.277 1247.46 201.213 1253.33 204.683C1260 208.687 1265.46 210.956 1268 210.956C1272.66 210.823 1278 207.753 1278 205.217C1278 202.681 1281.73 201.747 1284 203.616C1285.6 204.95 1286.8 204.95 1289.33 203.883C1297.06 200.279 1289.86 191.204 1278.26 189.736C1271.86 188.935 1271.2 189.068 1270 191.871C1268.93 194.807 1268.8 194.807 1268.8 192.138C1268.66 189.602 1267.73 189.202 1259.6 188.401C1238.13 186.533 1219.33 185.999 1219.33 187.2C1219.33 187.867 1224 190.67 1229.73 193.339ZM1223.06 227.372C1226.8 227.906 1235.33 223.902 1235.33 221.499C1235.33 220.432 1234.66 219.631 1234 219.631C1233.2 219.631 1232.66 220.298 1232.66 220.966C1232.66 221.766 1230.66 222.3 1228.13 222.3C1222.4 222.3 1219.06 223.501 1219.73 225.503C1220 226.304 1221.46 227.105 1223.06 227.372ZM1242.8 223.902C1248.53 223.368 1250 222.567 1250 220.298C1250 218.563 1249.06 218.296 1244.93 219.097C1238.8 220.165 1237.73 220.832 1238.4 222.701C1238.66 223.635 1240.66 224.169 1242.8 223.902ZM1251.73 219.497C1252.8 220.298 1253.86 220.565 1254.4 220.165C1255.6 218.83 1253.86 215.627 1251.86 215.627C1249.46 215.627 1249.46 217.496 1251.73 219.497ZM1271.2 171.051C1273.86 174.121 1278 179.059 1280.4 182.128C1284.8 187.6 1288.66 189.335 1288.66 185.865C1288.66 184.798 1287.33 182.929 1285.86 181.461C1284.26 180.127 1281.6 176.79 1280 174.254C1276 167.982 1266 158.105 1264.53 159.04C1262.93 159.974 1265.33 164.378 1271.2 171.051ZM1268.8 180.66C1273.06 181.061 1276.53 178.925 1274.53 176.923C1272.8 175.188 1264.4 176.79 1265.06 178.792C1265.33 179.593 1266.93 180.393 1268.8 180.66ZM1273.2 186.266C1275.06 186.266 1276.93 185.732 1277.33 184.931C1277.86 184.13 1276.4 183.597 1274.13 183.597C1271.86 183.597 1270 184.264 1270 184.931C1270 185.732 1271.46 186.266 1273.2 186.266ZM1292.4 195.608C1294.66 198.544 1298 198.411 1298 195.608C1298 194.14 1292.53 188.935 1291.06 188.935C1289.2 188.935 1289.86 192.538 1292.4 195.608ZM1291.06 210.289C1292.93 210.289 1297.2 205.084 1296.26 204.016C1295.73 203.616 1294.13 204.283 1292.66 205.618C1289.86 208.153 1289.2 210.289 1291.06 210.289ZM1308.93 245.122C1313.2 247.257 1317.2 250.194 1318 251.662C1320 255.265 1322.8 254.998 1325.46 250.861C1327.46 247.925 1327.46 247.257 1326 246.323C1324.8 245.656 1323.46 245.656 1322.53 246.457C1321.33 247.391 1319.73 247.124 1317.06 245.789L1313.33 243.654L1317.33 244.455L1321.33 245.389L1318.66 242.319C1315.33 238.582 1310.93 236.847 1309.73 238.849C1309.06 239.917 1307.2 239.383 1303.46 237.381C1300.66 235.78 1298 234.845 1297.46 235.246C1296 236.714 1301.2 241.252 1308.93 245.122ZM1307.33 201.48C1308.13 203.616 1309.6 204.95 1311.33 204.95C1313.6 204.95 1314 204.149 1314 199.211C1314 194.807 1314.93 192.405 1318 188.935C1324.66 181.061 1322.4 176.39 1314.8 182.395C1311.33 185.198 1306.13 193.473 1306 196.542C1306 197.343 1306.53 199.612 1307.33 201.48ZM1324.53 200.146C1325.2 200.546 1326.4 200.012 1327.2 199.078C1328.93 196.943 1326.93 194.807 1324.66 196.275C1323.06 197.343 1322.93 199.211 1324.53 200.146Z" fill="white"/>
<path d="M686.546 1.33479C685.88 2.26812 684.813 4.13479 684.28 5.60145C683.48 8.00145 683.346 8.00145 680.813 5.73479C678.68 3.73479 675.613 3.20145 665.346 3.06812L652.546 2.80145L646.146 8.13479C637.613 15.0681 635.746 19.4681 635.213 32.9348C634.946 38.9348 634.413 44.2681 633.88 44.6681C633.213 44.9348 632.813 48.1348 632.813 51.6015C632.813 59.4681 638.013 66.9348 649.213 75.4681C657.48 81.6015 664.413 90.8015 666.413 98.0015C667.213 101.068 669.08 103.335 671.746 104.801C681.88 110.268 682.68 113.868 676.413 126.668L673.213 132.935L677.346 136.801C681.48 140.668 700.013 151.735 702.28 151.735C703.746 151.735 703.88 154.001 702.413 154.935C701.746 155.335 696.013 152.535 689.48 148.801C674.946 140.401 654.68 121.201 653.346 114.668C652.546 110.535 650.146 108.668 650.146 112.135C650.146 114.535 646.28 121.868 632.946 144.801C626.946 155.335 620.946 166.668 619.746 170.135C618.68 173.601 615.346 180.801 612.413 186.135C609.48 191.468 607.48 196.268 607.88 196.668C608.413 197.068 606.546 200.001 603.88 203.201C599.213 208.935 599.213 209.201 601.48 211.735C602.813 213.201 604.946 214.401 606.28 214.401C607.613 214.401 609.08 215.068 609.48 215.868C610.013 216.668 611.346 216.801 612.68 216.268C613.88 215.868 619.346 214.935 624.813 214.268C644.146 212.001 643.346 212.401 671.346 192.935C687.88 181.468 700.146 174.535 705.213 173.601C708.813 173.068 710.68 172.001 711.213 170.135C711.613 168.401 712.546 167.868 714.013 168.535C715.213 169.068 720.013 170.801 724.813 172.535C731.746 175.068 734.813 177.068 740.413 183.068C744.146 187.335 751.08 193.335 755.613 196.535C763.48 202.001 764.546 202.401 772.946 202.401C778.013 202.401 782.413 201.735 782.946 200.935C783.346 200.135 781.746 197.335 779.213 194.668C776.68 191.868 771.08 184.268 766.813 177.735C752.413 155.468 750.28 152.401 744.013 145.068C738.013 138.001 733.746 134.535 730.68 134.401C729.88 134.401 728.413 137.868 727.48 142.001C723.88 158.668 722.28 162.401 719.08 162.401C715.213 162.268 704.813 157.601 704.813 155.735C704.813 153.868 706.413 154.001 713.346 157.068L719.48 159.601L721.346 152.668C722.413 148.801 724.013 143.201 724.813 140.135C726.68 132.535 732.546 127.735 740.013 127.735C744.546 127.735 748.413 126.268 752.68 122.801C752.946 122.668 753.613 119.868 754.146 116.801C755.746 107.601 760.146 97.3348 763.88 93.8681C767.213 90.8015 767.213 90.5348 765.346 85.2015C764.28 82.0015 762.813 73.4681 762.013 66.0015C760.013 47.3348 755.213 32.2681 748.946 25.8681C735.746 12.1348 705.88 2.40145 695.48 8.40145C690.546 11.2015 689.88 10.9348 690.413 5.46812C690.813 0.534787 688.946 -1.59855 686.546 1.33479Z" fill="white"/>
<path d="M655.48 106.402C653.746 109.468 659.213 120.535 665.346 126.402C670.813 131.602 671.08 131.468 674.946 121.468C677.613 114.535 677.08 112.802 670.546 108.535C664.013 104.135 657.213 103.202 655.48 106.402Z" fill="white"/>
<path d="M681.315 592.98C679.315 606.18 679.315 614.18 681.315 617.914C682.115 619.514 683.315 624.447 683.715 628.847L684.648 636.847L684.915 629.247C684.915 624.98 685.715 618.847 686.648 615.647C687.848 610.98 687.848 607.38 686.382 598.58C683.715 581.914 683.048 581.247 681.315 592.98Z" fill="white"/>
<path d="M670.782 608.18C669.048 610.98 667.715 614.314 667.715 615.38C667.715 616.447 670.115 620.314 673.048 624.047C675.982 627.78 678.382 631.647 678.382 632.847C678.382 633.914 679.048 634.847 679.848 634.847C680.648 634.847 680.915 633.914 680.515 632.714C680.115 631.514 679.715 630.18 679.715 629.647C679.715 629.114 678.115 626.847 676.248 624.714C673.315 621.38 672.915 619.914 673.448 614.18C673.715 610.447 674.515 606.447 675.048 605.114C676.915 600.714 673.715 602.847 670.782 608.18Z" fill="white"/>
<path d="M693.315 609.247C694.382 613.78 694.115 615.38 691.182 621.247C687.715 628.18 686.648 633.514 688.915 633.514C689.715 633.514 689.982 632.314 689.715 630.847C689.182 627.78 693.848 621.38 696.115 622.314C698.782 623.38 697.315 608.847 694.382 606.18C691.982 604.047 691.982 604.18 693.315 609.247Z" fill="white"/>
<path d="M702.248 617.78C702.248 618.047 701.982 619.514 701.848 621.114C701.715 622.714 699.582 625.647 697.182 627.514C692.115 631.914 692.515 633.38 697.982 630.047C699.982 628.714 701.848 627.514 702.115 627.38C703.315 626.714 704.648 618.714 703.582 618.18C702.915 617.647 702.382 617.514 702.248 617.78Z" fill="white"/>
<path d="M661.715 620.18C657.982 626.047 660.248 630.18 669.448 633.913C675.715 636.58 675.715 635.38 669.182 629.113C666.248 626.313 663.715 622.847 663.448 621.113C663.182 618.713 662.782 618.58 661.715 620.18Z" fill="white"/>
<path d="M691.848 641.113C690.248 642.98 689.315 644.847 689.715 645.247C690.515 646.18 694.248 642.98 695.848 639.913C697.848 636.18 695.048 636.98 691.848 641.113Z" fill="white"/>
<path d="M672.382 642.713C675.448 645.78 685.048 647.913 685.048 645.647C685.048 644.847 683.315 644.18 681.182 644.18C679.048 644.18 676.648 643.247 675.715 642.18C674.782 641.113 673.048 640.18 671.982 640.18C670.115 640.18 670.248 640.58 672.382 642.713Z" fill="white"/>
</svg>
